{
.appVersion = "3205";
.formatVersion = 3;
axes = (
{
default = 100;
name = Weight;
tag = wght;
}
);
classes = (
{
code = "nya-tml2 nna-tml2 rra-tml2 nnna-tml2 la-tml2 na-tml2 ta-tml2";
name = CG_1;
},
{
code = "na-tml2.psts nya-tml2.psts nna-tml2.psts rra-tml2.psts la-tml2.psts ta-tml2.psts nnna-tml2.psts";
name = CG_2;
},
{
code = "sa-tml2 ha-tml2";
name = CG_3;
},
{
code = "llla-tml2 sha-tml2 rra-tml2 ma-tml2 ja-tml2 ha-tml2";
name = CG_4;
},
{
code = "ssa-tml2 ka_signviramacomb_ssa-tml2.akhn";
name = CG_5;
},
{
code = "ka-tml2 ta-tml2";
name = CG_6;
},
{
code = "nya-tml2 na-tml2";
name = CG_7;
},
{
code = "ya-tml2 va-tml2 pa-tml2 nga-tml2";
name = CG_8;
},
{
code = "vowelsigni-tml2 vowelsigniicomb-tml2 signanusvaracomb-tml2 signviramacomb-tml2";
name = CG_9;
},
{
code = "nna-tml2 nnna-tml2 lla-tml2 la-tml2";
name = CG_10;
},
{
code = "nna-tml2 vowelsignuu-tml2.alt1 ee-tml2 vowelsignaa-tml2 nnna-tml2 lla-tml2 e-tml2 aulength-tml2 onehundred-tml2 ra-tml2 au-tml2";
name = KernClass1;
},
{
code = "llla_vowelsignuu-tml2.psts seven-tml2 asabovesign-tml2 nya-tml2 nna-tml2 ee-tml2 sa-tml2 ca_vowelsignu-tml2.psts vowelsignai-tml2 ma_vowelsignuu-tml2.psts ssa-tml2 tta_vowelsignu-tml2.psts va-tml2 lla_vowelsignu-tml2.psts four-tml2 onethousand-tml2 creditsign-tml2 five-tml2 nnna-tml2 sha_signviramacomb_ra_vowelsigniicomb-tml2.akhn lla-tml2 va_vowelsignuu-tml2.psts ka-tml2 ka_vowelsignu-tml2.psts lla_vowelsignuu-tml2.psts e-tml2 aulength-tml2 la-tml2 yearsign-tml2 six-tml2 ta-tml2 ra_vowelsignu-tml2.psts nya-tml2.psts ca_vowelsignuu-tml2.psts nna-tml2.psts ma_vowelsignu-tml2.psts ra_vowelsignuu-tml2.psts ca-tml2 tta_vowelsignuu-tml2.psts nine-tml2 la-tml2.psts ha-tml2 one-tml2 nnna-tml2.psts daysign-tml2";
name = KernClass2;
},
{
code = "aa-tml2 a-tml2 eight-tml2";
name = KernClass3;
},
{
code = "i-tml2";
name = KernClass_tm_I;
},
{
code = "signanusvaracomb-tml2 signviramacomb-tml2";
name = M2B_M_1;
},
{

glyphs = (
{
glyphname = A;
layers = (
{
layerId = m001;
shapes = (
{
closed = 1;
nodes = (
(150,252,l),
(281,614,l),
(417,252,l)
);
},
{
closed = 1;
nodes = (
(10,0,l),
(59,0,l),
(136,213,l),
(431,213,l),
(512,-6,l),
(562,5,l),
(303,680,l),
(257,680,l)
);
}
);
width = 572;
},
{
layerId = m003;
shapes = (
{
closed = 1;
nodes = (
(288,277,l),
(353,462,l),
(421,277,l)
);
},
{
closed = 1;
nodes = (
(10,0,l),
(191,0,l),
(238,134,l),
(473,134,l),
(522,-10,l),
(701,8,l),
(447,680,l),
(265,680,l)
);
}
);
width = 711;
}
);
unicode = 65;
},
{
glyphname = Aogonek;
layers = (
{
layerId = m001;
shapes = (
{
closed = 1;
nodes = (
(504,-5,o),
(476,-45,o),
(460,-87,o),
(460,-106,q),
(460,-134,o),
(488,-178,o),
(535,-202,o),
(565,-202,q),
(582,-202,o),
(612,-194,o),
(637,-180,o),
(645,-172,q),
(623,-145,l),
(611,-155,o),
(584,-166,o),
(568,-166,q),
(549,-166,o),
(506,-137,o),
(506,-107,q),
(506,-85,o),
(519,-46,o),
(544,-11,o),
(562,5,q),
(522,9,l)
);
},
{
closed = 1;
nodes = (
(150,252,l),
(281,614,l),
(417,252,l)
);
},
{
closed = 1;
nodes = (
(10,0,l),
(59,0,l),
(136,213,l),
(431,213,l),
(512,-6,l),
(562,5,l),
(303,680,l),
(257,680,l)
);
}
);
width = 572;
},
{
layerId = m003;
shapes = (
{
closed = 1;
nodes = (
(525,-3,o),
(513,-40,o),
(506,-76,o),
(506,-89,q),
(506,-126,o),
(540,-194,o),
(606,-236,o),
(654,-236,q),
(681,-236,o),
(741,-224,o),
(792,-202,o),
(803,-189,q),
(742,-87,l),
(728,-100,o),
(708,-107,o),
(698,-107,q),
(685,-107,o),
(669,-87,o),
(669,-75,q),
(669,-63,o),
(680,-30,o),
(695,1,o),
(701,9,q),
(531,9,l)
);
},
{
closed = 1;
nodes = (
(288,277,l),
(353,462,l),
(421,277,l)
);
},
{
closed = 1;
nodes = (
(10,0,l),
(191,0,l),
(238,134,l),
(473,134,l),
(522,-10,l),
(701,8,l),
(447,680,l),
(265,680,l)
);
}
);
width = 711;
}
);
unicode = 260;
},
{
glyphname = AE;
layers = (
{
layerId = m001;
shapes = (
{
closed = 1;
nodes = (
(809,0,l),
(803,39,l),
(483,39,l),
(483,329,l),
(728,329,l),
(723,368,l),
(483,368,l),
(483,641,l),
(786,641,l),
(781,680,l),
(426,680,l),
(10,5,l),
(60,-5,l),
(190,213,l),
(434,213,l),
(434,0,l)
);
},
{
closed = 1;
nodes = (
(434,252,l),
(214,252,l),
(434,611,l)
);
}
);
width = 829;
},
{
layerId = m003;
shapes = (
{
closed = 1;
nodes = (
(967,0,l),
(950,143,l),
(651,143,l),
(651,270,l),
(877,270,l),
(860,413,l),
(651,413,l),
(651,537,l),
(937,537,l),
(920,680,l),
(469,680,l),
(10,13,l),
(185,-13,l),
(277,128,l),
(469,128,l),
(469,0,l)
);
},
{
closed = 1;
nodes = (
(469,271,l),
(378,271,l),
(469,399,l)
);
}
);
width = 987;
}
);
unicode = 198;
},
{
glyphname = B;
layers = (
{
layerId = m001;
shapes = (
{
closed = 1;
nodes = (
(322,0,o),
(414,19,o),
(485,62,o),
(525,134,o),
(525,188,q),
(525,259,o),
(448,343,o),
(386,362,q),
(427,382,o),
(487,452,o),
(487,503,q),
(487,571,o),
(424,648,o),
(314,680,o),
(242,680,q),
(100,680,l),
(100,0,l),
(269,0,l)
);
},
{
closed = 1;
nodes = (
(309,641,o),
(390,615,o),
(435,554,o),
(435,502,q),
(435,454,o),
(381,397,o),
(293,373,o),
(241,372,q),
(150,372,l),
(150,641,l),
(254,641,l)
);
},
{
closed = 1;
nodes = (
(374,333,o),
(473,262,o),
(473,186,q),
(473,134,o),
(422,69,o),
(335,39,o),
(281,39,q),
(150,39,l),
(150,333,l),
(292,333,l)
);
}
);
width = 565;
},
{
layerId = m003;
shapes = (
{
closed = 1;
nodes = (
(392,0,o),
(495,20,o),
(577,66,o),
(625,145,o),
(625,203,q),
(625,252,o),
(574,333,o),
(534,361,q),
(557,384,o),
(597,444,o),
(597,484,q),
(597,554,o),
(519,640,o),
(392,680,o),
(317,680,q),
(80,680,l),
(80,0,l),
(337,0,l)
);
},
{
closed = 1;
nodes = (
(342,537,o),
(385,523,o),
(409,496,o),
(409,475,q),
(409,457,o),
(379,434,o),
(331,422,o),
(303,422,q),
(262,422,l),
(262,537,l),
(311,537,l)
);
},
{
closed = 1;
nodes = (
(385,279,o),
(437,241,o),
(437,207,q),
(437,186,o),
(412,157,o),
(369,143,o),
(341,143,q),
(262,143,l),
(262,279,l),
(339,279,l)
);
}
);
width = 645;
}
);
unicode = 66;
},
{
glyphname = C;
layers = (
{
layerId = m001;
shapes = (
{
closed = 1;
nodes = (
(505,670,o),
(443,686,o),
(381,694,o),
(360,694,q),
(287,694,o),
(171,639,o),
(92,541,o),
(50,411,o),
(50,336,q),
(50,267,o),
(87,141,o),
(161,43,o),
(276,-14,o),
(354,-14,q),
(383,-14,o),
(447,-4,o),
(505,13,o),
(523,23,q),
(499,59,l),
(472,47,o),
(403,29,o),
(349,29,q),
(291,29,o),
(200,79,o),
(138,165,o),
(105,276,o),
(105,337,q),
(105,433,o),
(172,574,o),
(287,651,o),
(358,651,q),
(394,651,o),
(443,643,o),
(483,630,o),
(503,621,q),
(523,657,l)
);
}
);
width = 553;
},
{
layerId = m003;
shapes = (
{
closed = 1;
nodes = (
(553,655,o),
(485,680,o),
(413,693,o),
(379,693,q),
(304,693,o),
(176,641,o),
(82,546,o),
(30,415,o),
(30,337,q),
(30,260,o),
(78,132,o),
(169,38,o),
(300,-13,o),
(383,-13,q),
(418,-13,o),
(491,-1,o),
(560,21,o),
(586,37,q),
(517,173,l),
(491,157,o),
(425,136,o),
(388,136,q),
(356,136,o),
(295,163,o),
(247,215,o),
(218,290,o),
(218,338,q),
(218,400,o),
(266,493,o),
(341,544,o),
(381,544,q),
(404,544,o),
(442,539,o),
(489,527,o),
(525,514,q),
(579,637,l)
);
}
);
width = 596;
}
);
unicode = 67;
},
{
glyphname = D;
layers = (
{
layerId = m001;
shapes = (
{
closed = 1;
nodes = (
(421,0,o),
(549,93,o),
(612,250,o),
(612,344,q),
(612,437,o),
(555,589,o),
(429,680,o),
(324,680,q),
(100,680,l),
(100,0,l),
(321,0,l)
);
},
{
closed = 1;
nodes = (
(410,641,o),
(511,559,o),
(561,424,o),
(561,343,q),
(561,256,o),
(501,118,o),
(394,39,o),
(322,39,q),
(149,39,l),
(149,641,l),
(332,641,l)
);
}
);
width = 662;
},
{
layerId = m003;
shapes = (
{
closed = 1;
nodes = (
(480,0,o),
(626,84,o),
(709,238,o),
(709,344,q),
(709,441,o),
(636,592,o),
(493,680,o),
(388,680,q),
(80,680,l),
(80,0,l),
(384,0,l)
);
},
{
closed = 1;
nodes = (
(425,537,o),
(488,487,o),
(521,400,o),
(521,344,q),
(521,277,o),
(481,187,o),
(414,143,o),
(372,143,q),
(262,143,l),
(262,537,l),
(379,537,l)
);
}
);
width = 739;
}
);
unicode = 68;
},
{
glyphname = Dcroat;
layers = (
{
layerId = m001;
shapes = (
{
closed = 1;
nodes = (
(258,353,l),
(10,353,l),
(20,314,l),
(268,314,l)
);
},
{
closed = 1;
nodes = (
(421,0,o),
(549,93,o),
(612,250,o),
(612,344,q),
(612,437,o),
(555,589,o),
(429,680,o),
(324,680,q),
(100,680,l),
(100,0,l),
(321,0,l)
);
},
{
closed = 1;
nodes = (
(410,641,o),
(511,559,o),
(561,424,o),
(561,343,q),
(561,256,o),
(501,118,o),
(394,39,o),
(322,39,q),
(149,39,l),
(149,641,l),
(332,641,l)
);
}
);
width = 662;
},
{
layerId = m003;
shapes = (
{
closed = 1;
nodes = (
(369,413,l),
(0,413,l),
(17,270,l),
(386,270,l)
);
},
{
closed = 1;
nodes = (
(480,0,o),
(626,84,o),
(709,238,o),
(709,344,q),
(709,441,o),
(636,592,o),
(493,680,o),
(388,680,q),
(80,680,l),
(80,0,l),
(384,0,l)
);
},
{
closed = 1;
nodes = (
(425,537,o),
(488,487,o),
(521,400,o),
(521,344,q),
(521,277,o),
(481,187,o),
(414,143,o),
(372,143,q),
(262,143,l),
(262,537,l),
(379,537,l)
);
}
);
width = 739;
}
);
unicode = 272;
},
{
glyphname = Eth;
layers = (
{
layerId = m001;
shapes = (
{
closed = 1;
nodes = (
(258,353,l),
(10,353,l),
(20,314,l),
(268,314,l)
);
},
{
closed = 1;
nodes = (
(421,0,o),
(549,93,o),
(612,250,o),
(612,344,q),
(612,437,o),
(555,589,o),
(429,680,o),
(324,680,q),
(100,680,l),
(100,0,l),
(321,0,l)
);
},
{
closed = 1;
nodes = (
(410,641,o),
(511,559,o),
(561,424,o),
(561,343,q),
(561,256,o),
(501,118,o),
(394,39,o),
(322,39,q),
(149,39,l),
(149,641,l),
(332,641,l)
);
}
);
width = 662;
},
{
layerId = m003;
shapes = (
{
closed = 1;
nodes = (
(369,413,l),
(0,413,l),
(17,270,l),
(386,270,l)
);
},
{
closed = 1;
nodes = (
(480,0,o),
(626,84,o),
(709,238,o),
(709,344,q),
(709,441,o),
(636,592,o),
(493,680,o),
(388,680,q),
(80,680,l),
(80,0,l),
(384,0,l)
);
},
{
closed = 1;
nodes = (
(425,537,o),
(488,487,o),
(521,400,o),
(521,344,q),
(521,277,o),
(481,187,o),
(414,143,o),
(372,143,q),
(262,143,l),
(262,537,l),
(379,537,l)
);
}
);
width = 739;
}
);
unicode = 208;
},
{
glyphname = E;
layers = (
{
layerId = m001;
shapes = (
{
closed = 1;
nodes = (
(469,39,l),
(149,39,l),
(149,329,l),
(394,329,l),
(389,368,l),
(149,368,l),
(149,641,l),
(452,641,l),
(447,680,l),
(100,680,l),
(100,0,l),
(475,0,l)
);
}
);
width = 495;
},
{
layerId = m003;
shapes = (
{
closed = 1;
nodes = (
(561,143,l),
(262,143,l),
(262,270,l),
(488,270,l),
(471,413,l),
(262,413,l),
(262,537,l),
(548,537,l),
(531,680,l),
(80,680,l),
(80,0,l),
(578,0,l)
);
}
);
width = 598;
}
);
unicode = 69;
},
{
glyphname = F;
layers = (
{
layerId = m001;
shapes = (
{
closed = 1;
nodes = (
(149,364,l),
(149,641,l),
(443,641,l),
(436,680,l),
(100,680,l),
(100,0,l),
(149,0,l),
(149,325,l),
(384,325,l),
(378,364,l)
);
}
);
width = 463;
},
{
layerId = m003;
shapes = (
{
closed = 1;
nodes = (
(262,400,l),
(262,536,l),
(538,536,l),
(521,679,l),
(80,679,l),
(80,0,l),
(262,0,l),
(262,257,l),
(488,257,l),
(471,400,l)
);
}
);
width = 558;
}
);
unicode = 70;
},
{
glyphname = G;
layers = (
{
layerId = m001;
shapes = (
{
closed = 1;
nodes = (
(503,303,l),
(503,52,l),
(478,43,o),
(417,29,o),
(381,29,q),
(301,29,o),
(176,108,o),
(105,247,o),
(105,336,q),
(105,405,o),
(147,521,o),
(224,606,o),
(328,653,o),
(390,653,q),
(426,653,o),
(475,646,o),
(515,633,o),
(535,624,q),
(554,657,l),
(536,670,o),
(473,686,o),
(409,694,o),
(388,694,q),
(315,694,o),
(191,641,o),
(100,545,o),
(50,414,o),
(50,336,q),
(50,237,o),
(130,78,o),
(279,-14,o),
(382,-14,q),
(411,-14,o),
(475,-2,o),
(534,19,o),
(552,31,q),
(552,342,l),
(356,342,l),
(350,303,l)
);
}
);
width = 614;
},
{
layerId = m003;
shapes = (
{
closed = 1;
nodes = (
(462,259,l),
(462,142,l),
(445,139,o),
(412,136,o),
(398,136,q),
(356,136,o),
(273,176,o),
(218,265,o),
(218,338,q),
(218,390,o),
(252,468,o),
(306,519,o),
(371,544,o),
(401,544,q),
(424,544,o),
(472,539,o),
(529,527,o),
(565,514,q),
(619,637,l),
(593,655,o),
(515,680,o),
(433,693,o),
(399,693,q),
(324,693,o),
(190,645,o),
(88,553,o),
(30,421,o),
(30,337,q),
(30,226,o),
(119,70,o),
(283,-13,o),
(393,-13,q),
(428,-13,o),
(516,-1,o),
(600,21,o),
(626,37,q),
(626,392,l),
(361,392,l),
(345,259,l)
);
}
);
width = 666;
}
);
unicode = 71;
},
{
glyphname = H;
layers = (
{
layerId = m001;
shapes = (
{
closed = 1;
nodes = (
(555,680,l),
(506,680,l),
(506,364,l),
(149,364,l),
(149,685,l),
(100,680,l),
(100,0,l),
(149,0,l),
(149,325,l),
(506,325,l),
(506,0,l),
(555,0,l)
);
}
);
width = 655;
},
{
layerId = m003;
shapes = (
{
closed = 1;
nodes = (
(682,680,l),
(500,680,l),
(500,409,l),
(262,409,l),
(262,686,l),
(80,680,l),
(80,0,l),
(262,0,l),
(262,266,l),
(500,266,l),
(500,0,l),
(682,0,l)
);
}
);
width = 762;
}
);
unicode = 72;
},
{
glyphname = I;
layers = (
{
layerId = m001;
shapes = (
{
closed = 1;
nodes = (
(149,680,l),
(100,680,l),
(100,0,l),
(149,0,l)
);
}
);
width = 249;
},
{
layerId = m003;
shapes = (
{
closed = 1;
nodes = (
(262,680,l),
(80,680,l),
(80,0,l),
(262,0,l)
);
}
);
width = 342;
}
);
unicode = 73;
},
{
glyphname = Iogonek;
layers = (
{
layerId = m001;
shapes = (
{
closed = 1;
nodes = (
(83,-18,o),
(50,-75,o),
(50,-111,q),
(50,-139,o),
(78,-183,o),
(125,-207,o),
(155,-207,q),
(180,-207,o),
(222,-190,o),
(235,-177,q),
(213,-150,l),
(201,-160,o),
(174,-171,o),
(158,-171,q),
(139,-171,o),
(96,-142,o),
(96,-112,q),
(96,-90,o),
(108,-51,o),
(131,-16,o),
(149,0,q),
(102,4,l)
);
},
{
closed = 1;
nodes = (
(149,680,l),
(100,680,l),
(100,0,l),
(149,0,l)
);
}
);
width = 249;
},
{
layerId = m003;
shapes = (
{
closed = 1;
nodes = (
(73,-19,o),
(65,-79,o),
(65,-98,q),
(65,-135,o),
(99,-203,o),
(165,-245,o),
(213,-245,q),
(253,-245,o),
(319,-218,o),
(336,-198,q),
(275,-96,l),
(261,-109,o),
(241,-116,o),
(231,-116,q),
(218,-116,o),
(202,-96,o),
(202,-84,q),
(202,-57,o),
(227,-22,o),
(256,-3,o),
(262,0,q),
(80,0,l)
);
},
{
closed = 1;
nodes = (
(262,680,l),
(80,680,l),
(80,0,l),
(262,0,l)
);
}
);
width = 342;
}
);
unicode = 302;
},
{
glyphname = J;
layers = (
{
layerId = m001;
shapes = (
{
closed = 1;
nodes = (
(98,9,o),
(82,-33,o),
(44,-57,o),
(10,-70,q),
(34,-102,l),
(82,-87,o),
(131,-51,o),
(147,2,o),
(147,42,q),
(147,680,l),
(98,680,l),
(98,49,l)
);
}
);
width = 237;
},
{
layerId = m003;
shapes = (
{
closed = 1;
nodes = (
(93,119,o),
(82,85,o),
(47,53,o),
(10,38,q),
(84,-106,l),
(155,-83,o),
(238,-34,o),
(275,34,o),
(275,84,q),
(275,680,l),
(93,680,l),
(93,137,l)
);
}
);
width = 345;
}
);
unicode = 74;
},
{
glyphname = K;
layers = (
{
layerId = m001;
shapes = (
{
closed = 1;
nodes = (
(236,362,l),
(149,269,l),
(149,0,l),
(100,0,l),
(100,680,l),
(149,680,l),
(149,325,l),
(485,695,l),
(519,663,l),
(269,397,l),
(570,0,l),
(508,0,l)
);
}
);
width = 580;
},
{
layerId = m003;
shapes = (
{
closed = 1;
nodes = (
(315,254,l),
(262,204,l),
(262,0,l),
(80,0,l),
(80,680,l),
(262,680,l),
(262,444,l),
(535,695,l),
(676,593,l),
(445,377,l),
(720,0,l),
(489,0,l)
);
}
);
width = 730;
}
);
unicode = 75;
},
{
glyphname = L;
layers = (
{
layerId = m001;
shapes = (
{
closed = 1;
nodes = (
(149,39,l),
(149,680,l),
(100,680,l),
(100,0,l),
(481,0,l),
(476,39,l)
);
}
);
width = 491;
},
{
layerId = m003;
shapes = (
{
closed = 1;
nodes = (
(262,143,l),
(262,680,l),
(80,680,l),
(80,0,l),
(568,0,l),
(551,143,l)
);
}
);
width = 578;
}
);
unicode = 76;
},
{
glyphname = Lslash;
layers = (
{
layerId = m001;
shapes = (
{
closed = 1;
nodes = (
(100,279,l),
(32,219,l),
(10,255,l),
(100,333,l),
(100,680,l),
(149,680,l),
(149,376,l),
(259,472,l),
(281,438,l),
(149,322,l),
(149,39,l),
(476,39,l),
(481,0,l),
(100,0,l)
);
}
);
width = 491;
},
{
layerId = m003;
shapes = (
{
closed = 1;
nodes = (
(80,181,l),
(56,167,l),
(0,306,l),
(80,355,l),
(80,680,l),
(262,680,l),
(262,466,l),
(394,547,l),
(467,414,l),
(262,291,l),
(262,143,l),
(551,143,l),
(568,0,l),
(80,0,l)
);
}
);
width = 578;
}
);
unicode = 321;
},
{
glyphname = M;
layers = (
{
layerId = m001;
shapes = (
{
closed = 1;
nodes = (
(574,566,l),
(574,0,l),
(623,0,l),
(623,680,l),
(596,680,l),
(361,318,l),
(122,680,l),
(100,680,l),
(100,0,l),
(149,0,l),
(149,561,l),
(353,245,l),
(373,249,l)
);
}
);
width = 723;
},
{
layerId = m003;
shapes = (
{
closed = 1;
nodes = (
(537,329,l),
(537,0,l),
(719,0,l),
(719,680,l),
(598,680,l),
(410,421,l),
(205,680,l),
(80,680,l),
(80,0,l),
(262,0,l),
(262,329,l),
(372,195,l),
(445,205,l)
);
}
);
width = 799;
}
);
unicode = 77;
},
{
glyphname = N;
layers = (
{
layerId = m001;
shapes = (
{
closed = 1;
nodes = (
(149,574,l),
(163,545,l),
(531,0,l),
(558,0,l),
(558,680,l),
(509,680,l),
(509,111,l),
(475,170,l),
(128,680,l),
(100,680,l),
(100,0,l),
(149,0,l)
);
}
);
width = 658;
},
{
layerId = m003;
shapes = (
{
closed = 1;
nodes = (
(262,358,l),
(313,288,l),
(523,0,l),
(693,0,l),
(693,680,l),
(511,680,l),
(514,311,l),
(462,380,l),
(249,680,l),
(80,680,l),
(80,0,l),
(262,0,l)
);
}
);
width = 773;
}
);
unicode = 78;
},
{
glyphname = O;
layers = (
{
layerId = m001;
shapes = (
{
closed = 1;
nodes = (
(264,-14,o),
(128,76,o),
(50,235,o),
(50,337,q),
(50,441,o),
(129,603,o),
(268,696,o),
(357,696,q),
(444,696,o),
(580,606,o),
(657,447,o),
(657,345,q),
(657,241,o),
(578,79,o),
(440,-14,o),
(351,-14,q)
);
},
{
closed = 1;
nodes = (
(423,27,o),
(537,109,o),
(602,252,o),
(602,344,q),
(602,434,o),
(539,574,o),
(429,654,o),
(358,654,q),
(285,654,o),
(170,572,o),
(105,430,o),
(105,338,q),
(105,248,o),
(168,107,o),
(278,27,o),
(349,27,q)
);
}
);
width = 707;
},
{
layerId = m003;
shapes = (
{
closed = 1;
nodes = (
(273,-14,o),
(115,80,o),
(30,240,o),
(30,337,q),
(30,442,o),
(120,603,o),
(279,694,o),
(381,694,q),
(492,694,o),
(649,600,o),
(733,442,o),
(733,344,q),
(733,239,o),
(644,77,o),
(485,-14,o),
(381,-14,q)
);
},
{
closed = 1;
nodes = (
(427,138,o),
(502,184,o),
(546,276,o),
(546,344,q),
(546,401,o),
(507,490,o),
(434,542,o),
(383,542,q),
(338,542,o),
(262,491,o),
(217,400,o),
(217,338,q),
(217,281,o),
(256,190,o),
(329,138,o),
(380,138,q)
);
}
);
width = 763;
}
);
unicode = 79;
},
{
glyphname = Oslash;
layers = (
{
layerId = m001;
shapes = (
{
closed = 1;
nodes = (
(264,-14,o),
(128,76,o),
(50,235,o),
(50,337,q),
(50,441,o),
(129,603,o),
(268,696,o),
(357,696,q),
(444,696,o),
(580,606,o),
(657,447,o),
(657,345,q),
(657,241,o),
(578,79,o),
(440,-14,o),
(351,-14,q)
);
},
{
closed = 1;
nodes = (
(423,27,o),
(537,109,o),
(602,252,o),
(602,344,q),
(602,434,o),
(539,574,o),
(429,654,o),
(358,654,q),
(285,654,o),
(170,572,o),
(105,430,o),
(105,338,q),
(105,248,o),
(168,107,o),
(278,27,o),
(349,27,q)
);
},
{
closed = 1;
nodes = (
(207,58,l),
(456,642,l),
(504,629,l),
(251,37,l)
);
}
);
width = 707;
},
{
layerId = m003;
shapes = (
{
closed = 1;
nodes = (
(273,-14,o),
(115,80,o),
(30,240,o),
(30,337,q),
(30,442,o),
(120,603,o),
(279,694,o),
(381,694,q),
(492,694,o),
(649,600,o),
(733,442,o),
(733,344,q),
(733,239,o),
(644,77,o),
(485,-14,o),
(381,-14,q)
);
},
{
closed = 1;
nodes = (
(427,138,o),
(502,184,o),
(546,276,o),
(546,344,q),
(546,401,o),
(507,490,o),
(434,542,o),
(383,542,q),
(338,542,o),
(262,491,o),
(217,400,o),
(217,338,q),
(217,281,o),
(256,190,o),
(329,138,o),
(380,138,q)
);
},
{
closed = 1;
nodes = (
(233,140,l),
(421,596,l),
(540,542,l),
(341,77,l)
);
}
);
width = 763;
}
);
unicode = 216;
},
{
glyphname = OE;
layers = (
{
layerId = m001;
shapes = (
{
closed = 1;
nodes = (
(505,670,o),
(443,686,o),
(381,694,o),
(360,694,q),
(287,694,o),
(171,639,o),
(92,541,o),
(50,411,o),
(50,336,q),
(50,267,o),
(87,141,o),
(161,43,o),
(276,-14,o),
(354,-14,q),
(383,-14,o),
(447,-4,o),
(505,13,o),
(523,23,q),
(499,59,l),
(472,47,o),
(403,29,o),
(349,29,q),
(291,29,o),
(200,79,o),
(138,165,o),
(105,276,o),
(105,337,q),
(105,433,o),
(172,574,o),
(287,651,o),
(358,651,q),
(394,651,o),
(443,643,o),
(483,630,o),
(503,621,q),
(523,657,l)
);
},
{
closed = 1;
nodes = (
(866,39,l),
(546,39,l),
(546,329,l),
(791,329,l),
(786,368,l),
(546,368,l),
(546,641,l),
(849,641,l),
(844,680,l),
(497,680,l),
(497,0,l),
(872,0,l)
);
}
);
width = 892;
},
{
layerId = m003;
shapes = (
{
closed = 1;
nodes = (
(553,655,o),
(485,680,o),
(413,693,o),
(379,693,q),
(304,693,o),
(176,641,o),
(82,546,o),
(30,415,o),
(30,337,q),
(30,260,o),
(78,132,o),
(169,38,o),
(300,-13,o),
(383,-13,q),
(418,-13,o),
(491,-1,o),
(560,21,o),
(586,37,q),
(517,173,l),
(491,157,o),
(425,136,o),
(388,136,q),
(356,136,o),
(295,163,o),
(247,215,o),
(218,290,o),
(218,338,q),
(218,400,o),
(266,493,o),
(341,544,o),
(381,544,q),
(404,544,o),
(442,539,o),
(489,527,o),
(525,514,q),
(579,637,l)
);
},
{
closed = 1;
nodes = (
(995,143,l),
(696,143,l),
(696,270,l),
(922,270,l),
(905,413,l),
(696,413,l),
(696,537,l),
(982,537,l),
(965,680,l),
(514,680,l),
(514,0,l),
(1012,0,l)
);
}
);
width = 1032;
}
);
unicode = 338;
},
{
glyphname = P;
layers = (
{
layerId = m001;
shapes = (
{
closed = 1;
nodes = (
(149,264,l),
(252,264,l),
(305,264,o),
(398,289,o),
(468,340,o),
(508,420,o),
(508,475,q),
(508,549,o),
(444,639,o),
(334,680,o),
(263,680,q),
(100,680,l),
(100,0,l),
(149,0,l)
);
},
{
closed = 1;
nodes = (
(330,640,o),
(412,606,o),
(458,533,o),
(458,474,q),
(458,418,o),
(406,341,o),
(318,303,o),
(264,303,q),
(149,303,l),
(149,640,l),
(275,640,l)
);
}
);
width = 548;
},
{
layerId = m003;
shapes = (
{
closed = 1;
nodes = (
(262,198,l),
(358,198,l),
(413,198,o),
(516,226,o),
(598,284,o),
(646,374,o),
(646,435,q),
(646,517,o),
(569,626,o),
(442,680,o),
(366,680,q),
(80,680,l),
(80,0,l),
(262,0,l)
);
},
{
closed = 1;
nodes = (
(391,537,o),
(434,511,o),
(458,465,o),
(458,435,q),
(458,409,o),
(433,366,o),
(390,341,o),
(362,341,q),
(262,341,l),
(262,537,l),
(360,537,l)
);
}
);
width = 666;
}
);
unicode = 80;
},
{
glyphname = Thorn;
layers = (
{
layerId = m001;
shapes = (
{
closed = 1;
nodes = (
(334,600,o),
(444,559,o),
(508,469,o),
(508,395,q),
(508,340,o),
(468,260,o),
(398,209,o),
(305,184,o),
(252,184,q),
(149,184,l),
(149,0,l),
(100,0,l),
(100,680,l),
(149,680,l),
(149,600,l),
(263,600,l)
);
},
{
closed = 1;
nodes = (
(318,223,o),
(406,261,o),
(458,338,o),
(458,394,q),
(458,453,o),
(412,526,o),
(330,560,o),
(275,560,q),
(149,560,l),
(149,223,l),
(264,223,l)
);
}
);
width = 548;
},
{
layerId = m003;
shapes = (
{
closed = 1;
nodes = (
(442,600,o),
(569,546,o),
(646,437,o),
(646,355,q),
(646,294,o),
(598,204,o),
(516,146,o),
(413,118,o),
(358,118,q),
(262,118,l),
(262,0,l),
(80,0,l),
(80,680,l),
(262,680,l),
(262,600,l),
(366,600,l)
);
},
{
closed = 1;
nodes = (
(390,261,o),
(433,286,o),
(458,329,o),
(458,355,q),
(458,385,o),
(434,431,o),
(391,457,o),
(360,457,q),
(262,457,l),
(262,261,l),
(362,261,l)
);
}
);
width = 666;
}
);
unicode = 222;
},
{
glyphname = Q;
layers = (
{
layerId = m001;
shapes = (
{
closed = 1;
nodes = (
(405,176,l),
(618,-24,l),
(650,1,l),
(439,209,l)
);
},
{
closed = 1;
nodes = (
(268,696,o),
(129,603,o),
(50,441,o),
(50,337,q),
(50,235,o),
(128,76,o),
(264,-14,o),
(351,-14,q),
(440,-14,o),
(578,79,o),
(657,241,o),
(657,345,q),
(657,447,o),
(580,606,o),
(444,696,o),
(357,696,q)
);
},
{
closed = 1;
nodes = (
(105,430,o),
(170,572,o),
(285,654,o),
(358,654,q),
(429,654,o),
(539,574,o),
(602,434,o),
(602,344,q),
(602,252,o),
(537,109,o),
(423,27,o),
(349,27,q),
(278,27,o),
(168,107,o),
(105,248,o),
(105,338,q)
);
}
);
width = 707;
},
{
layerId = m003;
shapes = (
{
closed = 1;
nodes = (
(336,229,l),
(605,-52,l),
(717,45,l),
(456,331,l)
);
},
{
closed = 1;
nodes = (
(279,694,o),
(120,603,o),
(30,442,o),
(30,337,q),
(30,240,o),
(115,80,o),
(273,-14,o),
(381,-14,q),
(485,-14,o),
(644,77,o),
(733,239,o),
(733,344,q),
(733,442,o),
(649,600,o),
(492,694,o),
(381,694,q)
);
},
{
closed = 1;
nodes = (
(217,400,o),
(262,491,o),
(338,542,o),
(383,542,q),
(434,542,o),
(507,490,o),
(546,401,o),
(546,344,q),
(546,276,o),
(502,184,o),
(427,138,o),
(380,138,q),
(329,138,o),
(256,190,o),
(217,281,o),
(217,338,q)
);
}
);
width = 763;
}
);
unicode = 81;
},
{
glyphname = R;
layers = (
{
layerId = m001;
shapes = (
{
closed = 1;
nodes = (
(317,640,o),
(405,610,o),
(458,542,o),
(458,484,q),
(458,428,o),
(398,357,o),
(305,325,o),
(254,325,q),
(149,325,l),
(149,640,l),
(265,640,l)
);
},
{
closed = 1;
nodes = (
(100,0,l),
(149,0,l),
(149,286,l),
(252,286,l),
(275,286,o),
(321,291,o),
(343,296,q),
(507,0,l),
(562,0,l),
(385,309,l),
(439,330,o),
(508,417,o),
(508,486,q),
(508,558,o),
(444,643,o),
(334,680,o),
(263,680,q),
(100,680,l)
);
}
);
width = 572;
},
{
layerId = m003;
shapes = (
{
closed = 1;
nodes = (
(391,537,o),
(434,518,o),
(458,478,o),
(458,448,q),
(458,422,o),
(433,380,o),
(390,357,o),
(362,357,q),
(262,357,l),
(262,537,l),
(360,537,l)
);
},
{
closed = 1;
nodes = (
(80,0,l),
(262,0,l),
(262,214,l),
(323,214,l),
(338,214,o),
(368,214,o),
(383,214,q),
(493,0,l),
(704,0,l),
(554,268,l),
(595,296,o),
(646,386,o),
(646,448,q),
(646,530,o),
(569,632,o),
(442,680,o),
(366,680,q),
(80,680,l)
);
}
);
width = 714;
}
);
unicode = 82;
},
{
glyphname = S;
layers = (
{
layerId = m001;
shapes = (
{
closed = 1;
nodes = (
(64,22,o),
(106,7,o),
(161,-6,o),
(216,-13,o),
(237,-13,q),
(311,-13,o),
(412,30,o),
(464,107,o),
(464,157,q),
(464,191,o),
(441,247,o),
(396,295,o),
(328,336,o),
(283,355,q),
(224,380,o),
(143,432,o),
(102,492,o),
(102,530,q),
(102,582,o),
(186,655,o),
(258,655,q),
(293,655,o),
(344,645,o),
(385,629,o),
(402,621,q),
(424,657,l),
(394,672,o),
(306,696,o),
(256,696,q),
(192,696,o),
(100,654,o),
(50,581,o),
(50,535,q),
(50,499,o),
(74,439,o),
(120,390,o),
(188,348,o),
(232,330,q),
(293,305,o),
(373,255,o),
(413,197,o),
(413,160,q),
(413,126,o),
(372,66,o),
(294,29,o),
(236,29,q),
(203,29,o),
(140,41,o),
(88,60,o),
(70,68,q),
(55,29,l)
);
}
);
width = 504;
},
{
layerId = m003;
shapes = (
{
closed = 1;
nodes = (
(53,30,o),
(108,10,o),
(169,-5,o),
(230,-13,o),
(256,-13,q),
(340,-13,o),
(462,39,o),
(527,130,o),
(527,187,q),
(527,229,o),
(490,296,o),
(430,352,o),
(357,398,o),
(321,419,q),
(294,435,o),
(247,458,o),
(218,482,o),
(218,496,q),
(218,515,o),
(254,544,o),
(285,544,q),
(308,544,o),
(346,539,o),
(393,527,o),
(429,514,q),
(483,637,l),
(443,664,o),
(334,693,o),
(283,693,q),
(206,693,o),
(92,642,o),
(31,554,o),
(30,498,q),
(30,455,o),
(68,386,o),
(130,332,o),
(201,288,o),
(234,268,q),
(260,253,o),
(308,226,o),
(339,201,o),
(339,189,q),
(339,177,o),
(319,152,o),
(280,136,o),
(251,136,q),
(227,136,o),
(166,149,o),
(111,169,o),
(93,179,q),
(33,42,l)
);
}
);
width = 547;
}
);
unicode = 83;
},
{
glyphname = T;
layers = (
{
layerId = m001;
shapes = (
{
closed = 1;
nodes = (
(10,680,l),
(10,641,l),
(242,641,l),
(242,0,l),
(291,0,l),
(291,641,l),
(524,641,l),
(519,680,l)
);
}
);
width = 534;
},
{
layerId = m003;
shapes = (
{
closed = 1;
nodes = (
(10,680,l),
(10,537,l),
(210,537,l),
(210,0,l),
(392,0,l),
(392,537,l),
(609,537,l),
(592,680,l)
);
}
);
width = 619;
}
);
unicode = 84;
},
{
glyphname = U;
layers = (
{
layerId = m001;
shapes = (
{
closed = 1;
nodes = (
(90,680,l),
(90,239,l),
(90,167,o),
(146,53,o),
(253,-12,o),
(329,-12,q),
(407,-12,o),
(513,53,o),
(568,167,o),
(568,239,q),
(568,680,l),
(519,680,l),
(519,236,l),
(519,178,o),
(474,84,o),
(389,29,o),
(329,29,q),
(272,29,o),
(186,84,o),
(139,178,o),
(139,236,q),
(139,680,l)
);
}
);
width = 658;
},
{
layerId = m003;
shapes = (
{
closed = 1;
nodes = (
(70,680,l),
(70,260,l),
(70,172,o),
(147,49,o),
(285,-14,o),
(375,-14,q),
(466,-14,o),
(603,49,o),
(680,172,o),
(680,260,q),
(680,680,l),
(498,680,l),
(498,269,l),
(498,227,o),
(466,168,o),
(411,138,o),
(375,138,q),
(339,138,o),
(283,168,o),
(252,227,o),
(252,269,q),
(252,680,l)
);
}
);
width = 750;
}
);
unicode = 85;
},
{
glyphname = V;
layers = (
{
layerId = m001;
shapes = (
{
closed = 1;
nodes = (
(10,674,l),
(269,-1,l),
(315,-1,l),
(562,679,l),
(513,679,l),
(291,65,l),
(60,685,l)
);
}
);
width = 572;
},
{
layerId = m003;
shapes = (
{
closed = 1;
nodes = (
(10,672,l),
(264,0,l),
(446,0,l),
(701,680,l),
(520,680,l),
(358,218,l),
(189,690,l)
);
}
);
width = 711;
}
);
unicode = 86;
},
{
glyphname = W;
layers = (
{
layerId = m001;
shapes = (
{
closed = 1;
nodes = (
(625,-1,l),
(579,-1,l),
(407,593,l),
(255,-1,l),
(209,-1,l),
(10,674,l),
(60,685,l),
(231,79,l),
(383,679,l),
(432,679,l),
(601,79,l),
(753,679,l),
(802,679,l)
);
}
);
width = 812;
},
{
layerId = m003;
shapes = (
{
closed = 1;
nodes = (
(795,0,l),
(613,0,l),
(501,427,l),
(396,0,l),
(214,0,l),
(10,672,l),
(189,690,l),
(308,218,l),
(410,680,l),
(591,680,l),
(707,218,l),
(809,680,l),
(990,680,l)
);
}
);
width = 1000;
}
);
unicode = 87;
},
{
glyphname = X;
layers = (
{
layerId = m001;
shapes = (
{
closed = 1;
nodes = (
(261,311,l),
(454,0,l),
(513,0,l),
(298,337,l),
(513,680,l),
(459,680,l),
(271,379,l),
(86,691,l),
(38,668,l),
(237,350,l),
(10,0,l),
(68,0,l)
);
}
);
width = 523;
},
{
layerId = m003;
shapes = (
{
closed = 1;
nodes = (
(362,186,l),
(472,0,l),
(705,0,l),
(477,345,l),
(704,680,l),
(478,680,l),
(362,498,l),
(225,705,l),
(29,648,l),
(247,338,l),
(10,0,l),
(225,0,l)
);
}
);
width = 715;
}
);
unicode = 88;
},
{
glyphname = Y;
layers = (
{
layerId = m001;
shapes = (
{
closed = 1;
nodes = (
(284,274,l),
(520,680,l),
(463,680,l),
(259,321,l),
(59,689,l),
(10,668,l),
(235,269,l),
(235,0,l),
(284,0,l)
);
}
);
width = 530;
},
{
layerId = m003;
shapes = (
{
closed = 1;
nodes = (
(408,266,l),
(644,680,l),
(457,680,l),
(316,435,l),
(184,694,l),
(10,646,l),
(226,268,l),
(226,0,l),
(408,0,l)
);
}
);
width = 654;
}
);
unicode = 89;
},
{
glyphname = Z;
layers = (
{
layerId = m001;
shapes = (
{
closed = 1;
nodes = (
(79,39,l),
(509,631,l),
(504,680,l),
(47,680,l),
(57,641,l),
(463,641,l),
(30,50,l),
(36,0,l),
(504,0,l),
(499,39,l)
);
}
);
width = 539;
},
{
layerId = m003;
shapes = (
{
closed = 1;
nodes = (
(220,143,l),
(574,551,l),
(555,680,l),
(39,680,l),
(56,537,l),
(357,537,l),
(10,128,l),
(30,0,l),
(571,0,l),
(554,143,l)
);
}
);
width = 584;
}
);
unicode = 90;
},
{
glyphname = a;
layers = (
{
layerId = m001;
shapes = (
{
closed = 1;
nodes = (
(103,181,o),
(163,244,o),
(229,244,q),
(360,244,l),
(360,109,l),
(337,75,o),
(266,28,o),
(219,28,q),
(183,28,o),
(131,57,o),
(103,106,o),
(103,136,q)
);
},
{
closed = 1;
nodes = (
(138,440,o),
(208,457,o),
(244,457,q),
(303,457,o),
(360,391,o),
(360,341,q),
(360,281,l),
(225,281,l),
(149,281,o),
(52,205,o),
(52,136,q),
(52,73,o),
(133,-13,o),
(215,-13,q),
(261,-13,o),
(338,24,o),
(363,52,q),
(371,0,l),
(409,0,l),
(409,340,l),
(409,388,o),
(371,459,o),
(297,498,o),
(241,498,q),
(212,498,o),
(162,489,o),
(107,469,o),
(86,456,q),
(105,423,l)
);
}
);
width = 475;
},
{
layerId = m003;
shapes = (
{
closed = 1;
nodes = (
(184,176,o),
(207,198,o),
(225,198,q),
(281,198,l),
(281,152,l),
(265,139,o),
(233,125,o),
(217,125,q),
(208,125,o),
(193,134,o),
(184,149,o),
(184,159,q)
);
},
{
closed = 1;
nodes = (
(124,337,o),
(192,354,o),
(217,354,q),
(240,354,o),
(274,330,o),
(279,303,q),
(280,298,l),
(222,298,l),
(138,298,o),
(32,235,o),
(32,156,q),
(32,81,o),
(122,-11,o),
(214,-11,q),
(245,-11,o),
(300,21,o),
(323,50,q),
(375,0,l),
(463,0,l),
(463,300,l),
(463,362,o),
(418,452,o),
(328,502,o),
(262,502,q),
(222,502,o),
(143,489,o),
(74,468,o),
(48,456,q),
(96,325,l)
);
}
);
width = 509;
}
);
unicode = 97;
},
{
glyphname = aogonek;
layers = (
{
layerId = m001;
shapes = (
{
closed = 1;
nodes = (
(354,-11,o),
(326,-50,o),
(310,-92,o),
(310,-111,q),
(310,-139,o),
(338,-183,o),
(385,-207,o),
(415,-207,q),
(440,-207,o),
(482,-190,o),
(495,-177,q),
(473,-150,l),
(461,-160,o),
(434,-171,o),
(418,-171,q),
(399,-171,o),
(356,-142,o),
(356,-112,q),
(356,-90,o),
(368,-51,o),
(391,-16,o),
(409,0,q),
(372,4,l)
);
},
{
closed = 1;
nodes = (
(103,181,o),
(163,244,o),
(229,244,q),
(360,244,l),
(360,109,l),
(337,75,o),
(266,28,o),
(219,28,q),
(183,28,o),
(131,57,o),
(103,106,o),
(103,136,q)
);
},
{
closed = 1;
nodes = (
(135,437,o),
(195,457,o),
(244,457,q),
(303,457,o),
(360,391,o),
(360,341,q),
(360,281,l),
(225,281,l),
(149,281,o),
(52,205,o),
(52,136,q),
(52,73,o),
(133,-13,o),
(215,-13,q),
(261,-13,o),
(338,24,o),
(363,52,q),
(371,0,l),
(409,0,l),
(409,340,l),
(409,388,o),
(371,459,o),
(297,498,o),
(241,498,q),
(221,498,o),
(162,487,o),
(105,469,o),
(86,456,q),
(105,423,l)
);
}
);
width = 475;
},
{
layerId = m003;
shapes = (
{
closed = 1;
nodes = (
(320,12,o),
(299,-48,o),
(294,-90,o),
(294,-108,q),
(294,-140,o),
(328,-204,o),
(394,-245,o),
(442,-245,q),
(482,-245,o),
(548,-218,o),
(565,-198,q),
(504,-96,l),
(490,-109,o),
(470,-116,o),
(460,-116,q),
(447,-116,o),
(431,-96,o),
(431,-84,q),
(431,-71,o),
(442,-39,o),
(457,-8,o),
(463,0,q),
(345,54,l)
);
},
{
closed = 1;
nodes = (
(184,176,o),
(207,198,o),
(225,198,q),
(281,198,l),
(281,152,l),
(265,139,o),
(233,125,o),
(217,125,q),
(208,125,o),
(193,134,o),
(184,149,o),
(184,159,q)
);
},
{
closed = 1;
nodes = (
(124,337,o),
(192,354,o),
(217,354,q),
(240,354,o),
(274,330,o),
(279,303,q),
(280,298,l),
(222,298,l),
(138,298,o),
(32,235,o),
(32,156,q),
(32,81,o),
(122,-11,o),
(214,-11,q),
(245,-11,o),
(300,21,o),
(323,50,q),
(375,0,l),
(463,0,l),
(463,300,l),
(463,362,o),
(418,452,o),
(328,502,o),
(262,502,q),
(222,502,o),
(143,489,o),
(74,468,o),
(48,456,q),
(96,325,l)
);
}
);
width = 509;
}
);
unicode = 261;
},
{
glyphname = ae;
layers = (
{
layerId = m001;
shapes = (
{
closed = 1;
nodes = (
(406,242,l),
(407,184,o),
(442,87,o),
(517,28,o),
(577,28,q),
(630,28,o),
(695,49,o),
(720,62,q),
(740,25,l),
(720,13,o),
(662,-4,o),
(605,-13,o),
(585,-13,q),
(517,-13,o),
(424,36,o),
(396,79,q),
(379,52,o),
(331,10,o),
(263,-13,o),
(215,-13,q),
(133,-13,o),
(52,73,o),
(52,136,q),
(52,205,o),
(149,281,o),
(225,281,q),
(360,281,l),
(360,341,l),
(360,391,o),
(303,457,o),
(244,457,q),
(195,457,o),
(135,437,o),
(105,423,q),
(86,456,l),
(105,469,o),
(162,487,o),
(221,498,o),
(241,498,q),
(302,498,o),
(380,451,o),
(396,410,q),
(422,451,o),
(507,498,o),
(567,498,q),
(623,498,o),
(708,432,o),
(755,319,o),
(755,248,q),
(755,242,l)
);
},
{
closed = 1;
nodes = (
(703,279,l),
(699,327,o),
(668,408,o),
(608,457,o),
(560,457,q),
(512,457,o),
(448,408,o),
(413,327,o),
(408,279,q)
);
},
{
closed = 1;
nodes = (
(229,244,l),
(185,247,o),
(129,218,o),
(103,166,o),
(103,136,q),
(103,106,o),
(131,57,o),
(183,28,o),
(219,28,q),
(260,28,o),
(318,53,o),
(361,95,o),
(376,120,q),
(367,147,o),
(360,210,o),
(360,244,q)
);
}
);
width = 795;
},
{
layerId = m003;
shapes = (
{
closed = 1;
nodes = (
(478,197,l),
(485,177,o),
(513,147,o),
(557,131,o),
(588,131,q),
(632,131,o),
(699,153,o),
(721,164,q),
(772,41,l),
(753,27,o),
(689,3,o),
(611,-11,o),
(570,-11,q),
(510,-11,o),
(408,19,o),
(370,48,q),
(356,34,o),
(315,7,o),
(256,-11,o),
(214,-11,q),
(122,-11,o),
(32,81,o),
(32,156,q),
(32,235,o),
(138,298,o),
(222,298,q),
(280,298,l),
(279,304,l),
(275,330,o),
(241,354,o),
(217,354,q),
(192,354,o),
(124,337,o),
(96,325,q),
(48,456,l),
(74,468,o),
(143,489,o),
(222,502,o),
(262,502,q),
(303,502,o),
(370,482,o),
(394,463,q),
(426,482,o),
(500,502,o),
(541,502,q),
(619,502,o),
(722,433,o),
(773,318,o),
(773,250,q),
(773,197,l)
);
},
{
closed = 1;
nodes = (
(599,287,l),
(599,301,o),
(586,333,o),
(559,356,o),
(536,356,q),
(520,356,o),
(490,337,o),
(473,306,o),
(473,287,q)
);
},
{
closed = 1;
nodes = (
(225,198,l),
(213,198,o),
(195,188,o),
(184,171,o),
(184,159,q),
(184,149,o),
(193,134,o),
(208,125,o),
(217,125,q),
(235,125,o),
(262,133,o),
(285,146,o),
(294,153,q),
(290,164,o),
(285,186,o),
(283,198,q)
);
}
);
width = 793;
}
);
unicode = 230;
},
{
glyphname = b;
layers = (
{
layerId = m001;
shapes = (
{
closed = 1;
nodes = (
(129,59,l),
(129,706,l),
(80,696,l),
(80,0,l),
(108,0,l)
);
},
{
closed = 1;
nodes = (
(150,415,o),
(213,457,o),
(263,457,q),
(318,457,o),
(387,398,o),
(421,299,o),
(421,239,q),
(421,183,o),
(384,86,o),
(312,28,o),
(258,28,q),
(212,28,o),
(144,68,o),
(119,92,q),
(99,59,l),
(113,45,o),
(163,11,o),
(225,-13,o),
(256,-13,q),
(328,-13,o),
(424,53,o),
(472,168,o),
(472,240,q),
(472,316,o),
(427,432,o),
(335,498,o),
(263,498,q),
(230,498,o),
(173,479,o),
(124,444,o),
(104,420,q),
(124,386,l)
);
}
);
width = 512;
},
{
layerId = m003;
shapes = (
{
closed = 1;
nodes = (
(242,91,l),
(242,706,l),
(60,695,l),
(60,0,l),
(152,0,l)
);
},
{
closed = 1;
nodes = (
(212,326,o),
(262,362,o),
(286,362,q),
(315,362,o),
(354,336,o),
(375,285,o),
(375,248,q),
(375,211,o),
(353,157,o),
(317,129,o),
(294,129,q),
(268,129,o),
(212,158,o),
(183,185,q),
(132,78,l),
(160,46,o),
(217,7,o),
(276,-11,o),
(306,-11,q),
(383,-11,o),
(498,47,o),
(563,163,o),
(563,249,q),
(563,336,o),
(498,448,o),
(386,502,o),
(314,502,q),
(277,502,o),
(207,476,o),
(150,435,o),
(132,413,q),
(183,296,l)
);
}
);
width = 583;
}
);
unicode = 98;
},
{
glyphname = c;
layers = (
{
layerId = m001;
shapes = (
{
closed = 1;
nodes = (
(362,49,o),
(309,28,o),
(259,28,q),
(205,28,o),
(130,87,o),
(91,187,o),
(91,246,q),
(91,303,o),
(133,399,o),
(211,457,o),
(264,457,q),
(310,457,o),
(368,435,o),
(393,423,q),
(413,456,l),
(394,469,o),
(340,487,o),
(286,498,o),
(266,498,q),
(195,498,o),
(93,432,o),
(40,318,o),
(40,245,q),
(40,170,o),
(90,53,o),
(188,-13,o),
(259,-13,q),
(280,-13,o),
(334,-3,o),
(388,16,o),
(408,28,q),
(388,62,l)
);
}
);
width = 449;
},
{
layerId = m003;
shapes = (
{
closed = 1;
nodes = (
(371,148,o),
(327,137,o),
(303,137,q),
(279,137,o),
(235,161,o),
(208,208,o),
(208,242,q),
(208,277,o),
(235,327,o),
(279,354,o),
(303,354,q),
(329,354,o),
(371,343,o),
(400,328,q),
(451,453,l),
(423,475,o),
(361,496,o),
(305,502,o),
(285,502,q),
(207,502,o),
(87,440,o),
(20,324,o),
(20,242,q),
(20,161,o),
(87,48,o),
(207,-11,o),
(285,-11,q),
(305,-11,o),
(361,-5,o),
(423,16,o),
(451,38,q),
(400,163,l)
);
}
);
width = 457;
}
);
unicode = 99;
},
{
glyphname = d;
layers = (
{
layerId = m001;
shapes = (
{
closed = 1;
nodes = (
(405,0,l),
(432,0,l),
(432,705,l),
(383,696,l),
(383,53,l)
);
},
{
closed = 1;
nodes = (
(362,70,o),
(299,28,o),
(249,28,q),
(195,28,o),
(125,87,o),
(91,187,o),
(91,246,q),
(91,303,o),
(128,399,o),
(201,457,o),
(254,457,q),
(300,457,o),
(368,417,o),
(393,393,q),
(413,426,l),
(400,441,o),
(350,474,o),
(288,498,o),
(256,498,q),
(185,498,o),
(88,432,o),
(40,318,o),
(40,245,q),
(40,170,o),
(85,53,o),
(178,-13,o),
(249,-13,q),
(282,-13,o),
(339,6,o),
(388,42,o),
(408,65,q),
(388,99,l)
);
}
);
width = 512;
},
{
layerId = m003;
shapes = (
{
closed = 1;
nodes = (
(431,0,l),
(523,0,l),
(523,706,l),
(341,695,l),
(341,117,l)
);
},
{
closed = 1;
nodes = (
(371,165,o),
(321,129,o),
(297,129,q),
(269,129,o),
(229,155,o),
(208,206,o),
(208,243,q),
(208,281,o),
(230,334,o),
(267,362,o),
(289,362,q),
(315,362,o),
(371,333,o),
(400,306,q),
(451,413,l),
(423,445,o),
(366,484,o),
(307,502,o),
(277,502,q),
(201,502,o),
(85,444,o),
(20,329,o),
(20,242,q),
(20,156,o),
(85,43,o),
(198,-11,o),
(269,-11,q),
(307,-11,o),
(376,15,o),
(433,56,o),
(451,78,q),
(400,195,l)
);
}
);
width = 583;
}
);
unicode = 100;
},
{
glyphname = dcaron;
layers = (
{
layerId = m001;
shapes = (
{
closed = 1;
nodes = (
(555,702,o),
(538,691,o),
(529,673,o),
(529,663,q),
(529,657,o),
(537,639,o),
(553,625,o),
(565,625,q),
(564,598,o),
(530,557,o),
(504,543,q),
(520,518,l),
(548,532,o),
(586,574,o),
(606,629,o),
(606,659,q),
(606,674,o),
(585,702,o),
(567,702,q)
);
},
{
closed = 1;
nodes = (
(405,0,l),
(432,0,l),
(432,705,l),
(383,696,l),
(383,53,l)
);
},
{
closed = 1;
nodes = (
(362,70,o),
(299,28,o),
(249,28,q),
(195,28,o),
(125,87,o),
(91,187,o),
(91,246,q),
(91,303,o),
(128,399,o),
(201,457,o),
(254,457,q),
(300,457,o),
(368,417,o),
(393,393,q),
(413,426,l),
(400,441,o),
(350,474,o),
(288,498,o),
(256,498,q),
(185,498,o),
(88,432,o),
(40,318,o),
(40,245,q),
(40,170,o),
(85,53,o),
(178,-13,o),
(249,-13,q),
(282,-13,o),
(339,6,o),
(388,42,o),
(408,65,q),
(388,99,l)
);
}
);
width = 636;
},
{
layerId = m003;
shapes = (
{
closed = 1;
nodes = (
(648,742,o),
(606,715,o),
(582,673,o),
(582,650,q),
(582,634,o),
(594,604,o),
(613,580,o),
(625,572,q),
(621,559,o),
(587,529,o),
(573,521,q),
(609,441,l),
(653,458,o),
(724,519,o),
(766,596,o),
(766,635,q),
(766,683,o),
(712,742,o),
(674,742,q)
);
},
{
closed = 1;
nodes = (
(431,0,l),
(523,0,l),
(523,706,l),
(341,695,l),
(341,117,l)
);
},
{
closed = 1;
nodes = (
(371,165,o),
(321,129,o),
(297,129,q),
(269,129,o),
(229,155,o),
(208,206,o),
(208,243,q),
(208,281,o),
(230,334,o),
(267,362,o),
(289,362,q),
(315,362,o),
(371,333,o),
(400,306,q),
(451,413,l),
(423,445,o),
(366,484,o),
(307,502,o),
(277,502,q),
(201,502,o),
(85,444,o),
(20,329,o),
(20,242,q),
(20,156,o),
(85,43,o),
(198,-11,o),
(269,-11,q),
(307,-11,o),
(376,15,o),
(433,56,o),
(451,78,q),
(400,195,l)
);
}
);
width = 796;
}
);
unicode = 271;
},
{
glyphname = dcroat;
layers = (
{
layerId = m001;
shapes = (
{
closed = 1;
nodes = (
(408,65,l),
(388,42,o),
(339,6,o),
(282,-13,o),
(249,-13,q),
(178,-13,o),
(85,53,o),
(40,170,o),
(40,245,q),
(40,318,o),
(88,432,o),
(185,498,o),
(256,498,q),
(288,498,o),
(350,474,o),
(400,441,o),
(413,426,q),
(393,393,l),
(368,417,o),
(300,457,o),
(254,457,q),
(201,457,o),
(128,399,o),
(91,303,o),
(91,246,q),
(91,187,o),
(125,87,o),
(195,28,o),
(249,28,q),
(299,28,o),
(362,70,o),
(388,99,q)
);
},
{
closed = 1;
nodes = (
(432,0,l),
(405,0,l),
(383,53,l),
(383,580,l),
(252,580,l),
(242,615,l),
(383,615,l),
(383,696,l),
(432,705,l),
(432,615,l),
(490,615,l),
(500,580,l),
(432,580,l)
);
}
);
width = 512;
},
{
layerId = m003;
shapes = (
{
closed = 1;
nodes = (
(451,78,l),
(433,56,o),
(368,15,o),
(297,-11,o),
(269,-11,q),
(198,-11,o),
(85,43,o),
(20,156,o),
(20,242,q),
(20,329,o),
(85,444,o),
(201,502,o),
(277,502,q),
(297,502,o),
(357,484,o),
(423,445,o),
(451,413,q),
(400,306,l),
(371,333,o),
(315,362,o),
(289,362,q),
(267,362,o),
(230,334,o),
(208,281,o),
(208,243,q),
(208,206,o),
(229,155,o),
(269,129,o),
(297,129,q),
(321,129,o),
(371,165,o),
(400,195,q)
);
},
{
closed = 1;
nodes = (
(523,0,l),
(431,0,l),
(341,117,l),
(341,550,l),
(254,550,l),
(237,663,l),
(341,663,l),
(341,695,l),
(523,706,l),
(523,663,l),
(566,663,l),
(583,550,l),
(523,550,l)
);
}
);
width = 583;
}
);
unicode = 273;
},
{
glyphname = eth;
layers = (
{
layerId = m001;
shapes = (
{
closed = 1;
nodes = (
(483,324,o),
(439,476,o),
(349,607,o),
(210,712,o),
(114,750,q),
(101,718,l),
(196,676,o),
(324,568,o),
(399,443,o),
(432,308,o),
(432,239,q),
(432,183,o),
(390,86,o),
(313,28,o),
(259,28,q),
(205,28,o),
(130,87,o),
(91,187,o),
(91,246,q),
(91,303,o),
(133,399,o),
(211,457,o),
(264,457,q),
(294,457,o),
(350,438,o),
(401,404,o),
(422,381,q),
(444,402,l),
(420,432,o),
(369,474,o),
(307,498,o),
(265,498,q),
(194,498,o),
(93,431,o),
(40,317,o),
(40,245,q),
(40,170,o),
(90,54,o),
(187,-12,o),
(259,-13,q),
(330,-12,o),
(430,54,o),
(483,168,o),
(483,240,q)
);
},
{
closed = 1;
nodes = (
(376,707,l),
(358,742,l),
(90,610,l),
(109,572,l)
);
}
);
width = 523;
},
{
layerId = m003;
shapes = (
{
closed = 1;
nodes = (
(570,332,o),
(511,488,o),
(395,624,o),
(225,725,o),
(114,750,q),
(53,638,l),
(141,615,o),
(266,537,o),
(345,433,o),
(382,309,o),
(382,240,q),
(382,206,o),
(361,160,o),
(322,137,o),
(293,137,q),
(266,137,o),
(228,164,o),
(208,213,o),
(208,245,q),
(208,279,o),
(229,328,o),
(269,354,o),
(297,354,q),
(314,354,o),
(363,342,o),
(416,314,o),
(438,288,q),
(517,391,l),
(493,422,o),
(406,472,o),
(312,502,o),
(275,502,q),
(209,502,o),
(93,441,o),
(20,327,o),
(20,245,q),
(20,159,o),
(96,45,o),
(224,-11,o),
(302,-11,q),
(380,-11,o),
(501,54,o),
(570,173,o),
(570,254,q)
);
},
{
closed = 1;
nodes = (
(466,642,l),
(412,752,l),
(56,580,l),
(106,474,l)
);
}
);
width = 590;
}
);
unicode = 240;
},
{
glyphname = e;
layers = (
{
layerId = m001;
shapes = (
{
closed = 1;
nodes = (
(440,250,l),
(440,321,o),
(391,433,o),
(307,498,o),
(252,498,q),
(181,498,o),
(86,432,o),
(40,318,o),
(40,245,q),
(40,170,o),
(89,53,o),
(191,-13,o),
(270,-13,q),
(290,-13,o),
(347,-4,o),
(405,13,o),
(425,25,q),
(405,62,l),
(380,49,o),
(315,28,o),
(262,28,q),
(202,28,o),
(127,87,o),
(92,184,o),
(91,242,q),
(440,242,l)
);
},
{
closed = 1;
nodes = (
(98,327,o),
(133,408,o),
(197,457,o),
(245,457,q),
(293,457,o),
(353,408,o),
(384,327,o),
(388,279,q),
(93,279,l)
);
}
);
width = 480;
},
{
layerId = m003;
shapes = (
{
closed = 1;
nodes = (
(513,250,l),
(513,318,o),
(462,433,o),
(359,502,o),
(281,502,q),
(208,502,o),
(89,440,o),
(20,324,o),
(20,242,q),
(20,160,o),
(95,47,o),
(227,-11,o),
(310,-11,q),
(351,-11,o),
(429,3,o),
(493,27,o),
(512,41,q),
(461,164,l),
(439,153,o),
(372,131,o),
(328,131,q),
(297,131,o),
(253,147,o),
(225,177,o),
(218,197,q),
(513,197,l)
);
},
{
closed = 1;
nodes = (
(213,306,o),
(230,337,o),
(260,356,o),
(276,356,q),
(299,356,o),
(326,333,o),
(339,301,o),
(339,287,q),
(213,287,l)
);
}
);
width = 533;
}
);
unicode = 101;
},
{
glyphname = f;
layers = (
{
layerId = m001;
shapes = (
{
closed = 1;
nodes = (
(93,433,l),
(93,0,l),
(142,0,l),
(142,433,l),
(251,433,l),
(230,470,l),
(142,470,l),
(142,579,l),
(142,615,o),
(173,661,o),
(211,661,q),
(221,661,o),
(246,655,o),
(252,652,q),
(264,689,l),
(258,692,o),
(237,698,o),
(212,702,o),
(198,702,q),
(162,702,o),
(115,668,o),
(93,605,o),
(93,563,q),
(93,470,l),
(20,470,l),
(20,433,l)
);
}
);
width = 264;
},
{
layerId = m003;
shapes = (
{
closed = 1;
nodes = (
(90,322,l),
(90,0,l),
(272,0,l),
(272,322,l),
(423,322,l),
(406,465,l),
(272,465,l),
(272,490,l),
(272,520,o),
(303,555,o),
(329,555,q),
(344,555,o),
(382,546,o),
(399,536,q),
(451,660,l),
(439,671,o),
(394,690,o),
(341,703,o),
(317,703,q),
(259,703,o),
(155,660,o),
(90,575,o),
(90,510,q),
(90,465,l),
(10,465,l),
(10,322,l)
);
}
);
width = 451;
}
);
unicode = 102;
},
{
glyphname = g;
layers = (
{
layerId = m001;
shapes = (
{
closed = 1;
nodes = (
(405,485,l),
(383,412,l),
(383,-72,l),
(383,-132,o),
(299,-189,o),
(238,-189,q),
(192,-189,o),
(128,-169,o),
(94,-154,q),
(75,-189,l),
(89,-198,o),
(132,-213,o),
(181,-224,o),
(225,-230,o),
(240,-230,q),
(304,-230,o),
(389,-186,o),
(432,-110,o),
(432,-62,q),
(432,485,l)
);
},
{
closed = 1;
nodes = (
(362,70,o),
(299,28,o),
(249,28,q),
(195,28,o),
(125,87,o),
(91,187,o),
(91,246,q),
(91,303,o),
(128,399,o),
(201,457,o),
(254,457,q),
(300,457,o),
(368,417,o),
(393,393,q),
(413,426,l),
(400,441,o),
(350,474,o),
(288,498,o),
(256,498,q),
(185,498,o),
(88,432,o),
(40,318,o),
(40,245,q),
(40,170,o),
(85,53,o),
(178,-13,o),
(249,-13,q),
(282,-13,o),
(339,6,o),
(388,42,o),
(408,65,q),
(388,99,l)
);
}
);
width = 508;
},
{
layerId = m003;
shapes = (
{
closed = 1;
nodes = (
(432,484,l),
(341,370,l),
(341,-15,l),
(341,-44,o),
(286,-83,o),
(243,-83,q),
(213,-83,o),
(138,-70,o),
(89,-46,q),
(34,-174,l),
(58,-189,o),
(121,-211,o),
(186,-224,o),
(241,-230,o),
(256,-230,q),
(337,-230,o),
(457,-175,o),
(523,-78,o),
(523,-16,q),
(523,484,l)
);
},
{
closed = 1;
nodes = (
(371,165,o),
(321,129,o),
(297,129,q),
(269,129,o),
(229,155,o),
(208,206,o),
(208,243,q),
(208,281,o),
(230,334,o),
(267,362,o),
(289,362,q),
(315,362,o),
(371,333,o),
(400,306,q),
(451,413,l),
(423,445,o),
(366,484,o),
(307,502,o),
(277,502,q),
(201,502,o),
(85,444,o),
(20,329,o),
(20,242,q),
(20,156,o),
(85,43,o),
(198,-11,o),
(269,-11,q),
(307,-11,o),
(376,15,o),
(433,56,o),
(451,78,q),
(400,195,l)
);
}
);
width = 579;
}
);
unicode = 103;
},
{
glyphname = gcedilla;
layers = (
{
layerId = m001;
shapes = (
{
closed = 1;
nodes = (
(269,575,o),
(285,586,o),
(294,604,o),
(294,614,q),
(294,621,o),
(286,638,o),
(270,652,o),
(258,652,q),
(259,679,o),
(293,720,o),
(319,734,q),
(303,759,l),
(275,746,o),
(237,703,o),
(217,649,o),
(217,618,q),
(217,603,o),
(238,575,o),
(256,575,q)
);
},
{
closed = 1;
nodes = (
(405,485,l),
(383,412,l),
(383,-72,l),
(383,-132,o),
(299,-189,o),
(238,-189,q),
(192,-189,o),
(128,-169,o),
(94,-154,q),
(75,-189,l),
(89,-198,o),
(132,-213,o),
(181,-224,o),
(225,-230,o),
(240,-230,q),
(304,-230,o),
(389,-186,o),
(432,-110,o),
(432,-62,q),
(432,485,l)
);
},
{
closed = 1;
nodes = (
(362,70,o),
(299,28,o),
(249,28,q),
(195,28,o),
(125,87,o),
(91,187,o),
(91,246,q),
(91,303,o),
(128,399,o),
(201,457,o),
(254,457,q),
(300,457,o),
(368,417,o),
(393,393,q),
(413,426,l),
(400,441,o),
(350,474,o),
(288,498,o),
(256,498,q),
(185,498,o),
(88,432,o),
(40,318,o),
(40,245,q),
(40,170,o),
(85,53,o),
(178,-13,o),
(249,-13,q),
(282,-13,o),
(339,6,o),
(388,42,o),
(408,65,q),
(388,99,l)
);
}
);
width = 508;
},
{
layerId = m003;
shapes = (
{
closed = 1;
nodes = (
(299,541,o),
(341,568,o),
(365,611,o),
(365,633,q),
(365,650,o),
(354,680,o),
(334,704,o),
(322,711,q),
(326,724,o),
(360,754,o),
(374,762,q),
(338,842,l),
(294,826,o),
(223,764,o),
(181,688,o),
(181,648,q),
(181,600,o),
(235,541,o),
(273,541,q)
);
},
{
closed = 1;
nodes = (
(432,484,l),
(341,370,l),
(341,-15,l),
(341,-44,o),
(286,-83,o),
(243,-83,q),
(213,-83,o),
(138,-70,o),
(89,-46,q),
(34,-174,l),
(58,-189,o),
(121,-211,o),
(186,-224,o),
(241,-230,o),
(256,-230,q),
(337,-230,o),
(457,-175,o),
(523,-78,o),
(523,-16,q),
(523,484,l)
);
},
{
closed = 1;
nodes = (
(371,165,o),
(321,129,o),
(297,129,q),
(269,129,o),
(229,155,o),
(208,206,o),
(208,243,q),
(208,281,o),
(230,334,o),
(267,362,o),
(289,362,q),
(315,362,o),
(371,333,o),
(400,306,q),
(451,413,l),
(423,445,o),
(357,484,o),
(297,502,o),
(277,502,q),
(201,502,o),
(85,444,o),
(20,329,o),
(20,242,q),
(20,156,o),
(85,43,o),
(198,-11,o),
(269,-11,q),
(297,-11,o),
(368,15,o),
(433,56,o),
(451,78,q),
(400,195,l)
);
}
);
width = 579;
}
);
unicode = 291;
},
{
glyphname = h;
layers = (
{
layerId = m001;
shapes = (
{
closed = 1;
nodes = (
(157,388,o),
(216,432,o),
(275,457,o),
(304,457,q),
(359,457,o),
(395,387,o),
(395,337,q),
(395,0,l),
(444,0,l),
(444,337,l),
(444,384,o),
(415,456,o),
(352,498,o),
(300,498,q),
(270,498,o),
(206,473,o),
(149,433,o),
(128,409,q),
(129,359,l)
);
},
{
closed = 1;
nodes = (
(129,706,l),
(80,696,l),
(80,0,l),
(129,0,l)
);
}
);
width = 510;
},
{
layerId = m003;
shapes = (
{
closed = 1;
nodes = (
(257,333,o),
(294,345,o),
(329,354,o),
(340,354,q),
(371,354,o),
(392,319,o),
(392,296,q),
(392,0,l),
(574,0,l),
(574,313,l),
(574,367,o),
(537,452,o),
(460,501,o),
(398,501,q),
(359,501,o),
(287,481,o),
(224,450,o),
(200,435,q),
(242,326,l)
);
},
{
closed = 1;
nodes = (
(242,706,l),
(60,695,l),
(60,0,l),
(242,0,l)
);
}
);
width = 620;
}
);
unicode = 104;
},
{
glyphname = i;
layers = (
{
layerId = m001;
shapes = (
{
closed = 1;
nodes = (
(119,485,l),
(70,485,l),
(70,0,l),
(119,0,l)
);
},
{
closed = 1;
nodes = (
(111,600,o),
(133,622,o),
(133,638,q),
(133,654,o),
(110,676,o),
(94,676,q),
(77,676,o),
(56,654,o),
(56,638,q),
(56,622,o),
(77,600,o),
(94,600,q)
);
}
);
width = 189;
},
{
layerId = m003;
shapes = (
{
closed = 1;
nodes = (
(232,485,l),
(50,485,l),
(50,0,l),
(232,0,l)
);
},
{
closed = 1;
nodes = (
(181,551,o),
(240,609,o),
(240,649,q),
(240,690,o),
(181,749,o),
(140,749,q),
(100,749,o),
(42,690,o),
(42,649,q),
(42,609,o),
(100,551,o),
(140,551,q)
);
}
);
width = 282;
}
);
unicode = 105;
},
{
glyphname = idotless;
layers = (
{
layerId = m001;
shapes = (
{
closed = 1;
nodes = (
(119,485,l),
(70,485,l),
(70,0,l),
(119,0,l)
);
}
);
width = 189;
},
{
layerId = m003;
shapes = (
{
closed = 1;
nodes = (
(232,485,l),
(50,485,l),
(50,0,l),
(232,0,l)
);
}
);
width = 282;
}
);
unicode = 305;
},
{
glyphname = iogonek;
layers = (
{
layerId = m001;
shapes = (
{
closed = 1;
nodes = (
(53,-18,o),
(20,-75,o),
(20,-111,q),
(20,-139,o),
(48,-183,o),
(95,-207,o),
(125,-207,q),
(150,-207,o),
(192,-190,o),
(205,-177,q),
(183,-150,l),
(171,-160,o),
(144,-171,o),
(128,-171,q),
(109,-171,o),
(66,-142,o),
(66,-112,q),
(66,-90,o),
(78,-51,o),
(101,-16,o),
(119,0,q),
(72,4,l)
);
},
{
closed = 1;
nodes = (
(119,485,l),
(70,485,l),
(70,0,l),
(119,0,l)
);
},
{
closed = 1;
nodes = (
(110,618,o),
(133,640,o),
(133,656,q),
(133,672,o),
(110,694,o),
(94,694,q),
(77,694,o),
(56,672,o),
(56,656,q),
(56,640,o),
(77,618,o),
(94,618,q)
);
}
);
width = 189;
},
{
layerId = m003;
shapes = (
{
closed = 1;
nodes = (
(43,-19,o),
(35,-79,o),
(35,-98,q),
(35,-135,o),
(69,-203,o),
(135,-245,o),
(183,-245,q),
(223,-245,o),
(289,-218,o),
(306,-198,q),
(245,-96,l),
(231,-109,o),
(211,-116,o),
(201,-116,q),
(188,-116,o),
(172,-96,o),
(172,-84,q),
(172,-57,o),
(197,-22,o),
(226,-3,o),
(232,0,q),
(50,0,l)
);
},
{
closed = 1;
nodes = (
(232,485,l),
(50,485,l),
(50,0,l),
(232,0,l)
);
},
{
closed = 1;
nodes = (
(185,594,o),
(235,646,o),
(235,686,q),
(235,724,o),
(185,778,o),
(145,778,q),
(107,778,o),
(53,724,o),
(53,686,q),
(53,646,o),
(107,594,o),
(145,594,q)
);
}
);
width = 282;
}
);
unicode = 303;
},
{
glyphname = j;
layers = (
{
layerId = m001;
shapes = (
{
closed = 1;
nodes = (
(90,600,o),
(72,610,o),
(63,628,o),
(63,638,q),
(63,654,o),
(84,676,o),
(101,676,q),
(117,676,o),
(140,654,o),
(140,638,q),
(140,622,o),
(118,600,o),
(101,600,q)
);
},
{
closed = 1;
nodes = (
(126,-62,l),
(126,-104,o),
(112,-163,o),
(66,-203,o),
(18,-219,q),
(0,-183,l),
(34,-170,o),
(66,-140,o),
(77,-92,o),
(77,-54,q),
(77,485,l),
(126,485,l)
);
}
);
width = 206;
},
{
layerId = m003;
shapes = (
{
closed = 1;
nodes = (
(132,551,o),
(87,578,o),
(58,623,o),
(58,649,q),
(58,690,o),
(116,749,o),
(156,749,q),
(197,749,o),
(256,690,o),
(256,649,q),
(256,609,o),
(197,551,o),
(156,551,q)
);
},
{
closed = 1;
nodes = (
(248,2,l),
(248,-50,o),
(214,-121,o),
(133,-171,o),
(62,-194,q),
(-10,-63,l),
(26,-50,o),
(58,-23,o),
(66,10,o),
(66,29,q),
(66,485,l),
(248,485,l)
);
}
);
width = 302;
}
);
unicode = 106;
},
{
glyphname = k;
layers = (
{
layerId = m001;
shapes = (
{
closed = 1;
nodes = (
(129,206,l),
(203,280,l),
(390,0,l),
(449,0,l),
(236,313,l),
(391,467,l),
(354,498,l),
(129,264,l),
(129,706,l),
(80,696,l),
(80,0,l),
(129,0,l)
);
}
);
width = 449;
},
{
layerId = m003;
shapes = (
{
closed = 1;
nodes = (
(242,156,l),
(275,181,l),
(371,0,l),
(567,0,l),
(403,277,l),
(532,374,l),
(423,499,l),
(242,346,l),
(242,706,l),
(60,695,l),
(60,0,l),
(242,0,l)
);
}
);
width = 567;
}
);
unicode = 107;
},
{
glyphname = l;
layers = (
{
layerId = m001;
shapes = (
{
closed = 1;
nodes = (
(129,706,l),
(80,696,l),
(80,0,l),
(129,0,l)
);
}
);
width = 209;
},
{
layerId = m003;
shapes = (
{
closed = 1;
nodes = (
(242,706,l),
(60,695,l),
(60,0,l),
(242,0,l)
);
}
);
width = 302;
}
);
unicode = 108;
},
{
glyphname = lacute;
layers = (
{
layerId = m001;
shapes = (
{
closed = 1;
nodes = (
(129,684,l),
(80,674,l),
(80,0,l),
(129,0,l)
);
},
{
closed = 1;
nodes = (
(201,892,l),
(140,892,l),
(84,750,l),
(116,739,l)
);
}
);
width = 209;
},
{
layerId = m003;
shapes = (
{
closed = 1;
nodes = (
(242,706,l),
(60,695,l),
(60,0,l),
(242,0,l)
);
},
{
closed = 1;
nodes = (
(330,932,l),
(150,932,l),
(84,755,l),
(216,733,l)
);
}
);
width = 302;
}
);
unicode = 314;
},
{
glyphname = lcaron;
layers = (
{
layerId = m001;
shapes = (
{
closed = 1;
nodes = (
(252,702,o),
(235,691,o),
(226,673,o),
(226,663,q),
(226,657,o),
(234,639,o),
(250,625,o),
(262,625,q),
(261,598,o),
(227,557,o),
(201,543,q),
(217,518,l),
(245,532,o),
(283,574,o),
(303,629,o),
(303,659,q),
(303,674,o),
(282,702,o),
(264,702,q)
);
},
{
closed = 1;
nodes = (
(129,706,l),
(80,696,l),
(80,0,l),
(129,0,l)
);
}
);
width = 333;
},
{
layerId = m003;
shapes = (
{
closed = 1;
nodes = (
(366,742,o),
(324,715,o),
(300,673,o),
(300,650,q),
(300,634,o),
(311,604,o),
(331,580,o),
(343,572,q),
(339,559,o),
(305,529,o),
(291,521,q),
(327,441,l),
(371,458,o),
(442,519,o),
(484,596,o),
(484,635,q),
(484,683,o),
(430,742,o),
(392,742,q)
);
},
{
closed = 1;
nodes = (
(242,706,l),
(60,695,l),
(60,0,l),
(242,0,l)
);
}
);
width = 514;
}
);
unicode = 318;
},
{
glyphname = lslash;
layers = (
{
layerId = m001;
shapes = (
{
closed = 1;
nodes = (
(160,394,l),
(160,706,l),
(111,696,l),
(111,351,l),
(0,255,l),
(22,219,l),
(111,297,l),
(111,0,l),
(160,0,l),
(160,340,l),
(271,438,l),
(249,472,l)
);
}
);
width = 271;
},
{
layerId = m003;
shapes = (
{
closed = 1;
nodes = (
(280,510,l),
(280,706,l),
(98,695,l),
(98,384,l),
(0,316,l),
(40,156,l),
(98,196,l),
(98,0,l),
(280,0,l),
(280,322,l),
(386,395,l),
(345,555,l)
);
}
);
width = 386;
}
);
unicode = 322;
},
{
glyphname = m;
layers = (
{
layerId = m001;
shapes = (
{
closed = 1;
nodes = (
(119,359,l),
(147,388,o),
(205,432,o),
(263,457,o),
(289,457,q),
(323,457,o),
(358,425,o),
(370,371,o),
(370,337,q),
(370,0,l),
(419,0,l),
(419,337,l),
(419,384,o),
(393,456,o),
(335,498,o),
(285,498,q),
(260,498,o),
(197,473,o),
(139,433,o),
(118,409,q),
(108,485,l),
(70,485,l),
(70,0,l),
(119,0,l)
);
},
{
closed = 1;
nodes = (
(438,388,o),
(496,432,o),
(554,457,o),
(580,457,q),
(614,457,o),
(649,425,o),
(661,371,o),
(661,337,q),
(661,0,l),
(710,0,l),
(710,337,l),
(710,384,o),
(684,456,o),
(626,498,o),
(576,498,q),
(551,498,o),
(488,473,o),
(430,433,o),
(409,409,q),
(410,359,l)
);
}
);
width = 776;
},
{
layerId = m003;
shapes = (
{
closed = 1;
nodes = (
(232,326,l),
(247,333,o),
(283,345,o),
(316,354,o),
(325,354,q),
(347,354,o),
(367,338,o),
(372,311,o),
(372,296,q),
(372,0,l),
(554,0,l),
(554,313,l),
(554,367,o),
(522,452,o),
(447,501,o),
(383,501,q),
(347,501,o),
(276,481,o),
(214,450,o),
(190,435,q),
(158,485,l),
(50,485,l),
(50,0,l),
(232,0,l)
);
},
{
closed = 1;
nodes = (
(568,333,o),
(604,345,o),
(637,354,o),
(646,354,q),
(668,354,o),
(688,338,o),
(693,311,o),
(693,296,q),
(693,0,l),
(875,0,l),
(875,313,l),
(875,367,o),
(843,452,o),
(768,501,o),
(704,501,q),
(668,501,o),
(597,481,o),
(535,450,o),
(511,435,q),
(553,326,l)
);
}
);
width = 921;
}
);
unicode = 109;
},
{
glyphname = n;
layers = (
{
layerId = m001;
shapes = (
{
closed = 1;
nodes = (
(119,359,l),
(147,388,o),
(206,432,o),
(265,457,o),
(294,457,q),
(349,457,o),
(385,387,o),
(385,337,q),
(385,0,l),
(434,0,l),
(434,337,l),
(434,384,o),
(405,456,o),
(342,498,o),
(290,498,q),
(260,498,o),
(196,473,o),
(139,433,o),
(118,409,q),
(108,485,l),
(70,485,l),
(70,0,l),
(119,0,l)
);
}
);
width = 500;
},
{
layerId = m003;
shapes = (
{
closed = 1;
nodes = (
(232,326,l),
(247,333,o),
(284,345,o),
(319,354,o),
(330,354,q),
(360,354,o),
(382,319,o),
(382,296,q),
(382,0,l),
(564,0,l),
(564,313,l),
(564,367,o),
(527,452,o),
(450,501,o),
(388,501,q),
(349,501,o),
(277,481,o),
(214,450,o),
(190,435,q),
(158,485,l),
(50,485,l),
(50,0,l),
(232,0,l)
);
}
);
width = 610;
}
);
unicode = 110;
},
{
glyphname = o;
layers = (
{
layerId = m001;
shapes = (
{
closed = 1;
nodes = (
(187,-12,o),
(90,54,o),
(40,170,o),
(40,245,q),
(40,317,o),
(93,431,o),
(194,498,o),
(265,498,q),
(337,498,o),
(434,431,o),
(483,315,o),
(483,240,q),
(483,168,o),
(430,54,o),
(330,-12,o),
(259,-13,q)
);
},
{
closed = 1;
nodes = (
(313,28,o),
(390,86,o),
(432,183,o),
(432,239,q),
(432,299,o),
(393,398,o),
(319,457,o),
(264,457,q),
(211,457,o),
(133,399,o),
(91,303,o),
(91,246,q),
(91,187,o),
(130,87,o),
(205,28,o),
(259,28,q)
);
}
);
width = 523;
},
{
layerId = m003;
shapes = (
{
closed = 1;
nodes = (
(213,-11,o),
(90,45,o),
(20,159,o),
(20,245,q),
(20,327,o),
(94,441,o),
(219,502,o),
(295,502,q),
(375,502,o),
(499,443,o),
(570,327,o),
(570,240,q),
(570,159,o),
(495,47,o),
(369,-11,o),
(291,-11,q)
);
},
{
closed = 1;
nodes = (
(322,137,o),
(361,160,o),
(382,206,o),
(382,240,q),
(382,273,o),
(362,324,o),
(325,354,o),
(297,354,q),
(269,354,o),
(229,328,o),
(208,279,o),
(208,245,q),
(208,213,o),
(228,164,o),
(266,137,o),
(293,137,q)
);
}
);
width = 590;
}
);
unicode = 111;
},
{
glyphname = oslash;
layers = (
{
layerId = m001;
shapes = (
{
closed = 1;
nodes = (
(187,-12,o),
(90,54,o),
(40,170,o),
(40,245,q),
(40,317,o),
(93,431,o),
(194,498,o),
(265,498,q),
(337,498,o),
(434,431,o),
(483,315,o),
(483,240,q),
(483,168,o),
(430,54,o),
(330,-12,o),
(259,-13,q)
);
},
{
closed = 1;
nodes = (
(313,28,o),
(390,86,o),
(432,183,o),
(432,239,q),
(432,299,o),
(393,398,o),
(319,457,o),
(264,457,q),
(211,457,o),
(133,399,o),
(91,303,o),
(91,246,q),
(91,187,o),
(130,87,o),
(205,28,o),
(259,28,q)
);
},
{
closed = 1;
nodes = (
(142,49,l),
(347,444,l),
(384,417,l),
(182,28,l)
);
}
);
width = 523;
},
{
layerId = m003;
shapes = (
{
closed = 1;
nodes = (
(213,-11,o),
(90,45,o),
(20,159,o),
(20,245,q),
(20,327,o),
(94,441,o),
(219,502,o),
(295,502,q),
(375,502,o),
(499,443,o),
(570,327,o),
(570,240,q),
(570,159,o),
(495,47,o),
(369,-11,o),
(291,-11,q)
);
},
{
closed = 1;
nodes = (
(322,137,o),
(361,160,o),
(382,206,o),
(382,240,q),
(382,273,o),
(362,324,o),
(325,354,o),
(297,354,q),
(269,354,o),
(229,328,o),
(208,279,o),
(208,245,q),
(208,213,o),
(228,164,o),
(266,137,o),
(293,137,q)
);
},
{
closed = 1;
nodes = (
(187,142,l),
(316,380,l),
(399,332,l),
(263,91,l)
);
}
);
width = 590;
}
);
unicode = 248;
},
{
glyphname = oe;
layers = (
{
layerId = m001;
shapes = (
{
closed = 1;
nodes = (
(369,242,l),
(370,184,o),
(405,87,o),
(480,28,o),
(540,28,q),
(593,28,o),
(658,49,o),
(683,62,q),
(703,25,l),
(683,13,o),
(625,-4,o),
(568,-13,o),
(548,-13,q),
(504,-13,o),
(434,8,o),
(407,27,q),
(387,15,o),
(343,-3,o),
(291,-13,o),
(259,-13,q),
(188,-13,o),
(90,53,o),
(40,170,o),
(40,245,q),
(40,318,o),
(93,432,o),
(195,498,o),
(266,498,q),
(294,498,o),
(343,489,o),
(387,472,o),
(406,461,q),
(430,478,o),
(492,498,o),
(530,498,q),
(586,498,o),
(671,431,o),
(718,317,o),
(718,245,q),
(718,242,l)
);
},
{
closed = 1;
nodes = (
(666,279,l),
(662,327,o),
(631,408,o),
(571,457,o),
(523,457,q),
(475,457,o),
(411,408,o),
(376,327,o),
(371,279,q)
);
},
{
closed = 1;
nodes = (
(91,187,o),
(130,87,o),
(205,28,o),
(259,28,q),
(303,28,o),
(354,45,o),
(376,56,q),
(347,91,o),
(318,187,o),
(318,245,q),
(318,302,o),
(347,398,o),
(375,432,q),
(354,442,o),
(302,457,o),
(264,457,q),
(211,457,o),
(133,399,o),
(91,303,o),
(91,246,q)
);
}
);
width = 758;
},
{
layerId = m003;
shapes = (
{
closed = 1;
nodes = (
(541,197,l),
(548,177,o),
(576,147,o),
(620,131,o),
(651,131,q),
(695,131,o),
(762,153,o),
(784,164,q),
(835,41,l),
(816,27,o),
(752,3,o),
(674,-11,o),
(633,-11,q),
(580,-11,o),
(486,13,o),
(449,36,q),
(421,15,o),
(360,-5,o),
(305,-11,o),
(285,-11,q),
(207,-11,o),
(87,48,o),
(20,161,o),
(20,242,q),
(20,324,o),
(87,440,o),
(207,502,o),
(285,502,q),
(305,502,o),
(359,496,o),
(420,477,o),
(447,456,q),
(479,479,o),
(559,502,o),
(604,502,q),
(682,502,o),
(785,433,o),
(836,318,o),
(836,250,q),
(836,197,l)
);
},
{
closed = 1;
nodes = (
(662,287,l),
(662,301,o),
(649,333,o),
(622,356,o),
(599,356,q),
(583,356,o),
(553,337,o),
(536,306,o),
(536,287,q)
);
},
{
closed = 1;
nodes = (
(208,208,o),
(235,161,o),
(279,137,o),
(303,137,q),
(318,137,o),
(345,141,o),
(360,146,q),
(352,167,o),
(343,215,o),
(343,242,q),
(343,271,o),
(352,323,o),
(361,345,q),
(347,350,o),
(320,354,o),
(303,354,q),
(279,354,o),
(235,327,o),
(208,277,o),
(208,242,q)
);
}
);
width = 856;
}
);
unicode = 339;
},
{
glyphname = p;
layers = (
{
layerId = m001;
shapes = (
{
closed = 1;
nodes = (
(125,418,l),
(104,485,l),
(76,485,l),
(76,-219,l),
(125,-208,l)
);
},
{
closed = 1;
nodes = (
(146,415,o),
(209,457,o),
(259,457,q),
(314,457,o),
(383,398,o),
(417,299,o),
(417,239,q),
(417,183,o),
(380,86,o),
(308,28,o),
(254,28,q),
(208,28,o),
(140,68,o),
(115,92,q),
(95,59,l),
(109,45,o),
(159,11,o),
(221,-13,o),
(252,-13,q),
(324,-13,o),
(420,53,o),
(468,168,o),
(468,240,q),
(468,316,o),
(423,432,o),
(331,498,o),
(259,498,q),
(226,498,o),
(169,479,o),
(120,444,o),
(100,420,q),
(120,386,l)
);
}
);
width = 508;
},
{
layerId = m003;
shapes = (
{
closed = 1;
nodes = (
(238,393,l),
(147,484,l),
(56,484,l),
(56,-219,l),
(238,-209,l)
);
},
{
closed = 1;
nodes = (
(208,326,o),
(258,362,o),
(282,362,q),
(311,362,o),
(350,336,o),
(371,285,o),
(371,248,q),
(371,211,o),
(349,157,o),
(313,129,o),
(290,129,q),
(264,129,o),
(208,158,o),
(179,185,q),
(128,78,l),
(156,46,o),
(213,7,o),
(272,-11,o),
(302,-11,q),
(379,-11,o),
(494,47,o),
(559,163,o),
(559,249,q),
(559,336,o),
(494,448,o),
(382,502,o),
(310,502,q),
(273,502,o),
(203,476,o),
(146,435,o),
(128,413,q),
(179,296,l)
);
}
);
width = 579;
}
);
unicode = 112;
},
{
glyphname = thorn;
layers = (
{
layerId = m001;
shapes = (
{
closed = 1;
nodes = (
(331,498,o),
(423,432,o),
(468,316,o),
(468,240,q),
(468,168,o),
(420,53,o),
(324,-13,o),
(252,-13,q),
(218,-13,o),
(150,16,o),
(125,33,q),
(125,-208,l),
(76,-219,l),
(76,696,l),
(125,706,l),
(125,446,l),
(152,470,o),
(219,498,o),
(259,498,q)
);
},
{
closed = 1;
nodes = (
(308,28,o),
(380,86,o),
(417,183,o),
(417,239,q),
(417,299,o),
(383,398,o),
(314,457,o),
(259,457,q),
(211,457,o),
(150,419,o),
(125,392,q),
(125,83,l),
(149,61,o),
(213,28,o),
(254,28,q)
);
}
);
width = 508;
},
{
layerId = m003;
shapes = (
{
closed = 1;
nodes = (
(382,502,o),
(494,448,o),
(559,336,o),
(559,249,q),
(559,163,o),
(494,47,o),
(379,-11,o),
(302,-11,q),
(290,-11,o),
(257,-4,o),
(238,2,q),
(238,-209,l),
(56,-219,l),
(56,695,l),
(238,706,l),
(238,486,l),
(257,493,o),
(295,502,o),
(310,502,q)
);
},
{
closed = 1;
nodes = (
(313,129,o),
(349,157,o),
(371,211,o),
(371,248,q),
(371,285,o),
(350,336,o),
(311,362,o),
(282,362,q),
(271,362,o),
(249,354,o),
(238,347,q),
(238,142,l),
(251,136,o),
(277,129,o),
(290,129,q)
);
}
);
width = 579;
}
);
unicode = 254;
},
{
glyphname = q;
layers = (
{
layerId = m001;
shapes = (
{
closed = 1;
nodes = (
(383,419,l),
(383,-219,l),
(432,-208,l),
(432,485,l),
(405,485,l)
);
},
{
closed = 1;
nodes = (
(362,70,o),
(299,28,o),
(249,28,q),
(195,28,o),
(125,87,o),
(91,187,o),
(91,246,q),
(91,303,o),
(128,399,o),
(201,457,o),
(254,457,q),
(300,457,o),
(368,417,o),
(393,393,q),
(413,426,l),
(400,441,o),
(350,474,o),
(288,498,o),
(256,498,q),
(185,498,o),
(88,432,o),
(40,318,o),
(40,245,q),
(40,170,o),
(85,53,o),
(178,-13,o),
(249,-13,q),
(282,-13,o),
(339,6,o),
(388,42,o),
(408,65,q),
(388,99,l)
);
}
);
width = 508;
},
{
layerId = m003;
shapes = (
{
closed = 1;
nodes = (
(341,389,l),
(341,-219,l),
(523,-208,l),
(523,484,l),
(432,484,l)
);
},
{
closed = 1;
nodes = (
(371,165,o),
(321,129,o),
(297,129,q),
(269,129,o),
(229,155,o),
(208,206,o),
(208,243,q),
(208,281,o),
(230,334,o),
(267,362,o),
(289,362,q),
(315,362,o),
(371,333,o),
(400,306,q),
(451,413,l),
(423,445,o),
(366,484,o),
(307,502,o),
(277,502,q),
(201,502,o),
(85,444,o),
(20,329,o),
(20,242,q),
(20,156,o),
(85,43,o),
(198,-11,o),
(269,-11,q),
(307,-11,o),
(376,15,o),
(433,56,o),
(451,78,q),
(400,195,l)
);
}
);
width = 579;
}
);
unicode = 113;
},
{
glyphname = r;
layers = (
{
layerId = m001;
shapes = (
{
closed = 1;
nodes = (
(119,357,l),
(138,378,o),
(195,419,o),
(262,447,o),
(292,447,q),
(275,485,l),
(250,485,o),
(189,459,o),
(134,423,o),
(116,408,q),
(98,485,l),
(70,485,l),
(70,0,l),
(119,0,l)
);
}
);
width = 302;
},
{
layerId = m003;
shapes = (
{
closed = 1;
nodes = (
(232,285,l),
(253,301,o),
(306,325,o),
(361,339,o),
(385,339,q),
(348,485,l),
(321,485,o),
(260,466,o),
(205,439,o),
(185,425,q),
(141,484,l),
(50,484,l),
(50,0,l),
(232,0,l)
);
}
);
width = 395;
}
);
unicode = 114;
},
{
glyphname = s;
layers = (
{
layerId = m001;
shapes = (
{
closed = 1;
nodes = (
(61,13,o),
(114,-4,o),
(169,-13,o),
(189,-13,q),
(282,-13,o),
(366,59,o),
(366,123,q),
(366,157,o),
(325,210,o),
(259,250,o),
(219,266,q),
(169,286,o),
(97,334,o),
(97,368,q),
(97,403,o),
(159,457,o),
(210,457,q),
(255,457,o),
(314,433,o),
(334,423,q),
(354,458,l),
(338,470,o),
(289,488,o),
(238,498,o),
(217,498,q),
(135,498,o),
(50,421,o),
(50,364,q),
(50,333,o),
(89,282,o),
(154,244,o),
(191,229,q),
(227,215,o),
(285,182,o),
(319,143,o),
(319,119,q),
(319,92,o),
(288,51,o),
(231,28,o),
(191,28,q),
(166,28,o),
(119,40,o),
(78,58,o),
(60,66,q),
(42,25,l)
);
}
);
width = 406;
},
{
layerId = m003;
shapes = (
{
closed = 1;
nodes = (
(50,24,o),
(132,-1,o),
(209,-11,o),
(229,-11,q),
(330,-11,o),
(431,75,o),
(431,151,q),
(431,196,o),
(379,257,o),
(301,298,o),
(261,312,q),
(239,320,o),
(210,336,o),
(210,342,q),
(210,352,o),
(238,364,o),
(260,364,q),
(286,364,o),
(350,348,o),
(379,335,q),
(430,450,l),
(402,472,o),
(332,494,o),
(267,502,o),
(247,502,q),
(146,502,o),
(32,416,o),
(32,340,q),
(32,296,o),
(85,234,o),
(165,193,o),
(205,179,q),
(219,175,o),
(241,164,o),
(253,153,o),
(253,149,q),
(253,143,o),
(242,133,o),
(223,127,o),
(211,127,q),
(194,127,o),
(144,137,o),
(93,152,o),
(73,161,q),
(22,46,l)
);
}
);
width = 451;
}
);
unicode = 115;
},
{
glyphname = germandbls;
layers = (
{
layerId = m001;
shapes = (
{
closed = 1;
nodes = (
(130,0,l),
(130,473,l),
(130,519,o),
(163,594,o),
(230,639,o),
(279,639,q),
(333,639,o),
(413,568,o),
(413,502,q),
(413,439,o),
(338,372,o),
(248,372,q),
(221,372,l),
(221,333,l),
(266,333,l),
(348,333,o),
(447,262,o),
(447,186,q),
(447,134,o),
(396,69,o),
(310,39,o),
(256,39,q),
(205,39,l),
(205,0,l),
(243,0,l),
(314,0,o),
(430,34,o),
(499,117,o),
(499,188,q),
(499,232,o),
(464,300,o),
(405,346,o),
(369,356,q),
(399,369,o),
(442,410,o),
(465,468,o),
(465,503,q),
(465,561,o),
(414,640,o),
(328,680,o),
(276,680,q),
(214,680,o),
(126,630,o),
(80,538,o),
(80,473,q),
(80,0,l)
);
}
);
width = 544;
},
{
layerId = m003;
shapes = (
{
closed = 1;
nodes = (
(242,0,l),
(242,457,l),
(242,488,o),
(269,528,o),
(310,549,o),
(329,549,q),
(368,549,o),
(414,510,o),
(414,485,q),
(414,461,o),
(362,416,o),
(327,416,q),
(300,416,l),
(300,286,l),
(379,286,l),
(405,286,o),
(445,249,o),
(445,214,q),
(445,194,o),
(425,164,o),
(391,149,o),
(371,149,q),
(295,149,l),
(295,0,l),
(388,0,l),
(460,0,o),
(569,49,o),
(630,139,o),
(630,200,q),
(630,235,o),
(603,301,o),
(558,353,o),
(529,364,q),
(554,381,o),
(583,429,o),
(596,481,o),
(596,503,q),
(596,564,o),
(525,653,o),
(402,702,o),
(323,702,q),
(243,702,o),
(125,638,o),
(60,525,o),
(60,452,q),
(60,0,l)
);
}
);
width = 660;
}
);
unicode = 223;
},
{
glyphname = t;
layers = (
{
layerId = m001;
shapes = (
{
closed = 1;
nodes = (
(141,470,l),
(141,623,l),
(92,601,l),
(92,470,l),
(20,470,l),
(20,433,l),
(92,433,l),
(92,116,l),
(92,74,o),
(118,17,o),
(165,-13,o),
(196,-13,q),
(209,-13,o),
(234,-9,o),
(255,-3,o),
(262,-1,q),
(250,37,l),
(245,35,o),
(220,28,o),
(209,28,q),
(172,28,o),
(141,87,o),
(141,123,q),
(141,433,l),
(250,433,l),
(229,470,l)
);
}
);
width = 292;
},
{
layerId = m003;
shapes = (
{
closed = 1;
nodes = (
(267,465,l),
(267,621,l),
(85,596,l),
(85,465,l),
(10,465,l),
(10,322,l),
(85,322,l),
(85,182,l),
(85,118,o),
(150,32,o),
(254,-11,o),
(312,-11,q),
(336,-11,o),
(389,2,o),
(434,22,o),
(446,32,q),
(394,156,l),
(377,146,o),
(339,137,o),
(324,137,q),
(298,137,o),
(267,172,o),
(267,202,q),
(267,322,l),
(411,322,l),
(394,465,l)
);
}
);
width = 456;
}
);
unicode = 116;
},
{
glyphname = tcaron;
layers = (
{
layerId = m001;
shapes = (
{
closed = 1;
nodes = (
(331,702,o),
(314,691,o),
(305,673,o),
(305,663,q),
(305,657,o),
(313,639,o),
(329,625,o),
(341,625,q),
(340,598,o),
(306,557,o),
(280,543,q),
(296,518,l),
(324,532,o),
(362,574,o),
(382,629,o),
(382,659,q),
(382,674,o),
(361,702,o),
(343,702,q)
);
},
{
closed = 1;
nodes = (
(141,470,l),
(141,623,l),
(92,601,l),
(92,470,l),
(20,470,l),
(20,433,l),
(92,433,l),
(92,116,l),
(92,74,o),
(118,17,o),
(165,-13,o),
(196,-13,q),
(209,-13,o),
(234,-9,o),
(255,-3,o),
(262,-1,q),
(250,37,l),
(245,35,o),
(220,28,o),
(209,28,q),
(172,28,o),
(141,87,o),
(141,123,q),
(141,433,l),
(250,433,l),
(229,470,l)
);
}
);
width = 412;
},
{
layerId = m003;
shapes = (
{
closed = 1;
nodes = (
(493,742,o),
(451,715,o),
(427,673,o),
(427,650,q),
(427,634,o),
(438,604,o),
(458,580,o),
(470,572,q),
(466,559,o),
(432,529,o),
(418,521,q),
(454,441,l),
(498,458,o),
(569,519,o),
(611,596,o),
(611,635,q),
(611,683,o),
(557,742,o),
(519,742,q)
);
},
{
closed = 1;
nodes = (
(267,465,l),
(267,621,l),
(85,596,l),
(85,465,l),
(10,465,l),
(10,322,l),
(85,322,l),
(85,182,l),
(85,118,o),
(150,32,o),
(254,-11,o),
(312,-11,q),
(336,-11,o),
(389,2,o),
(434,22,o),
(446,32,q),
(394,156,l),
(377,146,o),
(339,137,o),
(324,137,q),
(298,137,o),
(267,172,o),
(267,202,q),
(267,322,l),
(411,322,l),
(394,465,l)
);
}
);
width = 641;
}
);
unicode = 357;
},
{
glyphname = u;
layers = (
{
layerId = m001;
shapes = (
{
closed = 1;
nodes = (
(381,126,l),
(353,98,o),
(294,53,o),
(235,28,o),
(206,28,q),
(151,28,o),
(115,98,o),
(115,148,q),
(115,485,l),
(66,485,l),
(66,148,l),
(66,102,o),
(95,29,o),
(158,-13,o),
(210,-13,q),
(240,-13,o),
(304,11,o),
(362,52,o),
(382,76,q),
(392,0,l),
(430,0,l),
(430,485,l),
(381,485,l)
);
}
);
width = 500;
},
{
layerId = m003;
shapes = (
{
closed = 1;
nodes = (
(378,158,l),
(364,152,o),
(327,139,o),
(292,130,o),
(280,130,q),
(250,130,o),
(228,166,o),
(228,188,q),
(228,484,l),
(46,484,l),
(46,171,l),
(46,117,o),
(83,32,o),
(161,-17,o),
(222,-17,q),
(261,-17,o),
(334,4,o),
(396,34,o),
(420,49,q),
(472,-1,l),
(560,-1,l),
(560,484,l),
(378,484,l)
);
}
);
width = 610;
}
);
unicode = 117;
},
{
glyphname = uogonek;
layers = (
{
layerId = m001;
shapes = (
{
closed = 1;
nodes = (
(375,-11,o),
(347,-50,o),
(331,-92,o),
(331,-111,q),
(331,-139,o),
(359,-183,o),
(406,-207,o),
(436,-207,q),
(461,-207,o),
(503,-190,o),
(516,-177,q),
(494,-150,l),
(482,-160,o),
(455,-171,o),
(439,-171,q),
(420,-171,o),
(377,-142,o),
(377,-112,q),
(377,-90,o),
(389,-51,o),
(412,-16,o),
(430,0,q),
(393,4,l)
);
},
{
closed = 1;
nodes = (
(381,126,l),
(353,98,o),
(294,53,o),
(235,28,o),
(206,28,q),
(151,28,o),
(115,98,o),
(115,148,q),
(115,485,l),
(66,485,l),
(66,148,l),
(66,102,o),
(95,29,o),
(158,-13,o),
(210,-13,q),
(240,-13,o),
(304,11,o),
(362,52,o),
(382,76,q),
(392,0,l),
(430,0,l),
(430,485,l),
(381,485,l)
);
}
);
width = 500;
},
{
layerId = m003;
shapes = (
{
closed = 1;
nodes = (
(417,11,o),
(396,-49,o),
(391,-91,o),
(391,-109,q),
(391,-141,o),
(425,-205,o),
(491,-246,o),
(539,-246,q),
(579,-246,o),
(645,-219,o),
(662,-199,q),
(601,-97,l),
(587,-110,o),
(567,-117,o),
(557,-117,q),
(544,-117,o),
(528,-97,o),
(528,-85,q),
(528,-72,o),
(539,-40,o),
(554,-9,o),
(560,-1,q),
(442,53,l)
);
},
{
closed = 1;
nodes = (
(378,158,l),
(364,152,o),
(327,139,o),
(292,130,o),
(280,130,q),
(250,130,o),
(228,166,o),
(228,188,q),
(228,484,l),
(46,484,l),
(46,171,l),
(46,117,o),
(83,32,o),
(161,-17,o),
(222,-17,q),
(261,-17,o),
(334,4,o),
(396,34,o),
(420,49,q),
(472,-1,l),
(560,-1,l),
(560,484,l),
(378,484,l)
);
}
);
width = 610;
}
);
unicode = 371;
},
{
glyphname = v;
layers = (
{
layerId = m001;
shapes = (
{
closed = 1;
nodes = (
(420,485,l),
(370,485,l),
(216,56,l),
(56,492,l),
(10,474,l),
(193,0,l),
(240,0,l)
);
}
);
width = 430;
},
{
layerId = m003;
shapes = (
{
closed = 1;
nodes = (
(559,485,l),
(378,485,l),
(285,211,l),
(188,503,l),
(20,455,l),
(196,0,l),
(368,0,l)
);
}
);
width = 569;
}
);
unicode = 118;
},
{
glyphname = w;
layers = (
{
layerId = m001;
shapes = (
{
closed = 1;
nodes = (
(632,485,l),
(582,485,l),
(466,64,l),
(340,485,l),
(298,485,l),
(175,64,l),
(56,491,l),
(10,473,l),
(153,0,l),
(200,0,l),
(315,409,l),
(441,0,l),
(488,0,l)
);
}
);
width = 642;
},
{
layerId = m003;
shapes = (
{
closed = 1;
nodes = (
(802,485,l),
(621,485,l),
(558,210,l),
(486,485,l),
(315,485,l),
(248,210,l),
(178,503,l),
(10,455,l),
(158,0,l),
(324,0,l),
(399,251,l),
(475,0,l),
(641,0,l)
);
}
);
width = 812;
}
);
unicode = 119;
},
{
glyphname = x;
layers = (
{
layerId = m001;
shapes = (
{
closed = 1;
nodes = (
(196,207,l),
(327,0,l),
(382,0,l),
(235,232,l),
(395,485,l),
(341,485,l),
(209,267,l),
(73,494,l),
(30,474,l),
(171,244,l),
(10,0,l),
(66,0,l)
);
}
);
width = 405;
},
{
layerId = m003;
shapes = (
{
closed = 1;
nodes = (
(278,104,l),
(343,0,l),
(547,0,l),
(382,231,l),
(547,485,l),
(346,485,l),
(272,368,l),
(187,500,l),
(11,458,l),
(168,241,l),
(10,0,l),
(215,0,l)
);
}
);
width = 557;
}
);
unicode = 120;
},
{
glyphname = y;
layers = (
{
layerId = m001;
shapes = (
{
closed = 1;
nodes = (
(154,-120,o),
(127,-151,o),
(89,-172,o),
(63,-181,q),
(68,-219,l),
(100,-212,o),
(153,-183,o),
(191,-139,o),
(201,-112,q),
(420,485,l),
(370,485,l),
(216,56,l),
(56,491,l),
(10,473,l),
(193,0,l),
(162,-98,l)
);
}
);
width = 430;
},
{
layerId = m003;
shapes = (
{
closed = 1;
nodes = (
(175,-16,o),
(133,-44,o),
(80,-68,o),
(56,-78,q),
(117,-219,l),
(165,-208,o),
(255,-162,o),
(323,-96,o),
(338,-57,q),
(551,485,l),
(370,485,l),
(277,211,l),
(178,503,l),
(10,455,l),
(184,9,l),
(180,-2,l)
);
}
);
width = 561;
}
);
unicode = 121;
},
{
glyphname = z;
layers = (
{
layerId = m001;
shapes = (
{
closed = 1;
nodes = (
(57,485,l),
(73,448,l),
(350,448,l),
(28,31,l),
(36,0,l),
(398,0,l),
(388,37,l),
(79,37,l),
(404,453,l),
(401,485,l)
);
}
);
width = 432;
},
{
layerId = m003;
shapes = (
{
closed = 1;
nodes = (
(30,485,l),
(47,342,l),
(207,342,l),
(8,94,l),
(30,0,l),
(444,0,l),
(427,143,l),
(230,143,l),
(426,384,l),
(417,485,l)
);
}
);
width = 452;
}
);
unicode = 122;
},
{
glyphname = ordfeminine;
layers = (
{
layerId = m001;
shapes = (
{
closed = 1;
nodes = (
(85,494,o),
(126,533,o),
(169,533,q),
(246,533,l),
(246,447,l),
(230,425,o),
(183,397,o),
(155,397,q),
(123,397,o),
(85,441,o),
(85,466,q)
);
},
{
closed = 1;
nodes = (
(92,648,o),
(132,663,o),
(166,663,q),
(206,663,o),
(246,621,o),
(246,587,q),
(246,564,l),
(160,564,l),
(109,564,o),
(40,512,o),
(40,466,q),
(40,423,o),
(101,363,o),
(155,363,q),
(181,363,o),
(232,388,o),
(249,408,q),
(260,372,l),
(292,372,l),
(292,580,l),
(292,612,o),
(264,667,o),
(208,702,o),
(165,702,q),
(152,702,o),
(113,695,o),
(75,682,o),
(62,673,q),
(74,641,l)
);
}
);
width = 332;
},
{
layerId = m003;
shapes = (
{
closed = 1;
nodes = (
(138,468,o),
(151,475,o),
(161,475,q),
(197,475,l),
(197,470,l),
(190,461,o),
(169,451,o),
(158,451,q),
(149,451,o),
(138,457,o),
(138,461,q)
);
},
{
closed = 1;
nodes = (
(85,567,o),
(134,580,o),
(152,580,q),
(164,580,o),
(184,574,o),
(188,566,q),
(189,564,l),
(155,564,l),
(95,564,o),
(20,512,o),
(20,456,q),
(20,402,o),
(84,337,o),
(150,337,q),
(179,337,o),
(230,355,o),
(246,371,q),
(269,344,l),
(327,344,l),
(327,558,l),
(327,602,o),
(294,667,o),
(231,702,o),
(184,702,q),
(156,702,o),
(99,693,o),
(50,678,o),
(31,669,q),
(66,559,l)
);
}
);
width = 347;
}
);
unicode = 170;
},
{
glyphname = ordmasculine;
layers = (
{
layerId = m001;
shapes = (
{
closed = 1;
nodes = (
(132,702,o),
(63,660,o),
(20,584,o),
(20,532,q),
(20,478,o),
(63,403,o),
(132,363,o),
(172,363,q),
(213,363,o),
(282,404,o),
(324,480,o),
(324,532,q),
(324,586,o),
(281,662,o),
(211,702,o),
(171,702,q)
);
},
{
closed = 1;
nodes = (
(217,667,o),
(279,595,o),
(279,532,q),
(279,489,o),
(248,429,o),
(199,399,o),
(172,399,q),
(130,399,o),
(65,470,o),
(65,532,q),
(65,576,o),
(96,636,o),
(145,667,o),
(171,667,q)
);
}
);
width = 344;
},
{
layerId = m003;
shapes = (
{
closed = 1;
nodes = (
(145,702,o),
(64,657,o),
(20,575,o),
(20,519,q),
(20,463,o),
(61,381,o),
(140,337,o),
(195,337,q),
(252,337,o),
(336,381,o),
(382,462,o),
(382,517,q),
(382,573,o),
(339,656,o),
(258,702,o),
(200,702,q)
);
},
{
closed = 1;
nodes = (
(226,578,o),
(244,545,o),
(244,517,q),
(244,497,o),
(234,471,o),
(214,458,o),
(198,458,q),
(176,458,o),
(158,489,o),
(158,519,q),
(158,540,o),
(169,566,o),
(189,578,o),
(202,578,q)
);
}
);
width = 402;
}
);
unicode = 186;
},
{
glyphname = "pi-grek";
layers = (
{
layerId = m001;
shapes = (
{
closed = 1;
nodes = (
(158,446,l),
(382,446,l),
(382,0,l),
(431,0,l),
(431,446,l),
(531,446,l),
(531,485,l),
(10,485,l),
(10,446,l),
(109,446,l),
(109,0,l),
(158,0,l)
);
}
);
width = 541;
},
{
layerId = m003;
shapes = (
{
closed = 1;
nodes = (
(292,342,l),
(430,342,l),
(430,0,l),
(612,0,l),
(612,342,l),
(712,342,l),
(712,485,l),
(10,485,l),
(10,342,l),
(110,342,l),
(110,0,l),
(292,0,l)
);
}
);
width = 722;
}
);
unicode = 960;
},
{
color = 5;
glyphname = "alef-hebr";
lastChange = "2023-07-08 03:13:51 +0000";
layers = (
{
anchors = (
{
name = Anchor_1;
pos = (329,0);
},
{
name = dagesh;
pos = (248,-99);
}
);
layerId = m001;
shapes = (
{
closed = 1;
nodes = (
(358,257,l),
(540,604,l),
(579,579,l),
(389,219,l)
);
},
{
closed = 1;
nodes = (
(520,0,l),
(75,587,l),
(122,604,l),
(581,0,l)
);
},
{
closed = 1;
nodes = (
(75,0,l),
(75,232,ls),
(75,337,o),
(126,391,o),
(224,439,c),
(251,408,l),
(159,360,o),
(124,320,o),
(124,237,cs),
(124,0,l)
);
}
);
width = 631;
},
{
anchors = (
{
name = Anchor_1;
pos = (329,0);
},
{
name = dagesh;
pos = (266,-159);
}
);
layerId = m003;
shapes = (
{
closed = 1;
nodes = (
(335,373,l),
(517,615,l),
(637,498,l),
(448,255,l)
);
},
{
closed = 1;
nodes = (
(424,0,l),
(40,555,l),
(200,616,l),
(629,0,l)
);
},
{
closed = 1;
nodes = (
(25,0,l),
(25,191,ls),
(25,319,o),
(97,395,o),
(208,449,c),
(276,345,l),
(226,306,o),
(205,285,o),
(205,227,cs),
(205,0,l)
);
}
);
width = 657;
},
{
anchors = (
{
name = Anchor_1;
pos = (329,0);
},
{
name = dagesh;
pos = (266,-159);
}
);
associatedMasterId = m003;
layerId = "87F4DE94-8CF7-459A-AC7D-57522B72DD93";
name = "Jul 7, 23, 20:10";
shapes = (
{
closed = 1;
nodes = (
(335,373,l),
(517,615,l),
(637,498,l),
(448,255,l)
);
},
{
closed = 1;
nodes = (
(424,0,l),
(40,555,l),
(200,616,l),
(629,0,l)
);
},
{
closed = 1;
nodes = (
(25,0,l),
(25,191,l),
(25,254,o),
(44,304,o),
(65,336,c),
(94,379,o),
(154,423,o),
(208,449,c),
(276,345,l),
(257,328,o),
(241,312,o),
(227,298,c),
(212,284,o),
(205,260,o),
(205,227,c),
(205,0,l)
);
}
);
visible = 1;
width = 657;
},
{
anchors = (
{
name = Anchor_1;
pos = (329,0);
},
{
name = dagesh;
pos = (248,-99);
}
);
associatedMasterId = m001;
layerId = "75AD5841-AE30-4FE5-B811-6BD72EECCC84";
name = "Jul 7, 23, 20:11";
shapes = (
{
closed = 1;
nodes = (
(358,257,l),
(540,604,l),
(579,579,l),
(389,219,l)
);
},
{
closed = 1;
nodes = (
(520,0,l),
(75,587,l),
(122,604,l),
(581,0,l)
);
},
{
closed = 1;
nodes = (
(75,0,l),
(75,232,l),
(75,293,o),
(94,335,o),
(117,363,c),
(143,395,o),
(187,421,o),
(224,439,c),
(251,408,l),
(238,400,o),
(205,384,o),
(177,360,c),
(143,331,o),
(124,293,o),
(124,237,c),
(124,0,l)
);
}
);
visible = 1;
width = 631;
}
);
unicode = 1488;
},
{
color = 5;
glyphname = "bet-hebr";
lastChange = "2023-07-08 03:16:05 +0000";
layers = (
{
anchors = (
{
name = Anchor_1;
pos = (268,0);
},
{
name = dagesh;
pos = (206,0);
}
);
layerId = m001;
shapes = (
{
closed = 1;
nodes = (
(430,39,l),
(490,39,l),
(485,0,l),
(65,0,l),
(65,39,l),
(381,39,l),
(381,551,l),
(65,551,l),
(75,590,l),
(430,590,l)
);
}
);
width = 520;
},
{
anchors = (
{
name = Anchor_1;
pos = (268,0);
},
{
name = dagesh;
pos = (141,0);
}
);
layerId = m003;
shapes = (
{
closed = 1;
nodes = (
(25,0,l),
(25,143,l),
(260,143,l),
(260,447,l),
(25,447,l),
(45,590,l),
(442,590,l),
(442,143,l),
(500,143,l),
(495,0,l)
);
}
);
width = 516;
}
);
unicode = 1489;
},
{
color = 5;
glyphname = "gimel-hebr";
lastChange = "2023-07-08 03:22:51 +0000";
layers = (
{
anchors = (
{
name = Anchor_1;
pos = (210,0);
},
{
name = dagesh;
pos = (121,21);
}
);
layerId = m001;
shapes = (
{
closed = 1;
nodes = (
(303,-10,l),
(278,65,ls),
(265.333,104.333,o),
(257,134.333,o),
(253,155,c),
(216,59,o),
(154,-8,o),
(52,-6,c),
(57,40,l),
(162.96,45.728,o),
(237,160.816,o),
(237,258,cs),
(237,551,l),
(68,551,l),
(78,590,l),
(286,590,l),
(286,259,ls),
(286,209.667,o),
(297,153.667,o),
(319,91,cs),
(350,3,l)
);
}
);
width = 380;
},
{
anchors = (
{
name = Anchor_1;
pos = (198,0);
},
{
name = dagesh;
pos = (100,36);
}
);
layerId = m003;
shapes = (
{
closed = 1;
nodes = (
(250,-10,l),
(238,52,ls),
(228.667,94,o),
(223,127,o),
(221,151,c),
(194.924,51.299,o),
(126.924,-18.573,o),
(6,-16,c),
(11,150,l),
(66,147,o),
(194,189,o),
(194,354,cs),
(194,447,l),
(26,447,l),
(46,590,l),
(376,590,l),
(376,295,ls),
(376,226.333,o),
(386.333,154.333,o),
(407,79,cs),
(426,3,l)
);
}
);
width = 424;
},
{
anchors = (
{
name = Anchor_1;
pos = (198,0);
},
{
name = dagesh;
pos = (100,36);
}
);
associatedMasterId = m003;
layerId = "BA1A0D17-218A-402E-AEDF-08BFA31148C2";
name = "Jul 7, 23, 20:15";
shapes = (
{
closed = 1;
nodes = (
(26,447,l),
(194,447,l),
(194,354,ls),
(194,281,o),
(135,189,o),
(45,148,o),
(11,150,q),
(6,-16,l),
(53,-17,o),
(125,5,o),
(204,86,o),
(221,151,q),
(224,115,o),
(238,52,q),
(250,-10,l),
(426,3,l),
(407,79,l),
(376,192,o),
(376,295,q),
(376,590,l),
(46,590,l)
);
}
);
visible = 1;
width = 424;
}
);
unicode = 1490;
},
{
color = 5;
glyphname = "dalet-hebr";
lastChange = "2023-07-08 03:22:51 +0000";
layers = (
{
anchors = (
{
name = Anchor_1;
pos = (367,0);
},
{
name = dagesh;
pos = (199,0);
}
);
layerId = m001;
shapes = (
{
closed = 1;
nodes = (
(354,0,l),
(354,551,l),
(60,551,l),
(70,590,l),
(485,590,l),
(480,551,l),
(403,551,l),
(403,0,l)
);
}
);
width = 523;
},
{
anchors = (
{
name = Anchor_1;
pos = (313,0);
},
{
name = dagesh;
pos = (121,0);
}
);
layerId = m003;
shapes = (
{
closed = 1;
nodes = (
(229,0,l),
(229,447,l),
(20,447,l),
(40,590,l),
(475,590,l),
(470,447,l),
(411,447,l),
(411,0,l)
);
}
);
width = 508;
}
);
unicode = 1491;
},
{
color = 5;
glyphname = "he-hebr";
lastChange = "2023-07-08 03:26:55 +0000";
layers = (
{
anchors = (
{
name = Anchor_1;
pos = (304,0);
},
{
name = dagesh;
pos = (295,0);
},
{
name = holam;
pos = (34,0);
}
);
layerId = m001;
shapes = (
{
closed = 1;
nodes = (
(462,0,l),
(462,409,ls),
(462,512,o),
(410,554,o),
(288,554,cs),
(202,554,o),
(136,535,o),
(87,516,c),
(68,553,l),
(106,571,o),
(189,595,o),
(288,595,cs),
(474,595,o),
(511,497,o),
(511,408,cs),
(511,0,l)
);
},
{
closed = 1;
nodes = (
(68,0,l),
(68,340,l),
(117,366,l),
(117,0,l)
);
}
);
width = 596;
},
{
anchors = (
{
name = Anchor_1;
pos = (304,0);
},
{
name = dagesh;
pos = (303,-24);
},
{
name = holam;
pos = (19,0);
}
);
layerId = m003;
shapes = (
{
closed = 1;
nodes = (
(369,0,l),
(369,319,ls),
(369,402,o),
(346,441,o),
(244,444,cs),
(172,446,o),
(100,429,o),
(41,414,c),
(15,563,l),
(52,574,o),
(144,595,o),
(253,595,cs),
(474,595,o),
(551,497,o),
(551,391,cs),
(551,0,l)
);
},
{
closed = 1;
nodes = (
(51,0,l),
(51,316,l),
(233,359,l),
(233,0,l)
);
}
);
width = 596;
}
);
unicode = 1492;
},
{
color = 5;
glyphname = "vav-hebr";
lastChange = "2023-07-08 03:26:55 +0000";
layers = (
{
anchors = (
{
name = Anchor_1;
pos = (218,0);
},
{
name = dagesh;
pos = (110,0);
}
);
layerId = m001;
shapes = (
{
closed = 1;
nodes = (
(190,0,l),
(190,551,l),
(60,551,l),
(70,590,l),
(239,590,l),
(239,0,l)
);
}
);
width = 329;
},
{
anchors = (
{
name = Anchor_1;
pos = (218,0);
},
{
name = dagesh;
pos = (65,-24);
}
);
layerId = m003;
shapes = (
{
closed = 1;
nodes = (
(123,0,l),
(123,447,l),
(20,447,l),
(40,590,l),
(305,590,l),
(305,0,l)
);
}
);
width = 355;
}
);
unicode = 1493;
},
{
color = 5;
glyphname = "zayin-hebr";
lastChange = "2023-07-08 03:30:26 +0000";
layers = (
{
anchors = (
{
name = Anchor_1;
pos = (275,0);
},
{
name = dagesh;
pos = (110,0);
}
);
layerId = m001;
shapes = (
{
closed = 1;
nodes = (
(243,-4,l),
(140,550,l),
(60,550,l),
(70,590,l),
(339,590,l),
(330,550,l),
(189,550,l),
(292,3,l)
);
}
);
width = 394;
},
{
anchors = (
{
name = Anchor_1;
pos = (275,0);
},
{
name = dagesh;
pos = (65,-27);
}
);
layerId = m003;
shapes = (
{
closed = 1;
nodes = (
(175,-14,l),
(100,447,l),
(20,447,l),
(40,590,l),
(366,590,l),
(345,447,l),
(283,447,l),
(356,11,l)
);
}
);
width = 386;
}
);
unicode = 1494;
},
{
color = 5;
glyphname = "het-hebr";
lastChange = "2023-07-08 03:30:26 +0000";
layers = (
{
anchors = (
{
name = Anchor_1;
pos = (313,0);
},
{
name = dagesh;
pos = (301,0);
}
);
layerId = m001;
shapes = (
{
closed = 1;
nodes = (
(476,0,l),
(476,422,ls),
(476,536,o),
(393,552,o),
(257,552,cs),
(216,552,o),
(176,551,o),
(139,548,c),
(139,0,l),
(90,0,l),
(90,582,l),
(148,590,o),
(221,596,o),
(295,596,cs),
(487,596,o),
(525,519,o),
(525,421,cs),
(525,0,l)
);
}
);
width = 610;
},
{
anchors = (
{
name = Anchor_1;
pos = (320,0);
},
{
name = dagesh;
pos = (308,-21);
}
);
layerId = m003;
shapes = (
{
closed = 1;
nodes = (
(399,0,l),
(399,349,ls),
(399,416,o),
(376,444,o),
(298,444,cs),
(264,444,o),
(242,443,o),
(227,442,c),
(227,0,l),
(45,0,l),
(45,574,l),
(90,585,o),
(184,598,o),
(306,595,cs),
(497,590,o),
(581,506,o),
(581,385,cs),
(581,0,l)
);
}
);
width = 626;
}
);
unicode = 1495;
},
{
color = 5;
glyphname = "tet-hebr";
lastChange = "2023-07-08 03:31:52 +0000";
layers = (
{
anchors = (
{
name = Anchor_1;
pos = (312,0);
},
{
name = dagesh;
pos = (396,0);
}
);
layerId = m001;
shapes = (
{
closed = 1;
nodes = (
(141,-12,o),
(85,116,o),
(85,253,cs),
(85,590,l),
(132,590,l),
(134,253,ls),
(134,87,o),
(217,33,o),
(319,33,cs),
(421,33,o),
(504,87,o),
(504,253,cs),
(505,551,l),
(459,549,o),
(371,514,o),
(320,346,c),
(281,367,l),
(329,535,o),
(431,590,o),
(524,590,cs),
(553,590,l),
(553,253,ls),
(553,116,o),
(497,-10,o),
(319,-11,cs)
);
}
);
width = 638;
},
{
anchors = (
{
name = Anchor_1;
pos = (312,0);
},
{
name = dagesh;
pos = (337,-9);
}
);
layerId = m003;
shapes = (
{
closed = 1;
nodes = (
(199,-11,o),
(45,54,o),
(45,290,c),
(45,590,l),
(227,590,l),
(227,265,l),
(227,180,o),
(272,150,o),
(337,150,cs),
(416,150,o),
(439,197,o),
(439,265,c),
(439,418,l),
(421,417,o),
(390,381,o),
(362,354,c),
(275,460,l),
(330,535,o),
(410,590,o),
(512,590,cs),
(621,590,l),
(621,290,ls),
(621,54,o),
(480,-11,o),
(337,-11,cs)
);
}
);
width = 666;
}
);
unicode = 1496;
},
{
color = 5;
glyphname = "yod-hebr";
lastChange = "2023-07-08 03:53:16 +0000";
layers = (
{
anchors = (
{
name = Anchor_1;
pos = (210,0);
},
{
name = dagesh;
pos = (108,138);
}
);
layerId = m001;
shapes = (
{
closed = 1;
nodes = (
(191,267,l),
(191,551,l),
(60,551,l),
(70,590,l),
(240,590,l),
(240,284,l)
);
}
);
width = 330;
},
{
anchors = (
{
name = Anchor_1;
pos = (210,0);
},
{
name = dagesh;
pos = (54,51);
}
);
layerId = m003;
shapes = (
{
closed = 1;
nodes = (
(123,230,l),
(123,447,l),
(20,447,l),
(40,590,l),
(305,590,l),
(305,270,l)
);
}
);
width = 355;
}
);
unicode = 1497;
},
{
color = 5;
glyphname = "finalkaf-hebr";
lastChange = "2023-07-08 03:53:16 +0000";
layers = (
{
anchors = (
{
name = Anchor_1;
pos = (249,351);
},
{
name = dagesh;
pos = (225,0);
}
);
layerId = m001;
shapes = (
{
closed = 1;
nodes = (
(411,-198,l),
(411,329,ls),
(411,446,o),
(381,554,o),
(222,554,cs),
(184,554,o),
(134,549,o),
(79,533,c),
(65,572,l),
(113,585,o),
(169,593,o),
(226,593,cs),
(380,593,o),
(460,522,o),
(460,338,cs),
(460,-179,l)
);
}
);
width = 540;
},
{
anchors = (
{
name = Anchor_1;
pos = (204,351);
},
{
name = dagesh;
pos = (186,-42);
}
);
layerId = m003;
shapes = (
{
closed = 1;
nodes = (
(320,-208,l),
(320,329,ls),
(320,402,o),
(293,444,o),
(214,444,cs),
(165,444,o),
(110,431,o),
(58,414,c),
(35,563,l),
(70,574,o),
(144,595,o),
(234,595,cs),
(425,595,o),
(502,497,o),
(502,391,cs),
(502,-172,l)
);
}
);
width = 547;
}
);
unicode = 1498;
},
{
color = 5;
glyphname = "kaf-hebr";
lastChange = "2023-07-08 03:53:16 +0000";
layers = (
{
anchors = (
{
name = Anchor_1;
pos = (261,0);
},
{
name = dagesh;
pos = (216,0);
}
);
layerId = m001;
shapes = (
{
closed = 1;
nodes = (
(152,-14,o),
(95,-1,o),
(55,17,c),
(71,57,l),
(121,41,o),
(163,29,o),
(222,29,cs),
(318,29,o),
(419,67,o),
(419,289,cs),
(419,509,o),
(332,554,o),
(215,554,cs),
(166,554,o),
(120,547,o),
(73,533,c),
(59,572,l),
(101,585,o),
(158,595,o),
(209,595,cs),
(338,595,o),
(468,552,o),
(468,290,cs),
(468,38,o),
(339,-14,o),
(216,-14,cs)
);
}
);
width = 533;
},
{
anchors = (
{
name = Anchor_1;
pos = (261,0);
},
{
name = dagesh;
pos = (153,0);
}
);
layerId = m003;
shapes = (
{
closed = 1;
nodes = (
(121,-13,o),
(63,0,o),
(15,14,c),
(38,162,l),
(93,149,o),
(130,148,o),
(171,148,cs),
(261,148,o),
(300,177,o),
(300,291,cs),
(300,401,o),
(282,445,o),
(177,445,cs),
(121,445,o),
(81,438,o),
(37,430,c),
(16,575,l),
(53,584,o),
(117,596,o),
(190,596,cs),
(373,596,o),
(482,525,o),
(482,291,cs),
(482,57,o),
(374,-13,o),
(214,-13,cs)
);
}
);
width = 507;
},
{
anchors = (
{
name = Anchor_1;
pos = (261,0);
},
{
name = dagesh;
pos = (153,0);
}
);
associatedMasterId = m003;
layerId = "B9B19AB0-196D-413A-94FD-4514DA15790B";
name = "Jul 7, 23, 20:46";
shapes = (
{
closed = 1;
nodes = (
(121,-13,o),
(63,0,o),
(15,14,c),
(38,162,l),
(93,149,o),
(153,146,o),
(194,149,cs),
(270,155,o),
(300,188,o),
(300,291,cs),
(300,385,o),
(286,437,o),
(205,444,cs),
(143,449,o),
(81,438,o),
(37,430,c),
(16,575,l),
(53,584,o),
(131,600,o),
(214,595,cs),
(377,585,o),
(482,525,o),
(482,291,cs),
(482,57,o),
(374,-13,o),
(214,-13,cs)
);
}
);
width = 507;
},
{
anchors = (
{
name = Anchor_1;
pos = (261,0);
},
{
name = dagesh;
pos = (216,0);
}
);
associatedMasterId = m001;
layerId = "6F01744F-27A4-4A16-A14B-8DA56D9ACBE4";
name = "Jul 7, 23, 20:49";
shapes = (
{
closed = 1;
nodes = (
(342,-6,o),
(468,38,o),
(468,290,c),
(468,552,o),
(334,585,o),
(244,593,c),
(177,599,o),
(101,586,o),
(59,572,c),
(73,533,l),
(120,547,o),
(184,558,o),
(244,553,c),
(311,546,o),
(419,529,o),
(419,289,c),
(419,67,o),
(319,37,o),
(252,31,c),
(189,25,o),
(121,41,o),
(71,57,c),
(55,17,l),
(95,-1,o),
(168,-18,o),
(241,-13,c)
);
}
);
visible = 1;
width = 533;
}
);
unicode = 1499;
},
{
color = 5;
glyphname = "lamed-hebr";
lastChange = "2023-07-08 03:55:03 +0000";
layers = (
{
anchors = (
{
name = Anchor_1;
pos = (261,0);
},
{
name = dagesh;
pos = (201,90);
},
{
name = holam;
pos = (-33,0);
}
);
layerId = m001;
shapes = (
{
closed = 1;
nodes = (
(168,17,l),
(443,550,l),
(60,550,l),
(60,725,l),
(111,725,l),
(111,590,l),
(496,590,l),
(495,553,l),
(211,-8,l)
);
}
);
width = 556;
},
{
anchors = (
{
name = Anchor_1;
pos = (261,0);
},
{
name = dagesh;
pos = (118,57);
},
{
name = holam;
pos = (-33,0);
}
);
layerId = m003;
shapes = (
{
closed = 1;
nodes = (
(59,49,l),
(275,447,l),
(20,447,l),
(20,725,l),
(202,725,l),
(202,590,l),
(486,590,l),
(485,447,l),
(231,-12,l)
);
}
);
width = 506;
}
);
unicode = 1500;
},
{
color = 5;
glyphname = "finalmem-hebr";
lastChange = "2023-07-08 03:55:49 +0000";
layers = (
{
anchors = (
{
name = Anchor_1;
pos = (312,0);
},
{
name = dagesh;
pos = (303,0);
}
);
layerId = m001;
shapes = (
{
closed = 1;
nodes = (
(464,553,l),
(134,553,l),
(134,37,l),
(464,37,l)
);
},
{
closed = 1;
nodes = (
(85,0,l),
(85,590,l),
(513,590,l),
(513,0,l)
);
}
);
width = 603;
},
{
anchors = (
{
name = Anchor_1;
pos = (312,0);
},
{
name = dagesh;
pos = (319,3);
}
);
layerId = m003;
shapes = (
{
closed = 1;
nodes = (
(402,447,l),
(232,447,l),
(232,143,l),
(402,143,l)
);
},
{
closed = 1;
nodes = (
(50,0,l),
(50,590,l),
(584,590,l),
(584,0,l)
);
}
);
width = 634;
}
);
unicode = 1501;
},
{
color = 5;
glyphname = "mem-hebr";
lastChange = "2023-07-08 04:26:46 +0000";
layers = (
{
anchors = (
{
name = Anchor_1;
pos = (350,0);
},
{
name = dagesh;
pos = (386,0);
}
);
layerId = m001;
shapes = (
{
closed = 1;
nodes = (
(327,-9,o),
(294,-1,o),
(264,13,c),
(280,54,l),
(313,42,o),
(340,37,o),
(372,37,cs),
(506,37,o),
(523,161,o),
(523,289,cs),
(523,551,l),
(236,551,o),
(197,221,o),
(111,-11,c),
(64,4,l),
(163,289,o),
(212,590,o),
(522,590,cs),
(570,590,l),
(570,258,ls),
(570,64,o),
(494,-9,o),
(363,-9,cs)
);
},
{
closed = 1;
nodes = (
(55,579,l),
(101,598,l),
(233,413,l),
(215,355,l)
);
}
);
width = 654;
},
{
anchors = (
{
name = Anchor_1;
pos = (350,0);
},
{
name = dagesh;
pos = (374,-12);
}
);
layerId = m003;
shapes = (
{
closed = 1;
nodes = (
(365,-13,o),
(323,-7,o),
(294,4,c),
(327,153,l),
(348,149,o),
(366,147,o),
(381,147,cs),
(440,147,o),
(454,176,o),
(454,289,cs),
(454,445,l),
(296,445,o),
(238,127,o),
(203,-17,c),
(27,14,l),
(69,263,o),
(202,590,o),
(470,590,c),
(632,590,l),
(632,259,ls),
(632,73,o),
(542,-13,o),
(410,-13,cs)
);
},
{
closed = 1;
nodes = (
(9,557,l),
(163,614,l),
(258,470,l),
(190,267,l)
);
}
);
width = 676;
},
{
anchors = (
{
name = Anchor_1;
pos = (350,0);
},
{
name = dagesh;
pos = (374,-12);
}
);
associatedMasterId = m003;
layerId = "FCC064F0-9D35-4292-8296-D63F7946555B";
name = "Jul 7, 23, 20:55";
shapes = (
{
closed = 1;
nodes = (
(235,115,o),
(263,225,o),
(301,308,c),
(347,408,o),
(399,445,o),
(445,445,c),
(454,445,l),
(454,289,l),
(454,251,o),
(454,220,o),
(449,198,c),
(441,163,o),
(423,147,o),
(381,147,c),
(366,147,o),
(348,149,o),
(327,153,c),
(294,4,l),
(323,-7,o),
(365,-13,o),
(410,-13,cs),
(542,-13,o),
(636,73,o),
(636,259,c),
(636,366,l),
(636,441,o),
(632,525,o),
(632,590,c),
(470,590,l),
(320,590,o),
(232,494,o),
(185,425,c),
(107,309,o),
(52,162,o),
(27,14,c),
(203,-17,l)
);
},
{
closed = 1;
nodes = (
(9,557,l),
(163,614,l),
(258,470,l),
(190,267,l)
);
}
);
visible = 1;
width = 676;
},
{
anchors = (
{
name = Anchor_1;
pos = (350,0);
},
{
name = dagesh;
pos = (386,0);
}
);
associatedMasterId = m001;
layerId = "5C7ADC41-DE7C-456F-9A19-B7C73F6CF2DC";
name = "Jul 7, 23, 20:57";
shapes = (
{
closed = 1;
nodes = (
(327,-9,o),
(294,-1,o),
(264,13,c),
(280,54,l),
(313,42,o),
(340,37,o),
(372,37,cs),
(443,37,o),
(486,74,o),
(506,135,c),
(517,167,o),
(523,218,o),
(523,289,c),
(523,551,l),
(354,551,o),
(279,450,o),
(240,352,c),
(197,248,o),
(163,145,o),
(111,-11,c),
(64,4,l),
(118,158,o),
(165,305,o),
(215,405,c),
(266,505,o),
(362,590,o),
(522,590,c),
(570,590,l),
(572,533,o),
(572,469,o),
(572,403,c),
(572,258,l),
(572,64,o),
(494,-9,o),
(363,-9,cs)
);
},
{
closed = 1;
nodes = (
(55,579,l),
(101,598,l),
(233,413,l),
(215,355,l)
);
}
);
visible = 1;
width = 654;
}
);
unicode = 1502;
},
{
color = 5;
glyphname = "finalnun-hebr";
lastChange = "2023-07-08 04:27:19 +0000";
layers = (
{
anchors = (
{
name = Anchor_1;
pos = (111,375);
},
{
name = dagesh;
pos = (117,0);
}
);
layerId = m001;
shapes = (
{
closed = 1;
nodes = (
(195,-198,l),
(195,551,l),
(60,551,l),
(70,590,l),
(244,590,l),
(244,-179,l)
);
}
);
width = 334;
},
{
anchors = (
{
name = Anchor_1;
pos = (60,360);
},
{
name = dagesh;
pos = (48,-48);
}
);
layerId = m003;
shapes = (
{
closed = 1;
nodes = (
(123,-208,l),
(123,447,l),
(20,447,l),
(40,590,l),
(305,590,l),
(305,-172,l)
);
}
);
width = 355;
}
);
unicode = 1503;
},
{
color = 5;
glyphname = "nun-hebr";
lastChange = "2023-07-08 04:32:58 +0000";
layers = (
{
anchors = (
{
name = Anchor_1;
pos = (220,0);
},
{
name = dagesh;
pos = (160,0);
}
);
layerId = m001;
shapes = (
{
closed = 1;
nodes = (
(60,0,l),
(60,39,l),
(284,39,l),
(284,399,ls),
(284,505,o),
(257,553,o),
(171,553,cs),
(145,553,o),
(117,548,o),
(87,539,c),
(77,575,l),
(106,587,o),
(137,593,o),
(171,593,cs),
(275,593,o),
(333,536,o),
(333,420,cs),
(333,0,l)
);
}
);
width = 418;
},
{
anchors = (
{
name = Anchor_1;
pos = (220,0);
},
{
name = dagesh;
pos = (99,0);
}
);
layerId = m003;
shapes = (
{
closed = 1;
nodes = (
(25,0,l),
(25,143,l),
(185,143,l),
(185,368,ls),
(185,421,o),
(160,441,o),
(118,441,cs),
(95,441,o),
(72,437,o),
(47,429,c),
(20,572,l),
(65,586,o),
(115,593,o),
(161,593,cs),
(302,593,o),
(363,520,o),
(363,400,cs),
(363,0,l)
);
}
);
width = 408;
},
{
anchors = (
{
name = Anchor_1;
pos = (220,0);
},
{
name = dagesh;
pos = (99,0);
}
);
associatedMasterId = m003;
layerId = "86EF9B81-A823-460D-8655-50440CDB7AEC";
name = "Jul 7, 23, 21:27";
shapes = (
{
closed = 1;
nodes = (
(25,0,l),
(25,143,l),
(185,143,l),
(185,368,l),
(182,421,o),
(160,441,o),
(118,441,cs),
(95,441,o),
(72,437,o),
(47,429,c),
(20,572,l),
(65,586,o),
(115,594,o),
(161,593,c),
(302,590,o),
(363,520,o),
(363,400,c),
(363,0,l)
);
}
);
visible = 1;
width = 408;
}
);
unicode = 1504;
},
{
color = 5;
glyphname = "samekh-hebr";
lastChange = "2023-07-08 04:32:58 +0000";
layers = (
{
anchors = (
{
name = Anchor_1;
pos = (327,0);
},
{
name = dagesh;
pos = (309,0);
}
);
layerId = m001;
shapes = (
{
closed = 1;
nodes = (
(416,25,o),
(505,95,o),
(505,290,cs),
(505,499,o),
(425,553,o),
(255,553,cs),
(216,553,o),
(184,551,o),
(134,544,c),
(134,266,ls),
(134,89,o),
(220,31,o),
(316,28,cs)
);
},
{
closed = 1;
nodes = (
(117,-10,o),
(85,154,o),
(85,284,cs),
(85,581,l),
(130,587,o),
(191,596,o),
(258,596,cs),
(479,596,o),
(554,514,o),
(554,290,cs),
(554,102,o),
(479,-16,o),
(312,-13,cs)
);
}
);
width = 617;
},
{
anchors = (
{
name = Anchor_1;
pos = (327,0);
},
{
name = dagesh;
pos = (316,15);
}
);
layerId = m003;
shapes = (
{
closed = 1;
nodes = (
(379,150,o),
(408,175,o),
(408,300,cs),
(408,401,o),
(384,442,o),
(295,442,cs),
(272,442,o),
(250,442,o),
(227,442,c),
(227,275,ls),
(227,163,o),
(275,150,o),
(314,150,cs)
);
},
{
closed = 1;
nodes = (
(53,-11,o),
(45,216,o),
(45,290,cs),
(45,574,l),
(111,586,o),
(183,595,o),
(298,595,cs),
(534,595,o),
(588,494,o),
(588,300,cs),
(588,80,o),
(478,-11,o),
(318,-11,cs)
);
}
);
width = 618;
},
{
anchors = (
{
name = Anchor_1;
pos = (327,0);
},
{
name = dagesh;
pos = (309,0);
}
);
associatedMasterId = m001;
layerId = "5B57FAD4-E8A3-4E57-AC2F-11387F7BFB7C";
name = "Jul 7, 23, 21:30";
shapes = (
{
closed = 1;
nodes = (
(416,25,o),
(505,95,o),
(505,290,c),
(505,510,o),
(405,544,o),
(316,550,c),
(255,555,o),
(184,551,o),
(134,544,c),
(134,266,ls),
(134,89,o),
(220,31,o),
(316,28,c)
);
},
{
closed = 1;
nodes = (
(117,-10,o),
(85,154,o),
(85,284,cs),
(85,581,l),
(130,587,o),
(207,600,o),
(310,593,c),
(469,583,o),
(554,514,o),
(554,290,c),
(554,102,o),
(479,-16,o),
(312,-13,c)
);
}
);
visible = 1;
width = 617;
},
{
anchors = (
{
name = Anchor_1;
pos = (327,0);
},
{
name = dagesh;
pos = (316,15);
}
);
associatedMasterId = m003;
layerId = "A70D5772-E391-4D18-BB65-CC06130CFBE0";
name = "Jul 7, 23, 21:30";
shapes = (
{
closed = 1;
nodes = (
(379,150,o),
(408,175,o),
(408,300,cs),
(408,401,o),
(384,442,o),
(295,442,cs),
(227,442,l),
(227,275,ls),
(227,163,o),
(275,150,o),
(314,150,cs)
);
},
{
closed = 1;
nodes = (
(53,-11,o),
(45,216,o),
(45,290,cs),
(45,574,l),
(111,586,o),
(183,595,o),
(298,595,cs),
(534,595,o),
(588,494,o),
(588,300,cs),
(588,80,o),
(478,-11,o),
(318,-11,cs)
);
}
);
width = 618;
}
);
unicode = 1505;
},
{
color = 5;
glyphname = "ayin-hebr";
lastChange = "2023-07-08 04:36:09 +0000";
layers = (
{
anchors = (
{
name = Anchor_1;
pos = (303,0);
},
{
name = dagesh;
pos = (321,0);
}
);
layerId = m001;
shapes = (
{
closed = 1;
nodes = (
(178,-13,o),
(100,0,o),
(50,16,c),
(63,57,l),
(125,40,o),
(184,28,o),
(247,28,cs),
(389,28,o),
(452,86,o),
(452,289,cs),
(452,590,l),
(501,590,l),
(501,290,ls),
(501,142,o),
(468,-13,o),
(247,-13,cs)
);
},
{
closed = 1;
nodes = (
(225,18,l),
(78,585,l),
(126,597,l),
(270,26,l)
);
}
);
width = 586;
},
{
anchors = (
{
name = Anchor_1;
pos = (303,0);
},
{
name = dagesh;
pos = (326,69);
}
);
layerId = m003;
shapes = (
{
closed = 1;
nodes = (
(138,-13,o),
(69,-4,o),
(10,13,c),
(31,169,l),
(88,155,o),
(142,148,o),
(201,148,cs),
(351,148,o),
(385,208,o),
(385,340,cs),
(385,590,l),
(567,590,l),
(567,323,ls),
(567,80,o),
(426,-13,o),
(233,-13,cs)
);
},
{
closed = 1;
nodes = (
(182,61,l),
(29,576,l),
(208,602,l),
(343,62,l)
);
}
);
width = 612;
},
{
anchors = (
{
name = Anchor_1;
pos = (303,0);
},
{
name = dagesh;
pos = (326,69);
}
);
associatedMasterId = m003;
layerId = "AC97674A-D23B-43F7-BF31-7CDCFC8C7AD0";
name = "Jul 7, 23, 21:33";
shapes = (
{
closed = 1;
nodes = (
(426,-12,o),
(567,80,o),
(567,323,c),
(567,590,l),
(385,590,l),
(385,340,l),
(385,208,o),
(351,148,o),
(201,148,c),
(142,148,o),
(88,155,o),
(31,169,c),
(10,13,l),
(69,-4,o),
(138,-13,o),
(233,-13,c)
);
},
{
closed = 1;
nodes = (
(29,576,l),
(208,602,l),
(343,62,l),
(182,61,l)
);
}
);
width = 612;
},
{
anchors = (
{
name = Anchor_1;
pos = (303,0);
},
{
name = dagesh;
pos = (321,0);
}
);
associatedMasterId = m001;
layerId = "82858D8C-3377-4B37-AC1E-F98FDE2A0A49";
name = "Jul 7, 23, 21:33";
shapes = (
{
closed = 1;
nodes = (
(468,-12,o),
(501,142,o),
(501,290,c),
(501,590,l),
(452,590,l),
(452,289,l),
(452,86,o),
(389,28,o),
(247,28,c),
(184,28,o),
(125,40,o),
(63,57,c),
(50,16,l),
(100,0,o),
(178,-13,o),
(247,-13,c)
);
},
{
closed = 1;
nodes = (
(78,585,l),
(126,597,l),
(270,26,l),
(225,18,l)
);
}
);
width = 586;
}
);
unicode = 1506;
},
{
color = 5;
glyphname = "finalpe-hebr";
lastChange = "2023-07-08 04:37:13 +0000";
layers = (
{
anchors = (
{
name = Anchor_1;
pos = (336,336);
},
{
name = dagesh;
pos = (315,0);
}
);
layerId = m001;
shapes = (
{
closed = 1;
nodes = (
(461,-198,l),
(461,320,ls),
(461,470,o),
(407,545,o),
(298,551,cs),
(221,556,o),
(146,550,o),
(124,548,c),
(115,364,ls),
(113,316,o),
(132,283,o),
(214,226,c),
(192,191,l),
(102,239,o),
(62,290,o),
(65,352,cs),
(75,581,l),
(130,589,o),
(183,595,o),
(244,595,cs),
(411,595,o),
(510,551,o),
(510,316,cs),
(510,-179,l)
);
}
);
width = 595;
},
{
anchors = (
{
name = Anchor_1;
pos = (312,336);
},
{
name = dagesh;
pos = (311,-66);
}
);
layerId = m003;
shapes = (
{
closed = 1;
nodes = (
(378,-208,l),
(378,334,ls),
(378,406,o),
(355,444,o),
(295,443,cs),
(262,442,o),
(234,443,o),
(220,443,c),
(220,405,ls),
(220,357,o),
(226,322,o),
(272,280,c),
(174,174,l),
(83,230,o),
(38,286,o),
(42,368,cs),
(52,581,l),
(118,590,o),
(202,598,o),
(288,595,cs),
(451,589,o),
(560,525,o),
(560,322,cs),
(560,-172,l)
);
}
);
width = 605;
}
);
unicode = 1507;
},
{
color = 5;
glyphname = "pe-hebr";
lastChange = "2023-07-08 04:40:00 +0000";
layers = (
{
anchors = (
{
name = Anchor_1;
pos = (314,0);
},
{
name = dagesh;
pos = (320,0);
}
);
layerId = m001;
shapes = (
{
closed = 1;
nodes = (
(179,-13,o),
(115,-1,o),
(65,23,c),
(84,64,l),
(140,40,o),
(199,29,o),
(261,29,cs),
(421,29,o),
(469,131,o),
(469,318,cs),
(469,488,o),
(412,554,o),
(248,554,cs),
(211,554,o),
(190,553,o),
(133,548,c),
(123,364,ls),
(121,320,o),
(140,284,o),
(203,237,c),
(181,202,l),
(108,240,o),
(70,293,o),
(73,352,cs),
(83,581,l),
(140,590,o),
(197,595,o),
(253,595,cs),
(413,595,o),
(518,551,o),
(518,316,cs),
(518,87,o),
(445,-13,o),
(252,-13,cs)
);
}
);
width = 581;
},
{
anchors = (
{
name = Anchor_1;
pos = (314,0);
},
{
name = dagesh;
pos = (288,-57);
}
);
layerId = m003;
shapes = (
{
closed = 1;
nodes = (
(144,-13,o),
(64,6,o),
(30,22,c),
(51,170,l),
(116,152,o),
(158,143,o),
(217,143,cs),
(345,143,o),
(370,198,o),
(370,307,cs),
(370,415,o),
(340,448,o),
(278,448,cs),
(258,448,o),
(237,448,o),
(213,447,c),
(211,412,ls),
(209,372,o),
(217,342,o),
(251,293,c),
(160,195,l),
(64,255,o),
(23,305,o),
(33,414,cs),
(48,575,l),
(108,590,o),
(185,597,o),
(279,597,cs),
(452,597,o),
(552,517,o),
(552,291,cs),
(552,98,o),
(465,-13,o),
(242,-13,cs)
);
}
);
width = 582;
},
{
anchors = (
{
name = Anchor_1;
pos = (314,0);
},
{
name = dagesh;
pos = (320,0);
}
);
associatedMasterId = m001;
layerId = "5D725D3B-CEC9-46F3-A17F-01C479F80369";
name = "Jul 7, 23, 21:37";
shapes = (
{
closed = 1;
nodes = (
(445,-13,o),
(518,87,o),
(518,316,c),
(518,551,o),
(413,595,o),
(253,595,c),
(197,595,o),
(140,590,o),
(83,581,c),
(73,352,l),
(73,293,o),
(108,240,o),
(181,202,c),
(203,237,l),
(140,284,o),
(123,320,o),
(123,364,c),
(133,548,l),
(190,554,o),
(251,555,o),
(296,552,c),
(410,545,o),
(469,477,o),
(469,318,c),
(469,131,o),
(421,29,o),
(261,29,c),
(199,29,o),
(140,40,o),
(84,64,c),
(65,23,l),
(115,-1,o),
(179,-13,o),
(252,-13,c)
);
}
);
visible = 1;
width = 581;
},
{
anchors = (
{
name = Anchor_1;
pos = (314,0);
},
{
name = dagesh;
pos = (288,-57);
}
);
associatedMasterId = m003;
layerId = "5C70D3C6-15EF-48D3-84CE-FB29936C9546";
name = "Jul 7, 23, 21:37";
shapes = (
{
closed = 1;
nodes = (
(465,-13,o),
(552,98,o),
(552,291,c),
(552,517,o),
(452,595,o),
(279,597,c),
(185,597,o),
(108,590,o),
(48,575,c),
(33,414,l),
(24,305,o),
(64,255,o),
(160,195,c),
(251,293,l),
(217,342,o),
(211,372,o),
(211,412,c),
(213,447,l),
(237,448,o),
(258,448,o),
(278,448,c),
(340,448,o),
(370,415,o),
(370,307,c),
(370,198,o),
(345,138,o),
(217,143,c),
(154,146,o),
(116,152,o),
(51,170,c),
(30,22,l),
(64,6,o),
(144,-13,o),
(242,-13,c)
);
}
);
width = 582;
}
);
unicode = 1508;
},
{
color = 5;
glyphname = "finaltsadi-hebr";
lastChange = "2023-07-08 04:42:29 +0000";
layers = (
{
anchors = (
{
name = Anchor_1;
pos = (175,252);
},
{
name = dagesh;
pos = (295,153);
}
);
layerId = m001;
shapes = (
{
closed = 1;
nodes = (
(441,-211,l),
(50,582,l),
(94,602,l),
(484,-187,l)
);
},
{
closed = 1;
nodes = (
(271,188,l),
(488,604,l),
(527,577,l),
(302,154,l)
);
}
);
width = 565;
},
{
anchors = (
{
name = Anchor_1;
pos = (170,252);
},
{
name = dagesh;
pos = (281,231);
}
);
layerId = m003;
shapes = (
{
closed = 1;
nodes = (
(417,-229,l),
(0,557,l),
(158,610,l),
(561,-147,l)
);
},
{
closed = 1;
nodes = (
(238,366,l),
(462,621,l),
(581,509,l),
(350,233,l)
);
}
);
width = 589;
},
{
anchors = (
{
name = Anchor_1;
pos = (175,252);
},
{
name = dagesh;
pos = (295,153);
}
);
associatedMasterId = m001;
layerId = "C1ABFB15-D822-4B92-B824-BCF1C87565EE";
name = "Jul 7, 23, 21:40";
shapes = (
{
closed = 1;
nodes = (
(441,-211,l),
(484,-187,l),
(94,602,l),
(50,582,l)
);
},
{
closed = 1;
nodes = (
(527,577,l),
(488,604,l),
(271,188,l),
(302,154,l)
);
}
);
width = 565;
},
{
anchors = (
{
name = Anchor_1;
pos = (170,252);
},
{
name = dagesh;
pos = (281,231);
}
);
associatedMasterId = m003;
layerId = "53FD6DC7-7870-4EA6-814A-6BF8D085E75B";
name = "Jul 7, 23, 21:40";
shapes = (
{
closed = 1;
nodes = (
(417,-229,l),
(561,-147,l),
(158,610,l),
(0,557,l)
);
},
{
closed = 1;
nodes = (
(581,509,l),
(462,621,l),
(238,366,l),
(350,233,l)
);
}
);
width = 589;
}
);
unicode = 1509;
},
{
color = 5;
glyphname = "tsadi-hebr";
lastChange = "2023-07-08 04:42:29 +0000";
layers = (
{
anchors = (
{
name = Anchor_1;
pos = (300,0);
},
{
name = dagesh;
pos = (189,-99);
}
);
layerId = m001;
shapes = (
{
closed = 1;
nodes = (
(75,0,l),
(75,39,l),
(444,39,l),
(45,586,l),
(91,603,l),
(498,39,l),
(485,0,l)
);
},
{
closed = 1;
nodes = (
(306,257,l),
(488,604,l),
(526,579,l),
(336,219,l)
);
}
);
width = 570;
},
{
anchors = (
{
name = Anchor_1;
pos = (300,0);
},
{
name = dagesh;
pos = (162,-75);
}
);
layerId = m003;
shapes = (
{
closed = 1;
nodes = (
(45,0,l),
(45,143,l),
(310,143,l),
(5,557,l),
(158,619,l),
(520,143,l),
(495,0,l)
);
},
{
closed = 1;
nodes = (
(271,372,l),
(467,618,l),
(581,503,l),
(378,259,l)
);
}
);
width = 585;
},
{
anchors = (
{
name = Anchor_1;
pos = (300,0);
},
{
name = dagesh;
pos = (189,-99);
}
);
associatedMasterId = m001;
layerId = "74B13810-4BCA-46A1-920F-04FD0F2714F2";
name = "Jul 7, 23, 21:41";
shapes = (
{
closed = 1;
nodes = (
(91,603,l),
(45,586,l),
(444,39,l),
(75,39,l),
(75,0,l),
(485,0,l),
(498,39,l)
);
},
{
closed = 1;
nodes = (
(526,579,l),
(488,604,l),
(306,257,l),
(336,219,l)
);
}
);
width = 570;
},
{
anchors = (
{
name = Anchor_1;
pos = (300,0);
},
{
name = dagesh;
pos = (162,-75);
}
);
associatedMasterId = m003;
layerId = "6CADA5F7-5B48-4F6A-8CA9-53B5A96ADDE3";
name = "Jul 7, 23, 21:41";
shapes = (
{
closed = 1;
nodes = (
(158,619,l),
(5,557,l),
(310,143,l),
(45,143,l),
(45,0,l),
(495,0,l),
(520,143,l)
);
},
{
closed = 1;
nodes = (
(581,503,l),
(467,618,l),
(271,372,l),
(378,259,l)
);
}
);
width = 585;
}
);
unicode = 1510;
},
{
color = 5;
glyphname = "qof-hebr";
lastChange = "2023-07-08 04:43:07 +0000";
layers = (
{
anchors = (
{
name = Anchor_1;
pos = (356,0);
},
{
name = dagesh;
pos = (281,0);
}
);
layerId = m001;
shapes = (
{
closed = 1;
nodes = (
(317,6,l),
(490,551,l),
(65,551,l),
(74,590,l),
(529,590,l),
(534,540,l),
(364,-12,l)
);
},
{
closed = 1;
nodes = (
(117,-198,l),
(117,372,l),
(166,397,l),
(166,-179,l)
);
}
);
width = 599;
},
{
anchors = (
{
name = Anchor_1;
pos = (380,0);
},
{
name = dagesh;
pos = (295,39);
}
);
layerId = m003;
shapes = (
{
closed = 1;
nodes = (
(264,71,l),
(396,447,l),
(25,447,l),
(43,590,l),
(582,590,l),
(581,447,l),
(427,-12,l)
);
},
{
closed = 1;
nodes = (
(53,-208,l),
(53,342,l),
(235,367,l),
(235,-172,l)
);
}
);
width = 607;
}
);
unicode = 1511;
},
{
color = 5;
glyphname = "resh-hebr";
lastChange = "2023-07-08 04:48:22 +0000";
layers = (
{
anchors = (
{
name = Anchor_1;
pos = (399,0);
},
{
name = dagesh;
pos = (225,0);
}
);
layerId = m001;
shapes = (
{
closed = 1;
nodes = (
(411,0,l),
(411,329,ls),
(411,456,o),
(374,553,o),
(231,553,cs),
(200,553,o),
(139,550,o),
(79,533,c),
(65,572,l),
(113,585,o),
(169,593,o),
(223,593,cs),
(380,593,o),
(460,522,o),
(460,338,cs),
(460,0,l)
);
}
);
width = 540;
},
{
anchors = (
{
name = Anchor_1;
pos = (399,0);
},
{
name = dagesh;
pos = (192,-21);
}
);
layerId = m003;
shapes = (
{
closed = 1;
nodes = (
(310,0,l),
(310,319,ls),
(310,406,o),
(289,444,o),
(203,444,cs),
(159,444,o),
(107,437,o),
(49,428,c),
(26,572,l),
(67,582,o),
(136,595,o),
(226,595,cs),
(427,595,o),
(492,497,o),
(492,391,cs),
(492,0,l)
);
}
);
width = 532;
},
{
anchors = (
{
name = Anchor_1;
pos = (399,0);
},
{
name = dagesh;
pos = (225,0);
}
);
associatedMasterId = m001;
layerId = "C57230F9-DDB4-4E28-9C35-2D4E0CC7E97B";
name = "Jul 7, 23, 21:44";
shapes = (
{
closed = 1;
nodes = (
(411,0,l),
(411,329,ls),
(411,456,o),
(374,548,o),
(231,553,cs),
(200,554,o),
(139,550,o),
(79,533,c),
(65,572,l),
(113,585,o),
(169,593,o),
(223,593,cs),
(380,593,o),
(460,522,o),
(460,338,cs),
(460,0,l)
);
}
);
width = 540;
}
);
unicode = 1512;
},
{
color = 5;
glyphname = "shin-hebr";
lastChange = "2023-07-08 04:48:22 +0000";
layers = (
{
anchors = (
{
name = Anchor_1;
pos = (363,0);
},
{
name = dagesh;
pos = (477,-24);
},
{
name = "shin - liga";
pos = (600,0);
},
{
name = sin;
pos = (108,0);
}
);
layerId = m001;
shapes = (
{
closed = 1;
nodes = (
(332,183,l),
(332,590,l),
(381,590,l),
(381,199,l)
);
},
{
closed = 1;
nodes = (
(164,-13,o),
(85,96,o),
(85,275,cs),
(85,590,l),
(134,590,l),
(134,270,ls),
(134,113,o),
(208,30,o),
(356,30,cs),
(504,30,o),
(578,113,o),
(578,270,cs),
(578,590,l),
(627,590,l),
(627,275,ls),
(627,96,o),
(548,-13,o),
(356,-13,cs)
);
}
);
width = 712;
},
{
anchors = (
{
name = Anchor_1;
pos = (396,0);
},
{
name = dagesh;
pos = (459,-69);
},
{
name = "shin - liga";
pos = (651,0);
},
{
name = sin;
pos = (135,0);
}
);
layerId = m003;
shapes = (
{
closed = 1;
nodes = (
(312,250,l),
(312,590,l),
(486,590,l),
(486,290,l)
);
},
{
closed = 1;
nodes = (
(166,-13,o),
(45,99,o),
(45,290,cs),
(45,590,l),
(223,590,l),
(223,300,ls),
(223,207,o),
(261,148,o),
(395,148,cs),
(529,148,o),
(565,217,o),
(565,300,cs),
(565,590,l),
(744,590,l),
(744,290,ls),
(744,99,o),
(625,-13,o),
(395,-13,cs)
);
}
);
width = 789;
}
);
unicode = 1513;
},
{
color = 5;
glyphname = "tav-hebr";
lastChange = "2023-07-08 04:50:23 +0000";
layers = (
{
anchors = (
{
name = Anchor_1;
pos = (362,0);
},
{
name = dagesh;
pos = (365,0);
}
);
layerId = m001;
shapes = (
{
closed = 1;
nodes = (
(514,0,l),
(514,551,l),
(232,551,l),
(232,189,ls),
(232,67,o),
(185,-7,o),
(85,-7,cs),
(58,-7,o),
(42,-5,o),
(28,-1,c),
(32,45,l),
(49,41,o),
(64,39,o),
(78,39,cs),
(144,39,o),
(183,77,o),
(183,177,cs),
(183,551,l),
(63,551,l),
(73,590,l),
(563,590,l),
(563,0,l)
);
}
);
width = 653;
},
{
anchors = (
{
name = Anchor_1;
pos = (362,0);
},
{
name = dagesh;
pos = (363,0);
}
);
layerId = m003;
shapes = (
{
closed = 1;
nodes = (
(438,0,l),
(438,447,l),
(292,447,l),
(292,209,ls),
(292,65,o),
(239,-7,o),
(107,-7,cs),
(65,-7,o),
(35,-4,o),
(7,2,c),
(12,152,l),
(32,149,o),
(46,148,o),
(56,148,cs),
(100,148,o),
(113,167,o),
(113,199,cs),
(113,447,l),
(24,447,l),
(44,590,l),
(620,590,l),
(620,0,l)
);
}
);
width = 670;
},
{
anchors = (
{
name = Anchor_1;
pos = (362,0);
},
{
name = dagesh;
pos = (365,0);
}
);
associatedMasterId = m001;
layerId = "1B23A24A-9DBE-4BA7-9C77-824193B9CF60";
name = "Jul 7, 23, 21:48";
shapes = (
{
closed = 1;
nodes = (
(514,0,l),
(514,551,l),
(232,551,l),
(232,189,l),
(232,67,o),
(185,-6,o),
(85,-7,c),
(58,-7,o),
(42,-5,o),
(28,-1,c),
(32,45,l),
(49,41,o),
(64,39,o),
(78,39,c),
(144,39,o),
(183,77,o),
(183,177,c),
(183,551,l),
(63,551,l),
(73,590,l),
(563,590,l),
(563,0,l)
);
}
);
visible = 1;
width = 653;
},
{
anchors = (
{
name = Anchor_1;
pos = (362,0);
},
{
name = dagesh;
pos = (363,0);
}
);
associatedMasterId = m003;
layerId = "FBE1451E-4DB2-45A8-BB70-2D5574675A45";
name = "Jul 7, 23, 21:48";
shapes = (
{
closed = 1;
nodes = (
(65,-8,o),
(35,-4,o),
(7,2,c),
(12,152,l),
(32,149,o),
(47,148,o),
(56,148,c),
(100,148,o),
(111,167,o),
(113,199,c),
(113,447,l),
(24,447,l),
(44,590,l),
(620,590,l),
(620,0,l),
(438,0,l),
(438,447,l),
(292,447,l),
(292,209,l),
(292,65,o),
(239,-5,o),
(107,-7,c)
);
}
);
width = 670;
}
);
unicode = 1514;
},
{
color = 5;
glyphname = "aleflamed-hebr";
lastChange = "2023-07-08 04:56:16 +0000";
layers = (
{
anchors = (
{
name = Anchor_1_ligComponent_0;
pos = (297,0);
},
{
name = dagesh_ligComponent_0;
pos = (339,249);
}
);
layerId = m001;
shapes = (
{
closed = 1;
nodes = (
(332,257,l),
(514,604,l),
(550,575,l),
(363,219,l)
);
},
{
closed = 1;
nodes = (
(493,0,l),
(26,579,l),
(27,591,l),
(180,741,l),
(214,707,l),
(82,581,l),
(555,0,l)
);
}
);
width = 587;
},
{
anchors = (
{
name = Anchor_1_ligComponent_0;
pos = (297,0);
},
{
name = dagesh_ligComponent_0;
pos = (339,249);
}
);
layerId = m003;
shapes = (
{
closed = 1;
nodes = (
(312,371,l),
(508,615,l),
(622,503,l),
(419,259,l)
);
},
{
closed = 1;
nodes = (
(415,0,l),
(14,579,l),
(15,591,l),
(182,754,l),
(300,654,l),
(219,576,l),
(620,0,l)
);
}
);
width = 637;
}
);
unicode = 64335;
},
{
glyphname = "a-tml2";
layers = (
{
layerId = m001;
shapes = (
{
closed = 1;
nodes = (
(955,513,l),
(911,513,l),
(911,-126,l),
(955,-126,l)
);
},
{
closed = 1;
nodes = (
(405,531,o),
(301,479,o),
(241,390,o),
(241,332,q),
(241,283,o),
(308,217,o),
(360,216,q),
(414,215,o),
(484,279,o),
(485,329,q),
(486,377,o),
(415,441,o),
(361,441,q),
(332,441,o),
(282,412,o),
(253,362,o),
(253,329,q),
(280,329,l),
(280,362,o),
(327,404,o),
(361,404,q),
(396,404,o),
(441,362,o),
(441,329,q),
(441,295,o),
(395,253,o),
(360,254,q),
(326,256,o),
(280,298,o),
(280,329,q),
(280,378,o),
(329,449,o),
(416,489,o),
(471,489,q),
(542,489,o),
(642,423,o),
(696,306,o),
(696,230,q),
(696,133,o),
(601,-17,o),
(435,-102,o),
(327,-102,q),
(257,-102,o),
(149,-68,o),
(88,-8,o),
(88,32,q),
(88,58,o),
(116,90,o),
(150,90,q),
(911,90,l),
(911,125,l),
(146,125,l),
(94,125,o),
(40,73,o),
(40,32,q),
(40,-18,o),
(114,-98,o),
(244,-144,o),
(327,-144,q),
(418,-144,o),
(570,-89,o),
(682,12,o),
(744,149,o),
(744,230,q),
(744,317,o),
(678,453,o),
(555,531,o),
(471,531,q)
);
}
);
width = 1055;
},
{
layerId = m003;
shapes = (
{
closed = 1;
nodes = (
(1051,513,l),
(887,513,l),
(887,-126,l),
(1051,-126,l)
);
},
{
closed = 1;
nodes = (
(364,531,o),
(247,480,o),
(180,392,o),
(180,335,q),
(180,273,o),
(266,192,o),
(332,191,q),
(394,190,o),
(475,270,o),
(476,331,q),
(477,386,o),
(398,456,o),
(337,456,q),
(303,456,o),
(250,423,o),
(220,366,o),
(220,329,q),
(300,329,l),
(300,343,o),
(319,359,o),
(333,359,q),
(347,359,o),
(364,343,o),
(364,329,q),
(364,316,o),
(346,297,o),
(332,297,q),
(318,297,o),
(300,316,o),
(300,329,q),
(300,352,o),
(336,382,o),
(400,397,o),
(440,397,q),
(481,397,o),
(544,356,o),
(580,279,o),
(580,224,q),
(580,149,o),
(524,46,o),
(402,-6,o),
(303,-6,q),
(261,-6,o),
(207,2,o),
(182,16,o),
(182,23,q),
(182,33,o),
(196,41,o),
(212,41,q),
(887,41,l),
(887,169,l),
(192,169,l),
(111,169,o),
(25,91,o),
(25,29,q),
(25,-20,o),
(91,-99,o),
(215,-144,o),
(303,-144,q),
(407,-144,o),
(573,-87,o),
(690,14,o),
(752,148,o),
(752,224,q),
(752,313,o),
(669,452,o),
(527,531,o),
(438,531,q)
);
}
);
width = 1136;
}
);
unicode = 2949;
},
{
glyphname = "aa-tml2";
layers = (
{
layerId = m001;
shapes = (
{
closed = 1;
nodes = (
(150,90,l),
(116,90,o),
(88,58,o),
(88,32,q),
(88,-8,o),
(149,-68,o),
(257,-102,o),
(327,-102,q),
(435,-102,o),
(601,-17,o),
(696,133,o),
(696,230,q),
(696,306,o),
(642,423,o),
(542,489,o),
(471,489,q),
(416,489,o),
(329,449,o),
(280,378,o),
(280,329,q),
(280,298,o),
(326,256,o),
(360,254,q),
(395,253,o),
(441,295,o),
(441,329,q),
(441,362,o),
(396,404,o),
(361,404,q),
(327,404,o),
(280,362,o),
(280,329,q),
(253,329,l),
(253,362,o),
(282,412,o),
(332,441,o),
(361,441,q),
(415,441,o),
(486,377,o),
(485,329,q),
(484,279,o),
(414,215,o),
(360,216,q),
(308,217,o),
(241,283,o),
(241,332,q),
(241,390,o),
(301,479,o),
(405,531,o),
(471,531,q),
(555,531,o),
(678,453,o),
(744,317,o),
(744,230,q),
(744,149,o),
(682,12,o),
(570,-89,o),
(418,-144,o),
(327,-144,q),
(244,-144,o),
(114,-98,o),
(40,-18,o),
(40,32,q),
(40,73,o),
(94,125,o),
(146,125,q),
(931,125,l),
(931,90,l)
);
},
{
closed = 1;
nodes = (
(1132,84,o),
(1201,39,o),
(1238,-38,o),
(1238,-86,q),
(1238,-150,o),
(1185,-257,o),
(1088,-335,o),
(959,-377,o),
(882,-377,q),
(820,-377,o),
(722,-343,o),
(667,-282,o),
(667,-244,q),
(667,-198,o),
(735,-138,o),
(787,-138,q),
(808,-138,l),
(808,-173,l),
(787,-173,l),
(754,-173,o),
(715,-213,o),
(715,-244,q),
(715,-285,o),
(808,-335,o),
(882,-335,q),
(972,-335,o),
(1111,-272,o),
(1190,-158,o),
(1190,-84,q),
(1190,-31,o),
(1133,41,o),
(1080,41,q),
(1026,41,o),
(955,-35,o),
(955,-94,q),
(955,-126,l),
(911,-126,l),
(911,513,l),
(955,513,l),
(955,23,l),
(978,52,o),
(1043,84,o),
(1083,84,q)
);
}
);
width = 1248;
},
{
layerId = m003;
shapes = (
{
closed = 1;
nodes = (
(212,41,l),
(196,41,o),
(182,33,o),
(182,23,q),
(182,16,o),
(207,2,o),
(261,-6,o),
(303,-6,q),
(402,-6,o),
(524,46,o),
(580,149,o),
(580,224,q),
(580,279,o),
(544,356,o),
(481,397,o),
(440,397,q),
(400,397,o),
(336,382,o),
(300,352,o),
(300,329,q),
(300,316,o),
(318,297,o),
(332,297,q),
(346,297,o),
(364,316,o),
(364,329,q),
(364,343,o),
(347,359,o),
(333,359,q),
(319,359,o),
(300,343,o),
(300,329,q),
(220,329,l),
(220,366,o),
(250,423,o),
(303,456,o),
(337,456,q),
(398,456,o),
(477,386,o),
(476,331,q),
(475,270,o),
(394,190,o),
(332,191,q),
(266,192,o),
(180,273,o),
(180,335,q),
(180,392,o),
(247,480,o),
(364,531,o),
(438,531,q),
(527,531,o),
(669,452,o),
(752,313,o),
(752,224,q),
(752,148,o),
(690,14,o),
(573,-87,o),
(407,-144,o),
(303,-144,q),
(215,-144,o),
(91,-99,o),
(25,-20,o),
(25,29,q),
(25,91,o),
(111,169,o),
(192,169,q),
(947,169,l),
(947,41,l)
);
},
{
closed = 1;
nodes = (
(1204,120,o),
(1288,66,o),
(1331,-21,o),
(1331,-71,q),
(1331,-137,o),
(1266,-249,o),
(1146,-332,o),
(980,-377,o),
(878,-377,q),
(788,-377,o),
(667,-328,o),
(606,-245,o),
(606,-194,q),
(606,-131,o),
(707,-44,o),
(795,-44,q),
(816,-44,l),
(816,-173,l),
(795,-173,l),
(782,-173,o),
(762,-185,o),
(762,-199,q),
(762,-215,o),
(809,-239,o),
(869,-239,q),
(966,-239,o),
(1094,-203,o),
(1159,-131,o),
(1159,-77,q),
(1159,-51,o),
(1130,-18,o),
(1109,-18,q),
(1082,-18,o),
(1051,-53,o),
(1051,-80,q),
(1051,-126,l),
(887,-126,l),
(887,513,l),
(1051,513,l),
(1051,99,l),
(1071,109,o),
(1115,120,o),
(1140,120,q)
);
}
);
width = 1341;
}
);
unicode = 2950;
},
{
glyphname = "i-tml2";
layers = (
{
layerId = m001;
shapes = (
{
closed = 1;
nodes = (
(428,531,o),
(332,479,o),
(278,390,o),
(278,332,q),
(278,283,o),
(345,217,o),
(397,216,q),
(451,215,o),
(521,279,o),
(522,329,q),
(523,377,o),
(452,441,o),
(398,441,q),
(369,441,o),
(319,412,o),
(290,362,o),
(290,329,q),
(317,329,l),
(317,362,o),
(364,404,o),
(398,404,q),
(433,404,o),
(478,362,o),
(478,329,q),
(478,295,o),
(432,253,o),
(397,254,q),
(363,256,o),
(317,298,o),
(317,329,q),
(317,402,o),
(414,489,o),
(490,489,q),
(578,489,o),
(661,394,o),
(661,320,q),
(661,263,o),
(603,134,o),
(505,8,o),
(381,-94,o),
(247,-156,o),
(183,-156,q),
(133,-156,o),
(88,-123,o),
(88,-95,q),
(88,-50,o),
(146,25,o),
(246,80,o),
(374,110,o),
(444,110,q),
(505,110,o),
(616,80,o),
(704,25,o),
(755,-50,o),
(755,-95,q),
(755,-123,o),
(710,-156,o),
(659,-156,q),
(585,-156,o),
(443,-104,o),
(319,-10,o),
(226,117,o),
(173,267,o),
(173,349,q),
(173,452,o),
(267,594,o),
(434,669,o),
(542,669,q),
(643,669,o),
(798,592,o),
(886,452,o),
(886,356,q),
(886,-148,l),
(930,-148,l),
(930,358,l),
(930,438,o),
(873,568,o),
(768,661,o),
(626,711,o),
(542,711,q),
(451,711,o),
(299,662,o),
(187,569,o),
(126,435,o),
(126,349,q),
(126,263,o),
(184,102,o),
(286,-36,o),
(421,-140,o),
(577,-198,o),
(659,-198,q),
(729,-198,o),
(802,-140,o),
(802,-95,q),
(802,-41,o),
(744,49,o),
(644,116,o),
(515,152,o),
(444,152,q),
(363,152,o),
(218,116,o),
(105,49,o),
(40,-41,o),
(40,-95,q),
(40,-140,o),
(113,-198,o),
(183,-198,q),
(242,-198,o),
(366,-151,o),
(483,-70,o),
(586,34,o),
(665,151,o),
(709,268,o),
(709,320,q),
(709,381,o),
(660,476,o),
(563,531,o),
(490,531,q)
);
}
);
width = 1030;
},
{
layerId = m003;
shapes = (
{
closed = 1;
nodes = (
(489,531,o),
(372,480,o),
(305,392,o),
(305,335,q),
(305,273,o),
(391,192,o),
(458,191,q),
(520,190,o),
(601,270,o),
(602,331,q),
(602,386,o),
(524,456,o),
(463,456,q),
(429,456,o),
(376,423,o),
(346,366,o),
(346,329,q),
(415,329,l),
(415,346,o),
(439,369,o),
(458,369,q),
(476,369,o),
(500,346,o),
(500,329,q),
(500,311,o),
(476,287,o),
(458,287,q),
(439,287,o),
(415,311,o),
(415,329,q),
(415,358,o),
(500,397,o),
(566,397,q),
(612,397,o),
(661,347,o),
(661,302,q),
(661,235,o),
(612,118,o),
(525,25,o),
(413,-42,o),
(287,-78,o),
(222,-78,q),
(206,-78,o),
(185,-65,o),
(185,-55,q),
(185,-34,o),
(232,4,o),
(315,33,o),
(424,50,o),
(485,50,q),
(537,50,o),
(628,33,o),
(696,4,o),
(735,-34,o),
(735,-55,q),
(735,-65,o),
(713,-78,o),
(696,-78,q),
(630,-78,o),
(503,-38,o),
(392,35,o),
(307,134,o),
(259,255,o),
(259,322,q),
(259,398,o),
(332,510,o),
(478,573,o),
(587,573,q),
(688,573,o),
(836,512,o),
(917,403,o),
(917,329,q),
(917,-148,l),
(1081,-147,l),
(1081,332,l),
(1081,415,o),
(1010,553,o),
(879,655,o),
(698,711,o),
(587,711,q),
(471,711,o),
(286,654,o),
(155,549,o),
(85,407,o),
(85,322,q),
(85,232,o),
(150,73,o),
(267,-55,o),
(425,-148,o),
(613,-198,o),
(716,-198,q),
(799,-198,o),
(899,-125,o),
(899,-62,q),
(899,-12,o),
(838,73,o),
(726,135,o),
(574,170,o),
(483,170,q),
(384,170,o),
(216,135,o),
(90,73,o),
(20,-12,o),
(20,-62,q),
(20,-125,o),
(120,-198,o),
(204,-198,q),
(287,-198,o),
(443,-164,o),
(582,-101,o),
(697,-12,o),
(780,99,o),
(826,230,o),
(826,302,q),
(826,369,o),
(760,472,o),
(643,531,o),
(564,531,q)
);
}
);
width = 1161;
}
);
unicode = 2951;
},
{
glyphname = "ii-tml2";
layers = (
{
layerId = m001;
shapes = (
{
closed = 1;
nodes = (
(100,513,l),
(726,513,l),
(731,478,l),
(476,478,l),
(476,0,l),
(432,0,l),
(432,478,l),
(144,478,l),
(144,0,l),
(100,0,l)
);
},
{
closed = 1;
nodes = (
(304,199,o),
(323,219,o),
(323,233,q),
(323,247,o),
(302,267,o),
(288,267,q),
(272,267,o),
(254,247,o),
(254,233,q),
(254,219,o),
(272,199,o),
(288,199,q)
);
},
{
closed = 1;
nodes = (
(636,199,o),
(655,219,o),
(655,233,q),
(655,247,o),
(634,267,o),
(620,267,q),
(605,267,o),
(586,247,o),
(586,233,q),
(586,219,o),
(605,199,o),
(620,199,q)
);
}
);
width = 741;
},
{
layerId = m003;
shapes = (
{
closed = 1;
nodes = (
(80,513,l),
(916,513,l),
(931,384,l),
(675,384,l),
(675,0,l),
(511,0,l),
(511,384,l),
(244,384,l),
(244,0,l),
(80,0,l)
);
},
{
closed = 1;
nodes = (
(418,104,o),
(472,156,o),
(472,196,q),
(472,237,o),
(418,291,o),
(377,291,q),
(337,291,o),
(284,237,o),
(284,196,q),
(284,156,o),
(337,104,o),
(377,104,q)
);
},
{
closed = 1;
nodes = (
(849,104,o),
(903,156,o),
(903,196,q),
(903,237,o),
(849,291,o),
(808,291,q),
(768,291,o),
(715,237,o),
(715,196,q),
(715,156,o),
(768,104,o),
(808,104,q)
);
}
);
width = 941;
}
);
unicode = 2952;
},
{
glyphname = "u-tml2";
layers = (
{
layerId = m001;
shapes = (
{
closed = 1;
nodes = (
(75,0,l),
(75,35,l),
(954,35,l),
(954,0,l)
);
},
{
closed = 1;
nodes = (
(52,309,o),
(91,373,o),
(160,412,o),
(203,412,q),
(248,412,o),
(317,376,o),
(357,312,o),
(357,271,q),
(357,229,o),
(316,163,o),
(244,125,o),
(198,125,q),
(153,125,o),
(81,164,o),
(40,232,o),
(40,275,q),
(40,349,o),
(109,465,o),
(234,531,o),
(317,531,q),
(396,531,o),
(519,464,o),
(589,348,o),
(589,273,q),
(589,194,o),
(524,73,o),
(402,5,o),
(316,5,q),
(316,35,l),
(383,35,o),
(484,97,o),
(541,204,o),
(541,273,q),
(541,337,o),
(484,434,o),
(384,489,o),
(317,489,q),
(247,489,o),
(143,434,o),
(86,337,o),
(86,273,q),
(86,226,o),
(149,167,o),
(198,167,q),
(246,167,o),
(309,226,o),
(309,271,q),
(309,315,o),
(249,374,o),
(203,374,q),
(152,374,o),
(86,317,o),
(86,273,q),
(52,273,l)
);
}
);
width = 964;
},
{
layerId = m003;
shapes = (
{
closed = 1;
nodes = (
(67,0,l),
(67,129,l),
(1051,129,l),
(1051,0,l)
);
},
{
closed = 1;
nodes = (
(37,318,o),
(79,378,o),
(154,412,o),
(201,412,q),
(243,412,o),
(309,381,o),
(346,324,o),
(346,284,q),
(346,246,o),
(304,186,o),
(232,152,o),
(186,152,q),
(138,152,o),
(63,189,o),
(20,254,o),
(20,296,q),
(20,367,o),
(95,472,o),
(227,531,o),
(311,531,q),
(400,531,o),
(536,462,o),
(613,342,o),
(613,264,q),
(613,192,o),
(536,79,o),
(390,14,o),
(287,14,q),
(287,129,l),
(336,129,o),
(405,164,o),
(441,225,o),
(441,264,q),
(441,302,o),
(410,360,o),
(353,393,o),
(313,393,q),
(267,393,o),
(193,368,o),
(150,322,o),
(150,290,q),
(150,274,o),
(172,253,o),
(189,253,q),
(206,253,o),
(227,274,o),
(227,290,q),
(227,307,o),
(205,329,o),
(188,329,q),
(172,329,o),
(150,307,o),
(150,290,q),
(37,279,l)
);
}
);
width = 1061;
}
);
unicode = 2953;
},
{
glyphname = "uu-tml2";
layers = (
{
layerId = m001;
shapes = (
{
closed = 1;
nodes = (
(316,35,l),
(383,35,o),
(484,97,o),
(541,204,o),
(541,273,q),
(541,337,o),
(484,434,o),
(384,489,o),
(317,489,q),
(247,489,o),
(143,434,o),
(86,337,o),
(86,273,q),
(86,226,o),
(149,167,o),
(198,167,q),
(246,167,o),
(309,226,o),
(309,271,q),
(309,315,o),
(249,374,o),
(203,374,q),
(152,374,o),
(86,317,o),
(86,273,q),
(52,273,l),
(52,309,o),
(91,373,o),
(160,412,o),
(203,412,q),
(248,412,o),
(317,376,o),
(357,312,o),
(357,271,q),
(357,229,o),
(316,163,o),
(244,125,o),
(198,125,q),
(153,125,o),
(81,164,o),
(40,232,o),
(40,275,q),
(40,349,o),
(109,465,o),
(234,531,o),
(317,531,q),
(396,531,o),
(519,464,o),
(589,348,o),
(589,273,q),
(589,191,o),
(520,67,o),
(456,35,q),
(1689,35,l),
(1689,0,l),
(75,0,l),
(75,35,l)
);
},
{
closed = 1;
nodes = (
(731,237,o),
(771,157,o),
(856,110,o),
(923,110,q),
(966,110,o),
(1020,165,o),
(1020,208,q),
(1020,251,o),
(966,306,o),
(923,306,q),
(880,306,o),
(826,252,o),
(826,210,q),
(826,167,o),
(880,110,o),
(923,110,q),
(923,84,l),
(862,84,o),
(783,155,o),
(783,210,q),
(783,269,o),
(862,345,o),
(923,345,q),
(985,345,o),
(1064,267,o),
(1064,208,q),
(1064,170,o),
(1028,109,o),
(964,75,o),
(923,75,q),
(844,75,o),
(737,133,o),
(684,228,o),
(684,284,q),
(684,356,o),
(750,466,o),
(868,529,o),
(945,529,q),
(1018,529,o),
(1131,464,o),
(1163,409,q),
(1163,513,l),
(1639,513,l),
(1644,478,l),
(1477,478,l),
(1477,90,l),
(1433,90,l),
(1433,478,l),
(1207,478,l),
(1207,90,l),
(1163,90,l),
(1163,268,l),
(1163,332,o),
(1107,430,o),
(1008,487,o),
(945,487,q),
(882,487,o),
(785,434,o),
(731,343,o),
(731,284,q)
);
}
);
width = 1699;
},
{
layerId = m003;
shapes = (
{
closed = 1;
nodes = (
(287,129,l),
(336,129,o),
(405,164,o),
(441,225,o),
(441,264,q),
(441,302,o),
(410,360,o),
(353,393,o),
(313,393,q),
(266,393,o),
(192,366,o),
(150,320,o),
(150,290,q),
(150,274,o),
(172,253,o),
(189,253,q),
(206,253,o),
(227,274,o),
(227,290,q),
(227,307,o),
(205,329,o),
(188,329,q),
(172,329,o),
(150,307,o),
(150,290,q),
(37,279,l),
(37,318,o),
(79,378,o),
(154,412,o),
(201,412,q),
(243,412,o),
(309,381,o),
(346,324,o),
(346,284,q),
(346,246,o),
(304,186,o),
(232,152,o),
(186,152,q),
(138,152,o),
(63,189,o),
(20,254,o),
(20,296,q),
(20,367,o),
(95,472,o),
(227,531,o),
(311,531,q),
(400,531,o),
(536,462,o),
(613,342,o),
(613,264,q),
(613,225,o),
(591,158,o),
(570,129,q),
(1591,129,l),
(1591,0,l),
(67,0,l),
(67,129,l)
);
},
{
closed = 1;
nodes = (
(803,302,o),
(820,260,o),
(860,236,o),
(895,236,q),
(909,236,o),
(926,253,o),
(926,266,q),
(926,280,o),
(909,297,o),
(895,297,q),
(881,297,o),
(862,280,o),
(862,266,q),
(862,253,o),
(881,236,o),
(895,236,q),
(890,186,l),
(846,186,o),
(792,235,o),
(792,273,q),
(792,316,o),
(853,373,o),
(899,373,q),
(952,373,o),
(1020,314,o),
(1020,270,q),
(1020,237,o),
(984,184,o),
(921,153,o),
(880,153,q),
(811,153,o),
(712,200,o),
(658,279,o),
(658,327,q),
(658,387,o),
(717,479,o),
(832,531,o),
(915,531,q),
(956,531,o),
(1029,512,o),
(1057,493,q),
(1057,513,l),
(1549,513,l),
(1564,393,l),
(1457,393,l),
(1458,173,l),
(1303,173,l),
(1303,394,l),
(1211,394,l),
(1212,173,l),
(1057,173,l),
(1057,324,l),
(1057,345,o),
(1022,385,o),
(962,411,o),
(925,411,q),
(887,411,o),
(832,389,o),
(803,352,o),
(803,327,q)
);
}
);
width = 1601;
}
);
unicode = 2954;
},
{
glyphname = "e-tml2";
layers = (
{
layerId = m001;
shapes = (
{
closed = 1;
nodes = (
(628,0,l),
(584,0,l),
(584,478,l),
(469,478,l),
(468,513,l),
(824,513,l),
(829,478,l),
(628,478,l)
);
},
{
closed = 1;
nodes = (
(108,173,o),
(164,74,o),
(268,17,o),
(339,17,q),
(392,17,o),
(460,85,o),
(460,137,q),
(460,190,o),
(392,257,o),
(339,257,q),
(287,257,o),
(218,191,o),
(218,139,q),
(218,86,o),
(287,17,o),
(339,17,q),
(339,-8,l),
(292,-8,o),
(217,30,o),
(175,96,o),
(175,139,q),
(175,185,o),
(217,255,o),
(292,296,o),
(339,296,q),
(388,296,o),
(463,255,o),
(507,184,o),
(507,137,q),
(507,92,o),
(463,22,o),
(388,-18,o),
(339,-18,q),
(254,-18,o),
(128,48,o),
(60,163,o),
(60,237,q),
(60,320,o),
(134,444,o),
(279,513,o),
(385,513,q),
(565,513,l),
(565,478,l),
(394,478,l),
(300,478,o),
(172,418,o),
(108,310,o),
(108,237,q)
);
}
);
width = 839;
},
{
layerId = m003;
shapes = (
{
closed = 1;
nodes = (
(786,0,l),
(622,0,l),
(622,384,l),
(511,384,l),
(488,513,l),
(928,513,l),
(944,384,l),
(786,384,l)
);
},
{
closed = 1;
nodes = (
(214,201,o),
(241,144,o),
(313,111,o),
(379,111,q),
(399,111,o),
(424,138,o),
(424,158,q),
(424,178,o),
(399,204,o),
(379,204,q),
(358,204,o),
(332,178,o),
(332,158,q),
(332,138,o),
(358,111,o),
(379,111,q),
(372,32,l),
(327,32,o),
(256,67,o),
(215,128,o),
(215,167,q),
(215,212,o),
(259,282,o),
(337,321,o),
(386,321,q),
(441,321,o),
(525,280,o),
(573,209,o),
(573,163,q),
(573,111,o),
(521,29,o),
(424,-18,o),
(357,-18,q),
(265,-18,o),
(122,48,o),
(40,163,o),
(40,237,q),
(40,317,o),
(125,442,o),
(285,513,o),
(398,513,q),
(596,513,l),
(596,384,l),
(400,384,l),
(337,384,o),
(255,346,o),
(214,280,o),
(214,237,q)
);
}
);
width = 954;
}
);
unicode = 2958;
},
{
glyphname = "ee-tml2";
layers = (
{
layerId = m001;
shapes = (
{
closed = 1;
nodes = (
(108,177,o),
(157,82,o),
(203,53,q),
(190,70,o),
(175,114,o),
(175,139,q),
(175,185,o),
(217,255,o),
(292,296,o),
(339,296,q),
(388,296,o),
(463,255,o),
(507,184,o),
(507,137,q),
(507,92,o),
(463,22,o),
(388,-18,o),
(339,-18,q),
(254,-18,o),
(128,48,o),
(60,163,o),
(60,237,q),
(60,320,o),
(134,444,o),
(279,513,o),
(385,513,q),
(824,513,l),
(829,478,l),
(628,478,l),
(628,26,l),
(628,-13,o),
(620,-66,o),
(591,-102,o),
(560,-115,q),
(243,-250,l),
(222,-215,l),
(520,-86,l),
(546,-75,o),
(574,-50,o),
(584,-12,o),
(584,20,q),
(584,478,l),
(394,478,l),
(300,478,o),
(172,418,o),
(108,310,o),
(108,237,q)
);
},
{
closed = 1;
nodes = (
(218,86,o),
(287,17,o),
(339,17,q),
(392,17,o),
(460,85,o),
(460,137,q),
(460,190,o),
(392,257,o),
(339,257,q),
(287,257,o),
(218,191,o),
(218,139,q)
);
}
);
width = 839;
},
{
layerId = m003;
shapes = (
{
closed = 1;
nodes = (
(214,227,o),
(216,207,o),
(218,198,q),
(219,201,o),
(220,208,o),
(221,211,q),
(231,244,o),
(277,294,o),
(345,321,o),
(386,321,q),
(441,321,o),
(525,280,o),
(573,209,o),
(573,163,q),
(573,111,o),
(521,29,o),
(424,-18,o),
(357,-18,q),
(265,-18,o),
(122,48,o),
(40,163,o),
(40,237,q),
(40,317,o),
(125,442,o),
(285,513,o),
(398,513,q),
(928,513,l),
(944,384,l),
(786,384,l),
(786,8,l),
(786,-26,o),
(779,-89,o),
(751,-134,o),
(718,-142,q),
(281,-250,l),
(237,-130,l),
(571,-38,l),
(596,-31,o),
(617,-12,o),
(622,23,o),
(622,55,q),
(622,384,l),
(400,384,l),
(337,384,o),
(255,346,o),
(214,280,o),
(214,237,q)
);
},
{
closed = 1;
nodes = (
(332,138,o),
(358,111,o),
(379,111,q),
(399,111,o),
(424,138,o),
(424,158,q),
(424,178,o),
(399,204,o),
(379,204,q),
(358,204,o),
(332,178,o),
(332,158,q)
);
}
);
width = 954;
}
);
unicode = 2959;
},
{
glyphname = "ai-tml2";
layers = (
{
layerId = m001;
shapes = (
{
closed = 1;
nodes = (
(719,-18,o),
(700,61,o),
(684,95,q),
(729,101,l),
(746,63,o),
(767,-5,o),
(767,-50,q),
(767,-95,o),
(725,-165,o),
(647,-205,o),
(591,-205,q),
(540,-205,o),
(473,-173,o),
(429,-119,o),
(412,-86,q),
(412,-32,l),
(442,-30,l),
(442,-86,l),
(425,-119,o),
(377,-173,o),
(304,-205,o),
(249,-205,q),
(194,-205,o),
(108,-160,o),
(60,-82,o),
(60,-32,q),
(60,29,o),
(126,110,o),
(247,159,o),
(330,170,q),
(511,194,l),
(572,202,o),
(672,242,o),
(733,310,o),
(733,358,q),
(733,417,o),
(663,489,o),
(605,489,q),
(564,489,o),
(500,452,o),
(463,386,o),
(463,343,q),
(463,274,l),
(419,274,l),
(419,343,l),
(419,408,o),
(336,489,o),
(271,489,q),
(219,489,o),
(147,451,o),
(111,384,o),
(111,339,q),
(111,314,o),
(145,280,o),
(170,280,q),
(196,280,o),
(231,313,o),
(232,338,q),
(232,365,o),
(198,401,o),
(172,401,q),
(145,401,o),
(110,365,o),
(111,339,q),
(81,338,l),
(80,382,o),
(133,437,o),
(173,437,q),
(220,437,o),
(277,382,o),
(275,338,q),
(274,298,o),
(215,244,o),
(170,245,q),
(125,246,o),
(67,300,o),
(67,342,q),
(67,397,o),
(120,482,o),
(212,531,o),
(271,531,q),
(317,531,o),
(386,499,o),
(437,446,o),
(454,412,q),
(454,368,l),
(426,368,l),
(426,412,l),
(452,462,o),
(538,531,o),
(605,531,q),
(656,531,o),
(735,486,o),
(781,408,o),
(781,358,q),
(781,296,o),
(716,214,o),
(596,167,o),
(511,156,q),
(330,131,l),
(270,123,o),
(169,83,o),
(109,17,o),
(108,-32,q),
(108,-90,o),
(185,-163,o),
(249,-163,q),
(295,-163,o),
(365,-126,o),
(405,-60,o),
(405,-17,q),
(405,52,l),
(449,52,l),
(449,-17,l),
(449,-60,o),
(484,-126,o),
(548,-163,o),
(591,-163,q),
(655,-163,o),
(719,-101,o),
(719,-50,q)
);
}
);
width = 841;
},
{
layerId = m003;
shapes = (
{
closed = 1;
nodes = (
(593,9,o),
(577,61,o),
(558,95,q),
(727,101,l),
(747,63,o),
(765,9,o),
(765,-23,q),
(765,-76,o),
(715,-158,o),
(621,-205,o),
(553,-205,q),
(514,-205,o),
(434,-175,o),
(372,-121,o),
(359,-86,q),
(359,-32,l),
(460,-30,l),
(460,-86,l),
(447,-121,o),
(384,-175,o),
(296,-205,o),
(247,-205,q),
(185,-205,o),
(91,-156,o),
(40,-69,o),
(40,-14,q),
(40,43,o),
(95,140,o),
(214,207,o),
(310,220,q),
(491,244,l),
(526,249,o),
(577,275,o),
(607,315,o),
(607,337,q),
(607,362,o),
(580,393,o),
(558,393,q),
(542,393,o),
(518,380,o),
(505,358,o),
(505,343,q),
(505,274,l),
(353,274,l),
(353,317,l),
(353,355,o),
(312,395,o),
(278,395,q),
(243,395,o),
(177,385,o),
(135,358,o),
(135,331,q),
(135,315,o),
(157,293,o),
(174,293,q),
(191,293,o),
(212,314,o),
(212,330,q),
(212,348,o),
(191,371,o),
(174,371,q),
(157,371,o),
(135,348,o),
(135,331,q),
(71,334,l),
(70,379,o),
(131,432,o),
(178,432,q),
(244,432,o),
(304,376,o),
(302,325,q),
(301,276,o),
(226,212,o),
(170,213,q),
(113,214,o),
(40,289,o),
(40,347,q),
(40,405,o),
(98,487,o),
(198,531,o),
(260,531,q),
(323,531,o),
(407,501,o),
(461,447,o),
(479,412,q),
(479,368,l),
(379,368,l),
(379,412,l),
(405,465,o),
(501,531,o),
(576,531,q),
(639,531,o),
(730,481,o),
(779,393,o),
(779,337,q),
(779,281,o),
(719,187,o),
(592,121,o),
(491,107,q),
(310,83,l),
(279,79,o),
(235,55,o),
(212,17,o),
(212,-7,q),
(212,-32,o),
(243,-68,o),
(267,-68,q),
(290,-68,o),
(320,-55,o),
(334,-31,o),
(334,-17,q),
(334,52,l),
(486,52,l),
(486,-17,l),
(486,-31,o),
(498,-55,o),
(521,-68,o),
(538,-68,q),
(566,-68,o),
(593,-34,o),
(593,-9,q)
);
}
);
width = 819;
}
);
unicode = 2960;
},
{
glyphname = "o-tml2";
layers = (
{
layerId = m001;
shapes = (
{
closed = 1;
nodes = (
(485,534,o),
(613,497,o),
(707,429,o),
(759,337,o),
(759,282,q),
(759,237,o),
(729,166,o),
(672,126,o),
(629,126,q),
(594,126,o),
(538,163,o),
(506,228,o),
(506,269,q),
(541,269,l),
(543,224,o),
(592,168,o),
(629,168,q),
(673,168,o),
(711,231,o),
(711,282,q),
(711,343,o),
(632,437,o),
(496,491,o),
(409,491,q),
(321,491,o),
(183,434,o),
(104,334,o),
(104,269,q),
(104,231,o),
(132,173,o),
(183,140,o),
(217,140,q),
(249,140,o),
(291,182,o),
(292,213,q),
(292,246,o),
(251,288,o),
(219,288,q),
(185,288,o),
(141,246,o),
(141,212,q),
(141,181,o),
(184,140,o),
(217,140,q),
(217,106,l),
(169,106,o),
(106,168,o),
(106,215,q),
(106,265,o),
(171,328,o),
(220,328,q),
(271,328,o),
(337,263,o),
(337,213,q),
(337,165,o),
(270,102,o),
(217,102,q),
(172,102,o),
(101,145,o),
(60,221,o),
(60,269,q),
(60,327,o),
(112,424,o),
(206,495,o),
(333,534,o),
(409,534,q)
);
},
{
closed = 1;
nodes = (
(661,-35,l),
(575,-35,o),
(497,54,o),
(497,133,q),
(497,269,l),
(536,269,l),
(536,133,l),
(536,69,o),
(594,0,o),
(661,0,q),
(720,0,l),
(720,-35,l)
);
},
{
closed = 1;
nodes = (
(473,-180,o),
(549,-106,o),
(549,-50,q),
(549,19,l),
(593,0,l),
(593,-50,l),
(593,-99,o),
(547,-175,o),
(466,-219,o),
(414,-219,q),
(362,-219,o),
(281,-175,o),
(235,-99,o),
(235,-50,q),
(235,0,l),
(279,0,l),
(279,-50,l),
(279,-106,o),
(356,-180,o),
(414,-180,q)
);
}
);
width = 819;
},
{
layerId = m003;
shapes = (
{
closed = 1;
nodes = (
(528,534,o),
(681,497,o),
(797,429,o),
(863,337,o),
(863,282,q),
(863,229,o),
(812,147,o),
(722,101,o),
(664,101,q),
(616,101,o),
(536,143,o),
(487,218,o),
(487,269,q),
(600,269,l),
(601,252,o),
(623,230,o),
(646,230,q),
(666,230,o),
(691,259,o),
(691,282,q),
(691,315,o),
(623,367,o),
(510,396,o),
(440,396,q),
(368,396,o),
(240,361,o),
(161,300,o),
(161,260,q),
(161,219,o),
(175,181,o),
(199,171,o),
(214,171,q),
(231,171,o),
(255,195,o),
(256,213,q),
(256,230,o),
(233,253,o),
(215,253,q),
(196,253,o),
(172,230,o),
(172,213,q),
(172,195,o),
(196,171,o),
(214,171,q),
(217,97,l),
(164,97,o),
(106,160,o),
(106,209,q),
(106,266,o),
(176,340,o),
(229,340,q),
(289,340,o),
(368,270,o),
(368,215,q),
(368,154,o),
(282,75,o),
(215,75,q),
(163,75,o),
(82,121,o),
(35,200,o),
(35,251,q),
(35,313,o),
(97,416,o),
(207,492,o),
(354,534,o),
(440,534,q)
);
},
{
closed = 1;
nodes = (
(701,-56,l),
(585,-56,o),
(472,51,o),
(472,151,q),
(472,269,l),
(600,269,l),
(600,142,l),
(600,100,o),
(642,64,o),
(701,64,q),
(802,64,l),
(802,-56,l)
);
},
{
closed = 1;
nodes = (
(496,-81,o),
(559,-43,o),
(559,-14,q),
(559,18,l),
(714,18,l),
(714,-23,l),
(714,-80,o),
(646,-168,o),
(527,-219,o),
(450,-219,q),
(374,-219,o),
(254,-168,o),
(186,-75,o),
(186,-13,q),
(186,18,l),
(341,18,l),
(341,-4,l),
(341,-41,o),
(402,-81,o),
(448,-81,q)
);
}
);
width = 898;
}
);
unicode = 2962;
},
{
glyphname = "oo-tml2";
layers = (
{
layerId = m001;
shapes = (
{
closed = 1;
nodes = (
(720,-35,l),
(661,-35,l),
(642,-35,o),
(608,-30,o),
(593,-26,q),
(593,-50,l),
(593,-99,o),
(540,-175,o),
(447,-219,o),
(387,-219,q),
(332,-219,o),
(247,-185,o),
(198,-124,o),
(198,-86,q),
(198,-39,o),
(265,21,o),
(317,21,q),
(338,21,l),
(338,-14,l),
(317,-14,l),
(284,-14,o),
(242,-54,o),
(242,-86,q),
(242,-127,o),
(324,-180,o),
(387,-180,q),
(434,-180,o),
(507,-146,o),
(549,-87,o),
(549,-50,q),
(549,-3,l),
(522,18,o),
(497,87,o),
(497,133,q),
(497,269,l),
(541,269,l),
(543,224,o),
(592,168,o),
(629,168,q),
(673,168,o),
(711,231,o),
(711,282,q),
(711,343,o),
(632,437,o),
(496,491,o),
(409,491,q),
(312,491,o),
(168,423,o),
(96,307,o),
(107,234,q),
(114,276,o),
(176,328,o),
(220,328,q),
(271,328,o),
(337,263,o),
(337,213,q),
(337,165,o),
(270,102,o),
(217,102,q),
(172,102,o),
(101,145,o),
(60,221,o),
(60,269,q),
(60,327,o),
(112,424,o),
(206,495,o),
(333,534,o),
(409,534,q),
(485,534,o),
(613,497,o),
(707,429,o),
(759,337,o),
(759,282,q),
(759,237,o),
(729,166,o),
(672,126,o),
(629,126,q),
(601,126,o),
(553,150,o),
(536,172,q),
(536,133,l),
(536,69,o),
(594,0,o),
(661,0,q),
(720,0,l)
);
},
{
closed = 1;
nodes = (
(141,181,o),
(184,140,o),
(217,140,q),
(249,140,o),
(291,182,o),
(292,213,q),
(292,246,o),
(251,288,o),
(219,288,q),
(185,288,o),
(141,246,o),
(141,212,q)
);
}
);
width = 819;
},
{
layerId = m003;
shapes = (
{
closed = 1;
nodes = (
(802,-56,l),
(763,-56,l),
(750,-56,o),
(724,-56,o),
(711,-56,q),
(709,-63,l),
(696,-109,o),
(621,-179,o),
(508,-219,o),
(437,-219,q),
(360,-219,o),
(248,-178,o),
(188,-107,o),
(188,-62,q),
(188,-1,o),
(277,78,o),
(365,78,q),
(377,78,l),
(377,-41,l),
(365,-41,l),
(355,-41,o),
(345,-53,o),
(345,-61,q),
(345,-74,o),
(390,-90,o),
(437,-90,q),
(470,-90,o),
(523,-75,o),
(556,-48,o),
(558,-32,q),
(559,-25,l),
(515,1,o),
(472,90,o),
(472,151,q),
(472,269,l),
(600,269,l),
(601,252,o),
(623,230,o),
(646,230,q),
(666,230,o),
(691,259,o),
(691,282,q),
(691,315,o),
(623,367,o),
(510,396,o),
(440,396,q),
(394,396,o),
(305,380,o),
(234,354,o),
(213,339,q),
(217,340,o),
(225,340,o),
(229,340,q),
(289,340,o),
(368,270,o),
(368,215,q),
(368,154,o),
(282,75,o),
(215,75,q),
(163,75,o),
(82,121,o),
(35,200,o),
(35,251,q),
(35,313,o),
(97,416,o),
(207,492,o),
(354,534,o),
(440,534,q),
(528,534,o),
(681,497,o),
(797,429,o),
(863,337,o),
(863,282,q),
(863,229,o),
(812,147,o),
(722,101,o),
(664,101,q),
(648,101,o),
(617,106,o),
(603,110,q),
(606,102,l),
(614,82,o),
(658,64,o),
(701,64,q),
(802,64,l)
);
},
{
closed = 1;
nodes = (
(172,195,o),
(196,171,o),
(214,171,q),
(231,171,o),
(255,195,o),
(256,213,q),
(256,230,o),
(233,253,o),
(215,253,q),
(196,253,o),
(172,230,o),
(172,213,q)
);
}
);
width = 898;
}
);
unicode = 2963;
},
{
glyphname = "ka-tml2";
layers = (
{
anchors = (
{
name = Anchor_1;
pos = (680,0);
},
{
name = "top-yezi";
pos = (381,0);
}
);
layerId = m001;
shapes = (
{
closed = 1;
nodes = (
(453,132,o),
(397,32,o),
(299,-18,o),
(236,-18,q),
(180,-18,o),
(96,22,o),
(50,92,o),
(50,136,q),
(50,201,o),
(142,287,o),
(225,287,q),
(504,287,l),
(560,287,o),
(640,249,o),
(683,183,o),
(683,140,q),
(683,95,o),
(638,23,o),
(552,-18,o),
(492,-18,q),
(492,17,l),
(563,17,o),
(635,86,o),
(635,140,q),
(635,188,o),
(570,252,o),
(505,252,q),
(226,252,l),
(164,252,o),
(98,186,o),
(98,135,q),
(98,85,o),
(171,24,o),
(236,24,q),
(286,24,o),
(364,64,o),
(409,145,o),
(409,205,q),
(409,478,l),
(211,478,l),
(211,263,l),
(167,263,l),
(167,513,l),
(622,513,l),
(627,478,l),
(453,478,l),
(453,205,l)
);
}
);
width = 723;
},
{
anchors = (
{
name = Anchor_1;
pos = (724,0);
},
{
name = "top-yezi";
pos = (381,0);
}
);
layerId = m003;
shapes = (
{
closed = 1;
nodes = (
(528,132,o),
(450,32,o),
(324,-18,o),
(252,-18,q),
(176,-18,o),
(78,28,o),
(30,107,o),
(30,156,q),
(30,225,o),
(135,320,o),
(247,320,q),
(539,320,l),
(604,320,o),
(697,275,o),
(746,198,o),
(746,150,q),
(746,103,o),
(696,26,o),
(603,-18,o),
(537,-18,q),
(537,111,l),
(556,111,o),
(575,133,o),
(575,150,q),
(575,168,o),
(558,191,o),
(540,191,q),
(258,191,l),
(231,191,o),
(204,171,o),
(204,156,q),
(204,140,o),
(232,120,o),
(260,120,q),
(281,120,o),
(334,135,o),
(373,172,o),
(373,205,q),
(373,384,l),
(291,384,l),
(291,263,l),
(133,263,l),
(133,513,l),
(697,513,l),
(712,384,l),
(528,384,l),
(528,205,l)
);
}
);
width = 766;
}
);
unicode = 2965;
},
{
glyphname = "nga-tml2";
layers = (
{
anchors = (
{
name = Anchor_1;
pos = (995,0);
},
{
name = "top-yezi";
pos = (512,0);
}
);
layerId = m001;
shapes = (
{
closed = 1;
nodes = (
(386,142,l),
(342,142,l),
(342,478,l),
(144,478,l),
(144,0,l),
(100,0,l),
(100,513,l),
(582,513,l),
(587,478,l),
(386,478,l)
);
},
{
closed = 1;
nodes = (
(848,0,l),
(342,0,l),
(342,35,l),
(804,35,l),
(804,513,l),
(848,513,l)
);
},
{
closed = 1;
nodes = (
(621,250,o),
(564,322,o),
(511,322,q),
(456,322,o),
(386,246,o),
(386,187,q),
(348,187,l),
(348,239,o),
(391,319,o),
(466,365,o),
(514,365,q),
(563,365,o),
(632,320,o),
(669,243,o),
(669,195,q),
(669,135,o),
(618,50,o),
(524,5,o),
(460,5,q),
(460,35,l),
(507,35,o),
(580,77,o),
(621,151,o),
(621,197,q)
);
}
);
width = 948;
},
{
anchors = (
{
name = Anchor_1;
pos = (1059,0);
},
{
name = "top-yezi";
pos = (512,0);
}
);
layerId = m003;
shapes = (
{
closed = 1;
nodes = (
(504,167,l),
(340,167,l),
(340,384,l),
(244,384,l),
(244,0,l),
(80,0,l),
(80,513,l),
(646,513,l),
(661,384,l),
(504,384,l)
);
},
{
closed = 1;
nodes = (
(1002,0,l),
(340,0,l),
(340,129,l),
(838,129,l),
(838,513,l),
(1002,513,l)
);
},
{
closed = 1;
nodes = (
(594,197,o),
(570,220,o),
(551,220,q),
(530,220,o),
(504,194,o),
(504,178,q),
(389,185,l),
(390,235,o),
(437,312,o),
(522,357,o),
(580,357,q),
(634,357,o),
(718,311,o),
(766,231,o),
(766,181,q),
(766,129,o),
(710,60,o),
(599,26,o),
(517,26,q),
(508,129,l),
(538,129,o),
(576,141,o),
(594,164,o),
(594,178,q)
);
}
);
width = 1082;
}
);
unicode = 2969;
},
{
glyphname = "ca-tml2";
layers = (
{
anchors = (
{
name = Anchor_1;
pos = (675,0);
},
{
name = "top-yezi";
pos = (387,0);
}
);
layerId = m001;
shapes = (
{
closed = 1;
nodes = (
(453,132,o),
(397,32,o),
(299,-18,o),
(236,-18,q),
(180,-18,o),
(96,22,o),
(50,92,o),
(50,136,q),
(50,201,o),
(142,287,o),
(225,287,q),
(622,287,l),
(627,252,l),
(226,252,l),
(164,252,o),
(98,186,o),
(98,135,q),
(98,85,o),
(171,24,o),
(236,24,q),
(286,24,o),
(364,64,o),
(409,145,o),
(409,205,q),
(409,478,l),
(211,478,l),
(211,263,l),
(167,263,l),
(167,513,l),
(622,513,l),
(627,478,l),
(453,478,l),
(453,205,l)
);
}
);
width = 667;
},
{
anchors = (
{
name = Anchor_1;
pos = (734,0);
},
{
name = "top-yezi";
pos = (407,0);
}
);
layerId = m003;
shapes = (
{
closed = 1;
nodes = (
(528,132,o),
(450,32,o),
(324,-18,o),
(252,-18,q),
(176,-18,o),
(78,28,o),
(30,107,o),
(30,156,q),
(30,225,o),
(135,320,o),
(247,320,q),
(697,320,l),
(712,191,l),
(258,191,l),
(231,191,o),
(204,171,o),
(204,156,q),
(204,140,o),
(232,120,o),
(260,120,q),
(281,120,o),
(334,135,o),
(373,172,o),
(373,205,q),
(373,384,l),
(291,384,l),
(291,263,l),
(133,263,l),
(133,513,l),
(697,513,l),
(712,384,l),
(528,384,l),
(528,205,l)
);
}
);
width = 732;
}
);
unicode = 2970;
},
{
glyphname = "ja-tml2";
layers = (
{
anchors = (
{
name = Anchor_1;
pos = (880,0);
},
{
name = "top-yezi";
pos = (430,0);
}
);
layerId = m001;
shapes = (
{
closed = 1;
nodes = (
(419,274,l),
(419,343,l),
(419,408,o),
(336,489,o),
(271,489,q),
(219,489,o),
(147,451,o),
(111,384,o),
(111,339,q),
(111,314,o),
(145,280,o),
(170,280,q),
(196,280,o),
(231,313,o),
(232,338,q),
(232,365,o),
(198,401,o),
(172,401,q),
(145,401,o),
(110,365,o),
(111,339,q),
(81,338,l),
(80,382,o),
(133,437,o),
(173,437,q),
(220,437,o),
(277,382,o),
(275,338,q),
(274,298,o),
(215,244,o),
(170,245,q),
(125,246,o),
(67,300,o),
(67,342,q),
(67,397,o),
(120,482,o),
(212,531,o),
(271,531,q),
(317,531,o),
(386,499,o),
(437,446,o),
(454,412,q),
(454,368,l),
(426,368,l),
(426,412,l),
(452,462,o),
(538,531,o),
(605,531,q),
(656,531,o),
(735,486,o),
(781,408,o),
(781,358,q),
(781,296,o),
(716,214,o),
(596,167,o),
(511,156,q),
(330,131,l),
(270,123,o),
(169,83,o),
(109,17,o),
(108,-32,q),
(108,-90,o),
(174,-163,o),
(231,-163,q),
(271,-163,o),
(348,-116,o),
(426,-47,o),
(506,23,o),
(590,70,o),
(635,70,q),
(678,70,o),
(743,36,o),
(781,-25,o),
(781,-64,q),
(781,-104,o),
(738,-166,o),
(661,-202,o),
(609,-202,q),
(488,-202,l),
(488,-167,l),
(609,-167,l),
(667,-167,o),
(733,-108,o),
(733,-64,q),
(733,-23,o),
(679,28,o),
(635,28,q),
(603,28,o),
(540,-6,o),
(478,-59,o),
(413,-118,o),
(345,-171,o),
(272,-205,o),
(231,-205,q),
(180,-205,o),
(103,-160,o),
(60,-82,o),
(60,-32,q),
(60,29,o),
(126,110,o),
(247,159,o),
(330,170,q),
(511,194,l),
(572,202,o),
(672,242,o),
(733,310,o),
(733,358,q),
(733,417,o),
(663,489,o),
(605,489,q),
(564,489,o),
(500,452,o),
(463,386,o),
(463,343,q),
(463,274,l)
);
}
);
width = 841;
},
{
anchors = (
{
name = Anchor_1;
pos = (826,0);
},
{
name = "top-yezi";
pos = (400,0);
}
);
layerId = m003;
shapes = (
{
closed = 1;
nodes = (
(353,274,l),
(353,317,l),
(353,355,o),
(312,395,o),
(278,395,q),
(243,395,o),
(177,385,o),
(135,358,o),
(135,331,q),
(135,315,o),
(157,293,o),
(174,293,q),
(191,293,o),
(212,314,o),
(212,330,q),
(212,348,o),
(191,371,o),
(174,371,q),
(157,371,o),
(135,348,o),
(135,331,q),
(71,334,l),
(70,379,o),
(131,432,o),
(178,432,q),
(244,432,o),
(304,376,o),
(302,325,q),
(301,276,o),
(226,212,o),
(170,213,q),
(113,214,o),
(40,289,o),
(40,347,q),
(40,405,o),
(98,487,o),
(198,531,o),
(260,531,q),
(323,531,o),
(407,501,o),
(461,447,o),
(479,412,q),
(479,368,l),
(379,368,l),
(379,412,l),
(405,465,o),
(501,531,o),
(576,531,q),
(639,531,o),
(730,481,o),
(779,393,o),
(779,337,q),
(779,281,o),
(719,187,o),
(592,121,o),
(491,107,q),
(310,83,l),
(279,79,o),
(235,55,o),
(212,17,o),
(212,-7,q),
(212,-32,o),
(245,-68,o),
(276,-68,q),
(306,-68,o),
(357,-33,o),
(409,17,o),
(470,68,o),
(546,103,o),
(597,103,q),
(650,103,o),
(732,61,o),
(779,-12,o),
(779,-59,q),
(779,-101,o),
(736,-167,o),
(655,-205,o),
(598,-205,q),
(535,-205,l),
(535,-86,l),
(574,-86,l),
(594,-86,o),
(616,-68,o),
(616,-56,q),
(616,-42,o),
(601,-26,o),
(585,-26,q),
(567,-26,o),
(533,-52,o),
(496,-93,o),
(450,-138,o),
(389,-179,o),
(309,-205,o),
(256,-205,q),
(189,-205,o),
(92,-156,o),
(40,-69,o),
(40,-14,q),
(40,43,o),
(95,140,o),
(214,207,o),
(310,220,q),
(491,244,l),
(526,249,o),
(577,275,o),
(607,315,o),
(607,337,q),
(607,362,o),
(580,393,o),
(558,393,q),
(542,393,o),
(518,380,o),
(505,358,o),
(505,343,q),
(505,274,l)
);
}
);
width = 819;
}
);
unicode = 2972;
},
{
glyphname = "nya-tml2";
layers = (
{
anchors = (
{
name = Anchor_1;
pos = (1072,0);
},
{
name = "top-yezi";
pos = (639,0);
}
);
layerId = m001;
shapes = (
{
closed = 1;
nodes = (
(339,173,o),
(395,74,o),
(499,17,o),
(571,17,q),
(624,17,o),
(691,85,o),
(691,137,q),
(691,190,o),
(624,257,o),
(571,257,q),
(518,257,o),
(450,191,o),
(450,139,q),
(450,86,o),
(518,17,o),
(571,17,q),
(571,-8,l),
(523,-8,o),
(449,30,o),
(407,96,o),
(407,139,q),
(407,185,o),
(449,255,o),
(523,296,o),
(571,296,q),
(620,296,o),
(695,255,o),
(739,184,o),
(739,137,q),
(739,92,o),
(695,22,o),
(620,-18,o),
(571,-18,q),
(486,-18,o),
(360,48,o),
(292,163,o),
(292,237,q),
(292,320,o),
(366,444,o),
(510,513,o),
(616,513,q),
(682,513,l),
(682,478,l),
(625,478,l),
(531,478,o),
(403,418,o),
(339,310,o),
(339,237,q)
);
},
{
closed = 1;
nodes = (
(1020,343,o),
(1092,288,o),
(1129,197,o),
(1129,143,q),
(1129,55,o),
(1061,-88,o),
(933,-191,o),
(751,-246,o),
(637,-246,q),
(508,-246,o),
(303,-184,o),
(157,-68,o),
(80,92,o),
(80,190,q),
(80,245,o),
(116,371,o),
(180,486,o),
(220,523,q),
(266,513,l),
(226,481,o),
(164,371,o),
(128,246,o),
(128,188,q),
(128,100,o),
(198,-45,o),
(331,-148,o),
(519,-204,o),
(637,-204,q),
(776,-204,o),
(975,-117,o),
(1082,40,o),
(1082,145,q),
(1082,186,o),
(1056,257,o),
(1005,301,o),
(967,301,q),
(912,301,o),
(841,225,o),
(841,166,q),
(841,0,l),
(797,0,l),
(797,478,l),
(682,478,l),
(681,513,l),
(1038,513,l),
(1042,478,l),
(841,478,l),
(841,282,l),
(864,311,o),
(929,343,o),
(969,343,q)
);
}
);
width = 1189;
},
{
anchors = (
{
name = Anchor_1;
pos = (1209,0);
},
{
name = "top-yezi";
pos = (737,0);
}
);
layerId = m003;
shapes = (
{
closed = 1;
nodes = (
(492,201,o),
(519,144,o),
(591,111,o),
(658,111,q),
(678,111,o),
(703,138,o),
(703,158,q),
(703,178,o),
(678,204,o),
(658,204,q),
(637,204,o),
(610,178,o),
(610,158,q),
(610,138,o),
(637,111,o),
(658,111,q),
(650,32,l),
(605,32,o),
(534,67,o),
(493,128,o),
(493,167,q),
(493,212,o),
(537,282,o),
(615,321,o),
(664,321,q),
(719,321,o),
(803,280,o),
(851,209,o),
(851,163,q),
(851,111,o),
(799,29,o),
(702,-18,o),
(635,-18,q),
(544,-18,o),
(400,48,o),
(318,163,o),
(318,237,q),
(318,317,o),
(403,442,o),
(564,513,o),
(677,513,q),
(797,513,l),
(797,384,l),
(678,384,l),
(615,384,o),
(532,346,o),
(492,280,o),
(492,237,q)
);
},
{
closed = 1;
nodes = (
(1208,337,o),
(1301,278,o),
(1349,173,o),
(1349,102,q),
(1349,13,o),
(1261,-136,o),
(1096,-246,o),
(869,-306,o),
(729,-306,q),
(577,-306,o),
(330,-235,o),
(154,-106,o),
(60,72,o),
(60,179,q),
(60,242,o),
(98,367,o),
(164,480,o),
(206,523,q),
(375,513,l),
(334,474,o),
(269,366,o),
(232,242,o),
(232,177,q),
(232,101,o),
(297,-26,o),
(423,-118,o),
(607,-168,o),
(727,-168,q),
(871,-168,o),
(1072,-100,o),
(1177,19,o),
(1177,96,q),
(1177,129,o),
(1160,175,o),
(1130,199,o),
(1110,199,q),
(1083,199,o),
(1046,164,o),
(1046,137,q),
(1046,0,l),
(883,0,l),
(883,384,l),
(771,384,l),
(749,513,l),
(1189,513,l),
(1204,384,l),
(1046,384,l),
(1046,313,l),
(1067,324,o),
(1115,337,o),
(1142,337,q)
);
}
);
width = 1389;
}
);
unicode = 2974;
},
{
glyphname = "tta-tml2";
layers = (
{
anchors = (
{
name = "top-yezi";
pos = (390,0);
}
);
layerId = m001;
shapes = (
{
closed = 1;
nodes = (
(144,35,l),
(144,518,l),
(100,513,l),
(100,0,l),
(704,0,l),
(699,35,l)
);
}
);
width = 714;
},
{
anchors = (
{
name = "top-yezi";
pos = (454,0);
}
);
layerId = m003;
shapes = (
{
closed = 1;
nodes = (
(244,129,l),
(244,518,l),
(80,513,l),
(80,0,l),
(729,0,l),
(714,129,l)
);
}
);
width = 739;
}
);
unicode = 2975;
},
{
glyphname = "nna-tml2";
layers = (
{
anchors = (
{
name = Anchor_1;
pos = (1676,0);
},
{
name = "top-yezi";
pos = (892,0);
}
);
layerId = m001;
shapes = (
{
closed = 1;
nodes = (
(1413,478,l),
(1313,478,l),
(1246,478,o),
(1129,431,o),
(1041,347,o),
(992,235,o),
(992,171,q),
(992,107,o),
(1046,24,o),
(1097,24,q),
(1147,24,o),
(1206,107,o),
(1206,171,q),
(1206,235,o),
(1163,350,o),
(1084,438,o),
(974,489,o),
(907,489,q),
(818,489,o),
(683,403,o),
(608,259,o),
(608,171,q),
(608,107,o),
(667,24,o),
(717,24,q),
(767,24,o),
(822,107,o),
(822,171,q),
(822,239,o),
(765,355,o),
(663,441,o),
(527,489,o),
(447,489,q),
(342,489,o),
(190,423,o),
(108,305,o),
(108,228,q),
(108,167,o),
(168,71,o),
(272,17,o),
(339,17,q),
(392,17,o),
(460,85,o),
(460,137,q),
(460,190,o),
(392,257,o),
(339,257,q),
(287,257,o),
(218,191,o),
(218,139,q),
(218,86,o),
(287,17,o),
(339,17,q),
(339,-8,l),
(292,-8,o),
(217,30,o),
(175,96,o),
(175,139,q),
(175,185,o),
(217,255,o),
(292,296,o),
(339,296,q),
(388,296,o),
(463,255,o),
(507,184,o),
(507,137,q),
(507,92,o),
(463,22,o),
(388,-18,o),
(339,-18,q),
(258,-18,o),
(132,46,o),
(60,157,o),
(60,228,q),
(60,316,o),
(155,452,o),
(329,531,o),
(447,531,q),
(536,531,o),
(690,476,o),
(805,378,o),
(870,247,o),
(870,171,q),
(870,116,o),
(833,31,o),
(765,-18,o),
(717,-18,q),
(670,-18,o),
(599,31,o),
(560,116,o),
(560,171,q),
(560,244,o),
(610,374,o),
(703,474,o),
(830,531,o),
(907,531,q),
(984,531,o),
(1111,474,o),
(1203,374,o),
(1253,244,o),
(1253,171,q),
(1253,116,o),
(1214,31,o),
(1144,-18,o),
(1097,-18,q),
(1049,-18,o),
(981,31,o),
(944,116,o),
(944,171,q),
(944,244,o),
(1001,368,o),
(1102,461,o),
(1236,513,o),
(1313,513,q),
(1653,513,l),
(1658,478,l),
(1457,478,l),
(1457,0,l),
(1413,0,l)
);
}
);
width = 1668;
},
{
anchors = (
{
name = Anchor_1;
pos = (1862,0);
},
{
name = "top-yezi";
pos = (1010,0);
}
);
layerId = m003;
shapes = (
{
closed = 1;
nodes = (
(1528,384,l),
(1449,384,l),
(1397,384,o),
(1306,354,o),
(1236,297,o),
(1197,219,o),
(1197,171,q),
(1197,145,o),
(1223,111,o),
(1244,111,q),
(1264,111,o),
(1290,145,o),
(1290,171,q),
(1290,219,o),
(1251,301,o),
(1180,360,o),
(1083,393,o),
(1026,393,q),
(948,393,o),
(826,336,o),
(756,236,o),
(756,171,q),
(756,145,o),
(783,111,o),
(804,111,q),
(824,111,o),
(850,145,o),
(850,171,q),
(850,221,o),
(790,302,o),
(688,361,o),
(557,393,o),
(486,393,q),
(398,393,o),
(277,351,o),
(214,276,o),
(214,228,q),
(214,192,o),
(241,139,o),
(313,111,o),
(379,111,q),
(399,111,o),
(424,138,o),
(424,158,q),
(424,178,o),
(399,204,o),
(379,204,q),
(358,204,o),
(332,178,o),
(332,158,q),
(332,138,o),
(358,111,o),
(379,111,q),
(372,32,l),
(327,32,o),
(256,71,o),
(215,133,o),
(215,167,q),
(215,212,o),
(259,282,o),
(337,321,o),
(386,321,q),
(441,321,o),
(525,280,o),
(573,209,o),
(573,163,q),
(573,111,o),
(521,29,o),
(424,-18,o),
(357,-18,q),
(265,-18,o),
(122,47,o),
(40,159,o),
(40,228,q),
(40,316,o),
(147,452,o),
(347,531,o),
(485,531,q),
(593,531,o),
(785,478,o),
(932,382,o),
(1015,254,o),
(1015,179,q),
(1015,120,o),
(963,31,o),
(869,-18,o),
(806,-18,q),
(742,-18,o),
(646,31,o),
(592,120,o),
(592,179,q),
(592,254,o),
(656,382,o),
(772,478,o),
(930,531,o),
(1024,531,q),
(1118,531,o),
(1275,478,o),
(1391,382,o),
(1455,254,o),
(1455,179,q),
(1455,120,o),
(1403,31,o),
(1309,-18,o),
(1246,-18,q),
(1182,-18,o),
(1086,31,o),
(1032,120,o),
(1032,179,q),
(1032,250,o),
(1098,371,o),
(1214,462,o),
(1365,513,o),
(1449,513,q),
(1834,513,l),
(1849,384,l),
(1692,384,l),
(1692,0,l),
(1528,0,l)
);
}
);
width = 1859;
}
);
unicode = 2979;
},
{
glyphname = "ta-tml2";
layers = (
{
anchors = (
{
name = Anchor_1;
pos = (709,0);
},
{
name = "top-yezi";
pos = (376,0);
}
);
layerId = m001;
shapes = (
{
closed = 1;
nodes = (
(226,252,l),
(164,252,o),
(98,186,o),
(98,135,q),
(98,85,o),
(171,24,o),
(236,24,q),
(286,24,o),
(364,64,o),
(409,145,o),
(409,205,q),
(409,478,l),
(211,478,l),
(211,263,l),
(167,263,l),
(167,513,l),
(622,513,l),
(627,478,l),
(453,478,l),
(453,205,l),
(453,132,o),
(397,32,o),
(299,-18,o),
(236,-18,q),
(180,-18,o),
(96,22,o),
(50,92,o),
(50,136,q),
(50,201,o),
(142,287,o),
(225,287,q),
(476,287,l),
(537,287,o),
(630,233,o),
(683,138,o),
(683,77,q),
(683,7,o),
(611,-102,o),
(481,-164,o),
(392,-164,q),
(250,-164,l),
(192,-164,o),
(106,-208,o),
(84,-243,q),
(50,-222,l),
(74,-181,o),
(183,-129,o),
(250,-129,q),
(392,-129,l),
(467,-129,o),
(576,-76,o),
(635,18,o),
(635,77,q),
(635,128,o),
(595,207,o),
(524,252,o),
(477,252,q)
);
}
);
width = 733;
},
{
anchors = (
{
name = Anchor_1;
pos = (719,0);
},
{
name = "top-yezi";
pos = (415,0);
}
);
layerId = m003;
shapes = (
{
closed = 1;
nodes = (
(258,191,l),
(231,191,o),
(204,171,o),
(204,156,q),
(204,140,o),
(232,120,o),
(260,120,q),
(281,120,o),
(334,135,o),
(373,172,o),
(373,205,q),
(373,384,l),
(291,384,l),
(291,263,l),
(133,263,l),
(133,513,l),
(697,513,l),
(712,384,l),
(528,384,l),
(528,205,l),
(528,132,o),
(450,32,o),
(324,-18,o),
(252,-18,q),
(176,-18,o),
(78,28,o),
(30,107,o),
(30,156,q),
(30,225,o),
(135,320,o),
(247,320,q),
(530,320,l),
(606,320,o),
(724,256,o),
(791,145,o),
(791,73,q),
(791,-6,o),
(715,-128,o),
(581,-198,o),
(495,-198,q),
(293,-198,l),
(214,-198,o),
(140,-223,o),
(127,-243,q),
(30,-157,l),
(51,-116,o),
(164,-69,o),
(279,-69,q),
(495,-69,l),
(531,-69,o),
(586,-33,o),
(618,32,o),
(618,73,q),
(618,107,o),
(596,160,o),
(557,191,o),
(531,191,q)
);
}
);
width = 821;
}
);
unicode = 2980;
},
{
glyphname = "na-tml2";
layers = (
{
anchors = (
{
name = Anchor_1;
pos = (634,0);
},
{
name = "top-yezi";
pos = (361,0);
}
);
layerId = m001;
shapes = (
{
closed = 1;
nodes = (
(568,343,o),
(639,287,o),
(674,188,o),
(674,123,q),
(674,45,o),
(613,-86,o),
(490,-164,o),
(397,-164,q),
(300,-164,l),
(242,-164,o),
(156,-208,o),
(134,-243,q),
(100,-222,l),
(124,-181,o),
(233,-129,o),
(300,-129,q),
(397,-129,l),
(475,-129,o),
(577,-59,o),
(627,56,o),
(627,125,q),
(627,204,o),
(571,301,o),
(511,301,q),
(456,301,o),
(386,225,o),
(386,166,q),
(386,0,l),
(342,0,l),
(342,478,l),
(144,478,l),
(144,0,l),
(100,0,l),
(100,513,l),
(582,513,l),
(587,478,l),
(386,478,l),
(386,282,l),
(409,311,o),
(474,343,o),
(514,343,q)
);
}
);
width = 734;
},
{
anchors = (
{
name = Anchor_1;
pos = (654,0);
},
{
name = "top-yezi";
pos = (381,0);
}
);
layerId = m003;
shapes = (
{
closed = 1;
nodes = (
(668,337,o),
(759,274,o),
(806,164,o),
(806,93,q),
(806,10,o),
(742,-122,o),
(619,-198,o),
(532,-198,q),
(343,-198,l),
(264,-198,o),
(190,-223,o),
(177,-243,q),
(80,-157,l),
(101,-116,o),
(214,-69,o),
(329,-69,q),
(532,-69,l),
(571,-69,o),
(615,-27,o),
(634,44,o),
(634,87,q),
(634,136,o),
(600,199,o),
(571,199,q),
(544,199,o),
(513,164,o),
(513,137,q),
(513,0,l),
(349,0,l),
(349,384,l),
(244,384,l),
(244,0,l),
(80,0,l),
(80,513,l),
(655,513,l),
(670,384,l),
(513,384,l),
(513,316,l),
(533,326,o),
(577,337,o),
(602,337,q)
);
}
);
width = 846;
}
);
unicode = 2984;
},
{
glyphname = "nnna-tml2";
layers = (
{
anchors = (
{
name = Anchor_1;
pos = (1285,0);
},
{
name = "top-yezi";
pos = (683,0);
}
);
layerId = m001;
shapes = (
{
closed = 1;
nodes = (
(1029,478,l),
(929,478,l),
(862,478,o),
(745,431,o),
(657,347,o),
(608,235,o),
(608,171,q),
(608,107,o),
(665,24,o),
(715,24,q),
(765,24,o),
(822,107,o),
(822,171,q),
(822,239,o),
(765,355,o),
(663,441,o),
(527,489,o),
(447,489,q),
(342,489,o),
(190,423,o),
(108,305,o),
(108,228,q),
(108,167,o),
(168,71,o),
(272,17,o),
(339,17,q),
(392,17,o),
(460,85,o),
(460,137,q),
(460,190,o),
(392,257,o),
(339,257,q),
(287,257,o),
(218,191,o),
(218,139,q),
(218,86,o),
(287,17,o),
(339,17,q),
(339,-8,l),
(292,-8,o),
(217,30,o),
(175,96,o),
(175,139,q),
(175,185,o),
(217,255,o),
(292,296,o),
(339,296,q),
(388,296,o),
(463,255,o),
(507,184,o),
(507,137,q),
(507,92,o),
(463,22,o),
(388,-18,o),
(339,-18,q),
(258,-18,o),
(132,46,o),
(60,157,o),
(60,228,q),
(60,316,o),
(155,452,o),
(329,531,o),
(447,531,q),
(536,531,o),
(690,476,o),
(805,378,o),
(870,247,o),
(870,171,q),
(870,116,o),
(832,31,o),
(763,-18,o),
(715,-18,q),
(668,-18,o),
(598,31,o),
(560,116,o),
(560,171,q),
(560,244,o),
(617,368,o),
(718,461,o),
(852,513,o),
(929,513,q),
(1270,513,l),
(1274,478,l),
(1073,478,l),
(1073,0,l),
(1029,0,l)
);
}
);
width = 1284;
},
{
anchors = (
{
name = Anchor_1;
pos = (1422,0);
},
{
name = "top-yezi";
pos = (782,0);
}
);
layerId = m003;
shapes = (
{
closed = 1;
nodes = (
(1088,384,l),
(1008,384,l),
(957,384,o),
(866,354,o),
(796,297,o),
(756,219,o),
(756,171,q),
(756,145,o),
(783,111,o),
(804,111,q),
(824,111,o),
(850,145,o),
(850,171,q),
(850,221,o),
(790,302,o),
(688,361,o),
(557,393,o),
(486,393,q),
(398,393,o),
(277,351,o),
(214,276,o),
(214,228,q),
(214,192,o),
(241,139,o),
(313,111,o),
(379,111,q),
(399,111,o),
(424,138,o),
(424,158,q),
(424,178,o),
(399,204,o),
(379,204,q),
(358,204,o),
(332,178,o),
(332,158,q),
(332,138,o),
(358,111,o),
(379,111,q),
(372,32,l),
(327,32,o),
(256,71,o),
(215,133,o),
(215,167,q),
(215,212,o),
(259,282,o),
(337,321,o),
(386,321,q),
(441,321,o),
(525,280,o),
(573,209,o),
(573,163,q),
(573,111,o),
(521,29,o),
(424,-18,o),
(357,-18,q),
(265,-18,o),
(122,47,o),
(40,159,o),
(40,228,q),
(40,316,o),
(147,452,o),
(347,531,o),
(485,531,q),
(593,531,o),
(785,478,o),
(932,383,o),
(1015,255,o),
(1015,180,q),
(1015,121,o),
(963,31,o),
(869,-18,o),
(806,-18,q),
(742,-18,o),
(646,31,o),
(592,121,o),
(592,180,q),
(592,251,o),
(658,372,o),
(774,463,o),
(924,513,o),
(1008,513,q),
(1394,513,l),
(1409,384,l),
(1251,384,l),
(1251,0,l),
(1088,0,l)
);
}
);
width = 1419;
}
);
unicode = 2985;
},
{
glyphname = "pa-tml2";
layers = (
{
anchors = (
{
name = Anchor_1;
pos = (768,0);
},
{
name = "top-yezi";
pos = (347,0);
}
);
layerId = m001;
shapes = (
{
closed = 1;
nodes = (
(606,0,l),
(100,0,l),
(100,513,l),
(144,518,l),
(144,35,l),
(562,35,l),
(562,513,l),
(606,513,l)
);
}
);
width = 706;
},
{
anchors = (
{
name = Anchor_1;
pos = (729,0);
},
{
name = "top-yezi";
pos = (396,0);
}
);
layerId = m003;
shapes = (
{
closed = 1;
nodes = (
(706,0,l),
(80,0,l),
(80,513,l),
(244,518,l),
(244,129,l),
(542,129,l),
(542,513,l),
(706,513,l)
);
}
);
width = 786;
}
);
unicode = 2986;
},
{
glyphname = "ma-tml2";
layers = (
{
anchors = (
{
name = Anchor_1;
pos = (799,0);
},
{
name = "top-yezi";
pos = (454,0);
}
);
layerId = m001;
shapes = (
{
closed = 1;
nodes = (
(144,518,l),
(100,513,l),
(100,0,l),
(537,0,l),
(605,0,o),
(688,60,o),
(726,164,o),
(726,231,q),
(726,318,o),
(678,454,o),
(588,531,o),
(525,531,q),
(481,531,o),
(411,493,o),
(372,415,o),
(372,355,q),
(372,10,l),
(416,19,l),
(416,356,l),
(416,430,o),
(480,489,o),
(528,489,q),
(576,489,o),
(643,423,o),
(678,306,o),
(678,231,q),
(678,175,o),
(653,86,o),
(592,35,o),
(537,35,q),
(144,35,l)
);
}
);
width = 786;
},
{
anchors = (
{
name = Anchor_1;
pos = (907,0);
},
{
name = "top-yezi";
pos = (558,0);
}
);
layerId = m003;
shapes = (
{
closed = 1;
nodes = (
(244,518,l),
(80,513,l),
(80,0,l),
(643,0,l),
(733,0,o),
(856,63,o),
(920,174,o),
(920,244,q),
(920,327,o),
(854,457,o),
(732,531,o),
(649,531,q),
(570,531,o),
(460,469,o),
(404,361,o),
(404,292,q),
(404,56,l),
(568,65,l),
(568,284,l),
(568,331,o),
(602,393,o),
(651,393,q),
(683,393,o),
(725,354,o),
(746,287,o),
(746,244,q),
(746,211,o),
(727,159,o),
(682,129,o),
(643,129,q),
(244,129,l)
);
}
);
width = 960;
}
);
unicode = 2990;
},
{
glyphname = "ya-tml2";
layers = (
{
anchors = (
{
name = Anchor_1;
pos = (936,0);
},
{
name = "top-yezi";
pos = (417,0);
}
);
layerId = m001;
shapes = (
{
closed = 1;
nodes = (
(786,0,l),
(379,0,l),
(379,513,l),
(423,513,l),
(423,35,l),
(742,35,l),
(742,513,l),
(786,513,l)
);
},
{
closed = 1;
nodes = (
(134,518,l),
(134,175,l),
(134,90,o),
(201,24,o),
(252,24,q),
(314,24,o),
(379,120,o),
(379,193,q),
(414,193,l),
(414,132,o),
(376,36,o),
(304,-18,o),
(252,-18,q),
(205,-18,o),
(132,21,o),
(90,107,o),
(90,176,q),
(90,513,l)
);
}
);
width = 886;
},
{
anchors = (
{
name = Anchor_1;
pos = (1024,0);
},
{
name = "top-yezi";
pos = (510,0);
}
);
layerId = m003;
shapes = (
{
closed = 1;
nodes = (
(978,0,l),
(435,0,l),
(435,513,l),
(599,513,l),
(599,129,l),
(814,129,l),
(814,513,l),
(978,513,l)
);
},
{
closed = 1;
nodes = (
(234,518,l),
(234,239,l),
(234,180,o),
(279,120,o),
(321,120,q),
(378,120,o),
(435,202,o),
(435,266,q),
(543,266,l),
(543,188,o),
(482,59,o),
(377,-18,o),
(309,-18,q),
(234,-18,o),
(127,42,o),
(70,154,o),
(70,230,q),
(70,513,l)
);
}
);
width = 1058;
}
);
unicode = 2991;
},
{
glyphname = "ra-tml2";
layers = (
{
anchors = (
{
name = Anchor_1;
pos = (692,0);
},
{
name = "top-yezi";
pos = (330,0);
}
);
layerId = m001;
shapes = (
{
closed = 1;
nodes = (
(458,478,l),
(458,26,l),
(458,-13,o),
(448,-62,o),
(419,-97,o),
(390,-115,q),
(163,-250,l),
(142,-215,l),
(365,-80,l),
(386,-67,o),
(407,-39,o),
(414,1,o),
(414,33,q),
(414,478,l),
(144,478,l),
(144,0,l),
(100,0,l),
(100,513,l),
(654,513,l),
(659,478,l)
);
}
);
width = 669;
},
{
anchors = (
{
name = Anchor_1;
pos = (746,0);
},
{
name = "top-yezi";
pos = (349,0);
}
);
layerId = m003;
shapes = (
{
closed = 1;
nodes = (
(576,384,l),
(576,8,l),
(576,-26,o),
(569,-87,o),
(541,-132,o),
(508,-142,q),
(161,-250,l),
(117,-116,l),
(361,-38,l),
(386,-30,o),
(407,-11,o),
(412,23,o),
(412,55,q),
(412,384,l),
(244,384,l),
(244,0,l),
(80,0,l),
(80,513,l),
(718,513,l),
(733,384,l)
);
}
);
width = 743;
}
);
unicode = 2992;
},
{
glyphname = "rra-tml2";
layers = (
{
anchors = (
{
name = Anchor_1;
pos = (778,0);
},
{
name = "top-yezi";
pos = (377,0);
}
);
layerId = m001;
shapes = (
{
closed = 1;
nodes = (
(584,531,o),
(672,454,o),
(715,318,o),
(715,231,q),
(715,116,o),
(652,-62,o),
(512,-164,o),
(396,-164,q),
(290,-164,l),
(232,-164,o),
(146,-208,o),
(124,-243,q),
(90,-222,l),
(115,-181,o),
(223,-129,o),
(290,-129,q),
(396,-129,l),
(498,-129,o),
(616,-35,o),
(667,128,o),
(667,231,q),
(667,307,o),
(635,423,o),
(570,489,o),
(520,489,q),
(486,489,o),
(434,456,o),
(405,389,o),
(405,338,q),
(405,0,l),
(361,0,l),
(361,320,l),
(361,369,o),
(333,445,o),
(280,489,o),
(243,489,q),
(192,489,o),
(134,415,o),
(134,338,q),
(134,0,l),
(90,0,l),
(90,337,l),
(90,401,o),
(127,487,o),
(195,531,o),
(239,531,q),
(288,531,o),
(360,478,o),
(379,433,q),
(399,481,o),
(474,531,o),
(517,531,q)
);
}
);
width = 775;
},
{
anchors = (
{
name = Anchor_1;
pos = (935,0);
},
{
name = "top-yezi";
pos = (480,0);
}
);
layerId = m003;
shapes = (
{
closed = 1;
nodes = (
(757,531,o),
(878,447,o),
(942,302,o),
(942,208,q),
(942,90,o),
(860,-93,o),
(699,-198,o),
(580,-198,q),
(333,-198,l),
(254,-198,o),
(181,-223,o),
(167,-243,q),
(70,-157,l),
(91,-116,o),
(205,-69,o),
(320,-69,q),
(580,-69,l),
(648,-69,o),
(731,2,o),
(768,128,o),
(768,208,q),
(768,262,o),
(750,345,o),
(708,393,o),
(672,393,q),
(641,393,o),
(600,365,o),
(581,316,o),
(581,284,q),
(581,0,l),
(417,0,l),
(417,248,l),
(417,290,o),
(397,356,o),
(355,393,o),
(321,393,q),
(279,393,o),
(234,334,o),
(234,275,q),
(234,0,l),
(70,0,l),
(70,283,l),
(70,360,o),
(125,471,o),
(233,531,o),
(312,531,q),
(363,531,o),
(451,487,o),
(483,448,q),
(516,484,o),
(611,531,o),
(670,531,q)
);
}
);
width = 982;
}
);
unicode = 2993;
},
{
glyphname = "la-tml2";
layers = (
{
anchors = (
{
name = Anchor_1;
pos = (1033,0);
},
{
name = "top-yezi";
pos = (564,0);
}
);
layerId = m001;
shapes = (
{
closed = 1;
nodes = (
(862,527,l),
(892,478,o),
(929,373,o),
(947,274,o),
(947,235,q),
(947,159,o),
(906,45,o),
(828,-18,o),
(771,-18,q),
(723,-18,o),
(647,29,o),
(603,130,o),
(603,210,q),
(603,255,l),
(603,328,o),
(543,433,o),
(437,489,o),
(368,489,q),
(285,489,o),
(168,424,o),
(108,310,o),
(108,237,q),
(108,173,o),
(164,74,o),
(268,17,o),
(339,17,q),
(392,17,o),
(460,85,o),
(460,137,q),
(460,190,o),
(392,257,o),
(339,257,q),
(287,257,o),
(218,191,o),
(218,139,q),
(218,86,o),
(287,17,o),
(339,17,q),
(339,-8,l),
(292,-8,o),
(217,30,o),
(175,96,o),
(175,139,q),
(175,185,o),
(217,255,o),
(292,296,o),
(339,296,q),
(388,296,o),
(463,255,o),
(507,184,o),
(507,137,q),
(507,92,o),
(463,22,o),
(388,-18,o),
(339,-18,q),
(254,-18,o),
(128,48,o),
(60,163,o),
(60,237,q),
(60,323,o),
(133,455,o),
(271,531,o),
(368,531,q),
(449,531,o),
(575,463,o),
(647,340,o),
(647,255,q),
(647,210,l),
(647,110,o),
(717,24,o),
(771,24,q),
(832,24,o),
(899,136,o),
(899,233,q),
(899,271,o),
(882,371,o),
(846,473,o),
(817,513,q)
);
}
);
width = 1007;
},
{
anchors = (
{
name = Anchor_1;
pos = (1106,0);
},
{
name = "top-yezi";
pos = (598,0);
}
);
layerId = m003;
shapes = (
{
closed = 1;
nodes = (
(1046,527,l),
(1075,478,o),
(1112,377,o),
(1131,286,o),
(1131,251,q),
(1131,173,o),
(1070,52,o),
(952,-18,o),
(868,-18,q),
(790,-18,o),
(677,45,o),
(617,156,o),
(617,227,q),
(617,246,l),
(617,289,o),
(566,355,o),
(477,393,o),
(419,393,q),
(360,393,o),
(267,353,o),
(214,283,o),
(214,237,q),
(214,201,o),
(241,144,o),
(313,111,o),
(379,111,q),
(399,111,o),
(424,138,o),
(424,158,q),
(424,178,o),
(399,204,o),
(379,204,q),
(358,204,o),
(332,178,o),
(332,158,q),
(332,138,o),
(358,111,o),
(379,111,q),
(372,32,l),
(327,32,o),
(256,67,o),
(215,128,o),
(215,167,q),
(215,212,o),
(259,282,o),
(337,321,o),
(386,321,q),
(441,321,o),
(525,280,o),
(573,209,o),
(573,163,q),
(573,111,o),
(521,29,o),
(424,-18,o),
(357,-18,q),
(265,-18,o),
(122,48,o),
(40,163,o),
(40,237,q),
(40,323,o),
(137,455,o),
(308,531,o),
(417,531,q),
(523,531,o),
(687,457,o),
(781,329,o),
(781,246,q),
(781,227,l),
(781,181,o),
(822,120,o),
(868,120,q),
(912,120,o),
(957,194,o),
(957,251,q),
(957,285,o),
(937,376,o),
(900,473,o),
(875,513,q)
);
}
);
width = 1171;
}
);
unicode = 2994;
},
{
glyphname = "lla-tml2";
layers = (
{
anchors = (
{
name = Anchor_1;
pos = (1208,0);
},
{
name = "top-yezi";
pos = (666,0);
}
);
layerId = m001;
shapes = (
{
closed = 1;
nodes = (
(108,173,o),
(164,74,o),
(268,17,o),
(339,17,q),
(392,17,o),
(460,85,o),
(460,137,q),
(460,190,o),
(392,257,o),
(339,257,q),
(287,257,o),
(218,191,o),
(218,139,q),
(218,86,o),
(287,17,o),
(339,17,q),
(339,-8,l),
(292,-8,o),
(217,30,o),
(175,96,o),
(175,139,q),
(175,185,o),
(217,255,o),
(292,296,o),
(339,296,q),
(388,296,o),
(463,255,o),
(507,184,o),
(507,137,q),
(507,92,o),
(463,22,o),
(388,-18,o),
(339,-18,q),
(254,-18,o),
(128,48,o),
(60,163,o),
(60,237,q),
(60,323,o),
(134,455,o),
(273,531,o),
(370,531,q),
(457,531,o),
(593,452,o),
(630,384,q),
(630,513,l),
(1184,513,l),
(1189,478,l),
(988,478,l),
(988,0,l),
(944,0,l),
(944,478,l),
(674,478,l),
(674,0,l),
(630,0,l),
(630,228,l),
(630,304,o),
(563,421,o),
(446,489,o),
(370,489,q),
(287,489,o),
(169,424,o),
(108,310,o),
(108,237,q)
);
}
);
width = 1199;
},
{
anchors = (
{
name = Anchor_1;
pos = (1316,0);
},
{
name = "top-yezi";
pos = (690,0);
}
);
layerId = m003;
shapes = (
{
closed = 1;
nodes = (
(214,201,o),
(241,144,o),
(313,111,o),
(379,111,q),
(399,111,o),
(424,138,o),
(424,158,q),
(424,178,o),
(399,204,o),
(379,204,q),
(358,204,o),
(332,178,o),
(332,158,q),
(332,138,o),
(358,111,o),
(379,111,q),
(372,32,l),
(327,32,o),
(256,67,o),
(215,128,o),
(215,167,q),
(215,212,o),
(259,282,o),
(337,321,o),
(386,321,q),
(441,321,o),
(525,280,o),
(573,209,o),
(573,163,q),
(573,111,o),
(521,29,o),
(424,-18,o),
(357,-18,q),
(265,-18,o),
(122,48,o),
(40,163,o),
(40,237,q),
(40,323,o),
(128,455,o),
(288,531,o),
(397,531,q),
(464,531,o),
(574,495,o),
(617,461,q),
(617,513,l),
(1255,513,l),
(1270,384,l),
(1113,384,l),
(1113,0,l),
(949,0,l),
(949,384,l),
(781,384,l),
(781,0,l),
(617,0,l),
(617,219,l),
(617,271,o),
(559,349,o),
(463,393,o),
(405,393,q),
(346,393,o),
(260,353,o),
(214,283,o),
(214,237,q)
);
}
);
width = 1280;
}
);
unicode = 2995;
},
{
glyphname = "llla-tml2";
layers = (
{
anchors = (
{
name = Anchor_1;
pos = (786,0);
},
{
name = "top-yezi";
pos = (482,0);
}
);
layerId = m001;
shapes = (
{
closed = 1;
nodes = (
(372,4,l),
(372,-43,l),
(372,-83,o),
(390,-146,o),
(430,-163,q),
(410,-213,o),
(336,-259,o),
(291,-259,q),
(227,-259,o),
(169,-201,o),
(169,-153,q),
(125,-153,l),
(125,-196,o),
(162,-263,o),
(235,-302,o),
(290,-302,q),
(329,-302,o),
(402,-270,o),
(456,-211,o),
(468,-171,q),
(647,-171,l),
(643,-136,l),
(474,-136,l),
(443,-136,o),
(416,-96,o),
(416,-55,q),
(416,10,l)
);
},
{
closed = 1;
nodes = (
(144,518,l),
(100,513,l),
(100,0,l),
(537,0,l),
(605,0,o),
(688,60,o),
(726,164,o),
(726,231,q),
(726,318,o),
(678,454,o),
(588,531,o),
(525,531,q),
(481,531,o),
(411,493,o),
(372,415,o),
(372,355,q),
(372,21,l),
(416,21,l),
(416,356,l),
(416,430,o),
(480,489,o),
(528,489,q),
(576,489,o),
(643,423,o),
(678,306,o),
(678,231,q),
(678,175,o),
(653,86,o),
(592,35,o),
(537,35,q),
(144,35,l)
);
}
);
width = 786;
},
{
anchors = (
{
name = Anchor_1;
pos = (918,0);
},
{
name = "top-yezi";
pos = (590,0);
}
);
layerId = m003;
shapes = (
{
closed = 1;
nodes = (
(404,79,l),
(404,-40,l),
(404,-70,o),
(425,-117,o),
(446,-128,q),
(442,-144,o),
(394,-164,o),
(353,-164,q),
(308,-164,o),
(260,-111,o),
(260,-77,q),
(96,-77,l),
(96,-140,o),
(161,-242,o),
(278,-302,o),
(355,-302,q),
(399,-302,o),
(477,-285,o),
(543,-251,o),
(567,-224,q),
(791,-224,l),
(776,-95,l),
(635,-95,l),
(604,-95,o),
(568,-67,o),
(568,-26,q),
(568,79,l)
);
},
{
closed = 1;
nodes = (
(244,518,l),
(80,513,l),
(80,0,l),
(643,0,l),
(733,0,o),
(856,63,o),
(920,174,o),
(920,244,q),
(920,327,o),
(854,457,o),
(732,531,o),
(649,531,q),
(570,531,o),
(460,469,o),
(404,361,o),
(404,292,q),
(404,56,l),
(568,65,l),
(568,284,l),
(568,331,o),
(602,393,o),
(651,393,q),
(683,393,o),
(725,354,o),
(746,287,o),
(746,244,q),
(746,211,o),
(727,159,o),
(682,129,o),
(643,129,q),
(244,129,l)
);
}
);
width = 960;
}
);
unicode = 2996;
},
{
glyphname = "va-tml2";
layers = (
{
anchors = (
{
name = Anchor_1;
pos = (1084,0);
},
{
name = "top-yezi";
pos = (562,0);
}
);
layerId = m001;
shapes = (
{
closed = 1;
nodes = (
(639,323,o),
(578,429,o),
(462,489,o),
(379,489,q),
(296,489,o),
(174,424,o),
(108,310,o),
(108,237,q),
(108,173,o),
(164,74,o),
(268,17,o),
(339,17,q),
(392,17,o),
(460,85,o),
(460,137,q),
(460,190,o),
(392,257,o),
(339,257,q),
(287,257,o),
(218,191,o),
(218,139,q),
(218,86,o),
(287,17,o),
(339,17,q),
(339,-8,l),
(292,-8,o),
(217,30,o),
(175,96,o),
(175,139,q),
(175,185,o),
(217,255,o),
(292,296,o),
(339,296,q),
(388,296,o),
(463,255,o),
(507,184,o),
(507,137,q),
(507,92,o),
(463,22,o),
(388,-18,o),
(339,-18,q),
(254,-18,o),
(128,48,o),
(60,163,o),
(60,237,q),
(60,323,o),
(139,455,o),
(282,531,o),
(379,531,q),
(473,531,o),
(610,460,o),
(686,335,o),
(686,255,q),
(686,191,o),
(646,76,o),
(612,35,q),
(883,35,l),
(883,513,l),
(927,513,l),
(927,0,l),
(551,0,l),
(551,35,l),
(589,73,o),
(639,185,o),
(639,255,q)
);
}
);
width = 1027;
},
{
anchors = (
{
name = Anchor_1;
pos = (1103,0);
},
{
name = "top-yezi";
pos = (641,0);
}
);
layerId = m003;
shapes = (
{
closed = 1;
nodes = (
(635,289,o),
(584,355,o),
(491,393,o),
(428,393,q),
(366,393,o),
(269,353,o),
(214,283,o),
(214,237,q),
(214,201,o),
(241,144,o),
(313,111,o),
(379,111,q),
(399,111,o),
(424,138,o),
(424,158,q),
(424,178,o),
(399,204,o),
(379,204,q),
(358,204,o),
(332,178,o),
(332,158,q),
(332,138,o),
(358,111,o),
(379,111,q),
(372,32,l),
(327,32,o),
(256,67,o),
(215,128,o),
(215,167,q),
(215,212,o),
(259,282,o),
(337,321,o),
(386,321,q),
(441,321,o),
(525,280,o),
(573,209,o),
(573,163,q),
(573,111,o),
(521,29,o),
(424,-18,o),
(357,-18,q),
(265,-18,o),
(122,48,o),
(40,163,o),
(40,237,q),
(40,323,o),
(139,455,o),
(314,531,o),
(426,531,q),
(539,531,o),
(711,457,o),
(807,329,o),
(807,246,q),
(807,216,o),
(793,157,o),
(778,129,q),
(922,129,l),
(922,513,l),
(1086,513,l),
(1086,0,l),
(606,0,l),
(606,129,l),
(618,155,o),
(635,211,o),
(635,246,q)
);
}
);
width = 1166;
}
);
unicode = 2997;
},
{
glyphname = "sha-tml2";
layers = (
{
anchors = (
{
name = Anchor_1;
pos = (963,0);
},
{
name = "top-yezi";
pos = (524,0);
}
);
layerId = m001;
shapes = (
{
closed = 1;
nodes = (
(818,513,o),
(901,453,o),
(938,349,o),
(938,282,q),
(938,195,o),
(890,60,o),
(800,-18,o),
(737,-18,q),
(693,-18,o),
(623,20,o),
(584,98,o),
(584,158,q),
(584,478,l),
(414,478,l),
(414,176,l),
(414,111,o),
(372,25,o),
(299,-18,o),
(252,-18,q),
(205,-18,o),
(132,25,o),
(90,111,o),
(90,176,q),
(90,513,l),
(134,518,l),
(134,175,l),
(134,100,o),
(201,24,o),
(252,24,q),
(303,24,o),
(370,100,o),
(370,175,q),
(370,513,l),
(749,513,l)
);
},
{
closed = 1;
nodes = (
(789,24,o),
(855,90,o),
(890,207,o),
(890,282,q),
(890,339,o),
(866,427,o),
(805,478,o),
(749,478,q),
(628,478,l),
(628,157,l),
(628,84,o),
(692,24,o),
(741,24,q)
);
}
);
width = 998;
},
{
anchors = (
{
name = Anchor_1;
pos = (1105,0);
},
{
name = "top-yezi";
pos = (651,0);
}
);
layerId = m003;
shapes = (
{
closed = 1;
nodes = (
(999,513,o),
(1122,450,o),
(1186,340,o),
(1186,269,q),
(1186,186,o),
(1120,56,o),
(999,-18,o),
(915,-18,q),
(836,-18,o),
(726,44,o),
(670,152,o),
(670,221,q),
(670,384,l),
(567,384,l),
(567,221,l),
(567,152,o),
(510,44,o),
(399,-18,o),
(318,-18,q),
(237,-18,o),
(127,44,o),
(70,152,o),
(70,221,q),
(70,513,l),
(234,518,l),
(234,230,l),
(234,183,o),
(272,120,o),
(318,120,q),
(365,120,o),
(403,183,o),
(403,230,q),
(403,513,l),
(910,513,l)
);
},
{
closed = 1;
nodes = (
(949,120,o),
(991,159,o),
(1012,226,o),
(1012,269,q),
(1012,303,o),
(993,354,o),
(949,384,o),
(910,384,q),
(834,384,l),
(834,230,l),
(834,182,o),
(868,120,o),
(917,120,q)
);
}
);
width = 1226;
}
);
unicode = 2998;
},
{
glyphname = "ssa-tml2";
layers = (
{
anchors = (
{
name = Anchor_1;
pos = (1156,0);
},
{
name = "top-yezi";
pos = (754,0);
}
);
layerId = m001;
shapes = (
{
closed = 1;
nodes = (
(1244,0,l),
(551,0,l),
(551,35,l),
(1200,35,l),
(1200,478,l),
(1244,478,l)
);
},
{
closed = 1;
nodes = (
(935,531,o),
(1002,489,o),
(1038,416,o),
(1038,369,q),
(1038,-243,l),
(994,-243,l),
(994,364,l),
(994,420,o),
(940,489,o),
(887,489,q),
(835,489,o),
(776,427,o),
(776,379,q),
(776,326,o),
(856,250,o),
(929,250,q),
(981,250,o),
(1085,308,o),
(1173,411,o),
(1200,478,q),
(1236,465,l),
(1211,391,o),
(1115,274,o),
(993,208,o),
(929,208,q),
(867,208,o),
(777,254,o),
(730,332,o),
(729,379,q),
(729,423,o),
(768,492,o),
(839,531,o),
(887,531,q)
);
},
{
closed = 1;
nodes = (
(473,531,o),
(610,460,o),
(686,335,o),
(686,255,q),
(686,188,o),
(641,67,o),
(604,26,q),
(551,35,l),
(589,73,o),
(639,185,o),
(639,255,q),
(639,323,o),
(576,429,o),
(459,489,o),
(379,489,q),
(296,489,o),
(174,424,o),
(108,310,o),
(108,237,q),
(108,173,o),
(164,74,o),
(268,17,o),
(339,17,q),
(392,17,o),
(460,85,o),
(460,137,q),
(460,190,o),
(392,257,o),
(339,257,q),
(287,257,o),
(218,191,o),
(218,139,q),
(218,86,o),
(287,17,o),
(339,17,q),
(339,-8,l),
(292,-8,o),
(217,30,o),
(175,96,o),
(175,139,q),
(175,185,o),
(217,255,o),
(292,296,o),
(339,296,q),
(388,296,o),
(463,255,o),
(507,184,o),
(507,137,q),
(507,92,o),
(463,22,o),
(388,-18,o),
(339,-18,q),
(254,-18,o),
(128,48,o),
(60,163,o),
(60,237,q),
(60,323,o),
(139,455,o),
(282,531,o),
(379,531,q)
);
}
);
width = 1339;
},
{
anchors = (
{
name = Anchor_1;
pos = (1313,0);
},
{
name = "top-yezi";
pos = (852,0);
}
);
layerId = m003;
shapes = (
{
closed = 1;
nodes = (
(1530,0,l),
(606,0,l),
(606,129,l),
(1366,129,l),
(1366,384,l),
(1530,384,l)
);
},
{
closed = 1;
nodes = (
(1112,531,o),
(1205,487,o),
(1259,410,o),
(1259,360,q),
(1259,-243,l),
(1095,-243,l),
(1095,355,l),
(1095,372,o),
(1072,393,o),
(1053,393,q),
(1034,393,o),
(1010,369,o),
(1010,350,q),
(1010,321,o),
(1054,301,o),
(1088,301,q),
(1152,301,o),
(1254,321,o),
(1336,359,o),
(1366,384,q),
(1504,372,l),
(1456,301,o),
(1336,208,o),
(1185,163,o),
(1089,163,q),
(1013,163,o),
(899,211,o),
(837,295,o),
(837,350,q),
(837,403,o),
(892,484,o),
(990,531,o),
(1052,531,q)
);
},
{
closed = 1;
nodes = (
(539,531,o),
(711,457,o),
(807,329,o),
(807,246,q),
(807,193,o),
(761,89,o),
(713,43,q),
(606,129,l),
(618,155,o),
(635,211,o),
(635,246,q),
(635,289,o),
(584,355,o),
(491,393,o),
(428,393,q),
(366,393,o),
(269,353,o),
(214,283,o),
(214,237,q),
(214,201,o),
(241,144,o),
(313,111,o),
(379,111,q),
(399,111,o),
(424,138,o),
(424,158,q),
(424,178,o),
(399,204,o),
(379,204,q),
(358,204,o),
(332,178,o),
(332,158,q),
(332,138,o),
(358,111,o),
(379,111,q),
(372,32,l),
(327,32,o),
(256,67,o),
(215,128,o),
(215,167,q),
(215,212,o),
(259,282,o),
(337,321,o),
(386,321,q),
(441,321,o),
(525,280,o),
(573,209,o),
(573,163,q),
(573,111,o),
(521,29,o),
(424,-18,o),
(357,-18,q),
(265,-18,o),
(122,48,o),
(40,163,o),
(40,237,q),
(40,323,o),
(139,455,o),
(314,531,o),
(426,531,q)
);
}
);
width = 1590;
}
);
unicode = 2999;
},
{
glyphname = "sa-tml2";
layers = (
{
anchors = (
{
name = Anchor_1;
pos = (1305,0);
},
{
name = "top-yezi";
pos = (596,0);
}
);
layerId = m001;
shapes = (
{
closed = 1;
nodes = (
(603,255,l),
(603,328,o),
(543,433,o),
(437,489,o),
(368,489,q),
(285,489,o),
(168,424,o),
(108,310,o),
(108,237,q),
(108,173,o),
(164,74,o),
(268,17,o),
(339,17,q),
(392,17,o),
(460,85,o),
(460,137,q),
(460,190,o),
(392,257,o),
(339,257,q),
(287,257,o),
(218,191,o),
(218,139,q),
(218,86,o),
(287,17,o),
(339,17,q),
(339,-8,l),
(292,-8,o),
(217,30,o),
(175,96,o),
(175,139,q),
(175,185,o),
(217,255,o),
(292,296,o),
(339,296,q),
(388,296,o),
(463,255,o),
(507,184,o),
(507,137,q),
(507,92,o),
(463,22,o),
(388,-18,o),
(339,-18,q),
(254,-18,o),
(128,48,o),
(60,163,o),
(60,237,q),
(60,323,o),
(133,455,o),
(271,531,o),
(368,531,q),
(454,531,o),
(584,456,o),
(618,388,q),
(635,453,o),
(708,531,o),
(769,531,q),
(812,531,o),
(879,492,o),
(918,406,o),
(918,337,q),
(918,210,l),
(918,110,o),
(988,24,o),
(1042,24,q),
(1103,24,o),
(1170,136,o),
(1170,233,q),
(1170,271,o),
(1153,371,o),
(1117,473,o),
(1088,513,q),
(1133,527,l),
(1163,478,o),
(1200,373,o),
(1217,274,o),
(1217,235,q),
(1217,159,o),
(1177,45,o),
(1099,-18,o),
(1042,-18,q),
(994,-18,o),
(918,29,o),
(874,130,o),
(874,210,q),
(874,338,l),
(874,424,o),
(814,489,o),
(769,489,q),
(726,489,o),
(672,429,o),
(647,323,o),
(647,255,q),
(647,0,l),
(603,0,l)
);
}
);
width = 1277;
},
{
anchors = (
{
name = Anchor_1;
pos = (1437,0);
},
{
name = "top-yezi";
pos = (680,0);
}
);
layerId = m003;
shapes = (
{
closed = 1;
nodes = (
(617,246,l),
(617,289,o),
(566,355,o),
(477,393,o),
(419,393,q),
(360,393,o),
(267,353,o),
(214,283,o),
(214,237,q),
(214,201,o),
(241,144,o),
(313,111,o),
(379,111,q),
(399,111,o),
(424,138,o),
(424,158,q),
(424,178,o),
(399,204,o),
(379,204,q),
(358,204,o),
(332,178,o),
(332,158,q),
(332,138,o),
(358,111,o),
(379,111,q),
(372,32,l),
(327,32,o),
(256,67,o),
(215,128,o),
(215,167,q),
(215,212,o),
(259,282,o),
(337,321,o),
(386,321,q),
(441,321,o),
(525,280,o),
(573,209,o),
(573,163,q),
(573,111,o),
(521,29,o),
(424,-18,o),
(357,-18,q),
(265,-18,o),
(122,48,o),
(40,163,o),
(40,237,q),
(40,323,o),
(137,455,o),
(308,531,o),
(417,531,q),
(500,531,o),
(639,484,o),
(688,442,q),
(720,483,o),
(812,530,o),
(871,530,q),
(950,530,o),
(1056,470,o),
(1110,359,o),
(1110,282,q),
(1110,227,l),
(1110,181,o),
(1151,120,o),
(1197,120,q),
(1241,120,o),
(1287,194,o),
(1287,251,q),
(1287,285,o),
(1266,376,o),
(1230,473,o),
(1205,513,q),
(1376,527,l),
(1404,478,o),
(1441,377,o),
(1460,286,o),
(1460,251,q),
(1460,173,o),
(1399,52,o),
(1282,-18,o),
(1197,-18,q),
(1119,-18,o),
(1007,45,o),
(946,156,o),
(946,227,q),
(946,274,l),
(946,333,o),
(910,392,o),
(868,392,q),
(837,392,o),
(798,354,o),
(781,289,o),
(781,246,q),
(781,0,l),
(617,0,l)
);
}
);
width = 1500;
}
);
unicode = 3000;
},
{
glyphname = "ha-tml2";
layers = (
{
anchors = (
{
name = Anchor_1;
pos = (1542,0);
},
{
name = "top-yezi";
pos = (1140,0);
}
);
layerId = m001;
shapes = (
{
closed = 1;
nodes = (
(551,35,l),
(589,73,o),
(639,185,o),
(639,255,q),
(639,323,o),
(576,429,o),
(459,489,o),
(379,489,q),
(296,489,o),
(174,424,o),
(108,310,o),
(108,237,q),
(108,173,o),
(164,74,o),
(268,17,o),
(339,17,q),
(392,17,o),
(460,85,o),
(460,137,q),
(460,190,o),
(392,257,o),
(339,257,q),
(287,257,o),
(218,191,o),
(218,139,q),
(218,86,o),
(287,17,o),
(339,17,q),
(339,-8,l),
(292,-8,o),
(217,30,o),
(175,96,o),
(175,139,q),
(175,185,o),
(217,255,o),
(292,296,o),
(339,296,q),
(388,296,o),
(463,255,o),
(507,184,o),
(507,137,q),
(507,92,o),
(463,22,o),
(388,-18,o),
(339,-18,q),
(254,-18,o),
(128,48,o),
(60,163,o),
(60,237,q),
(60,323,o),
(139,455,o),
(282,531,o),
(379,531,q),
(473,531,o),
(610,460,o),
(686,335,o),
(686,255,q),
(686,191,o),
(646,76,o),
(612,35,q),
(847,35,l),
(847,337,l),
(847,401,o),
(884,487,o),
(952,531,o),
(996,531,q),
(1044,531,o),
(1116,478,o),
(1136,433,q),
(1156,481,o),
(1231,531,o),
(1273,531,q),
(1340,531,o),
(1428,454,o),
(1471,318,o),
(1471,231,q),
(1471,116,o),
(1408,-62,o),
(1269,-164,o),
(1153,-164,q),
(259,-164,l),
(201,-164,o),
(116,-208,o),
(94,-243,q),
(60,-222,l),
(84,-181,o),
(192,-129,o),
(259,-129,q),
(1153,-129,l),
(1254,-129,o),
(1373,-35,o),
(1424,128,o),
(1424,231,q),
(1424,307,o),
(1392,423,o),
(1327,489,o),
(1277,489,q),
(1225,489,o),
(1162,415,o),
(1162,338,q),
(1162,0,l),
(1118,0,l),
(1118,320,l),
(1118,369,o),
(1089,445,o),
(1037,489,o),
(1000,489,q),
(948,489,o),
(891,415,o),
(891,338,q),
(891,0,l),
(551,0,l)
);
}
);
width = 1531;
},
{
anchors = (
{
name = Anchor_1;
pos = (1773,0);
},
{
name = "top-yezi";
pos = (1327,0);
}
);
layerId = m003;
shapes = (
{
closed = 1;
nodes = (
(606,129,l),
(618,155,o),
(635,211,o),
(635,246,q),
(635,289,o),
(584,355,o),
(491,393,o),
(428,393,q),
(365,393,o),
(268,353,o),
(214,283,o),
(214,237,q),
(214,201,o),
(241,144,o),
(313,111,o),
(379,111,q),
(399,111,o),
(424,138,o),
(424,158,q),
(424,178,o),
(399,204,o),
(379,204,q),
(358,204,o),
(332,178,o),
(332,158,q),
(332,138,o),
(358,111,o),
(379,111,q),
(372,32,l),
(327,32,o),
(256,67,o),
(215,128,o),
(215,167,q),
(215,212,o),
(259,282,o),
(337,321,o),
(386,321,q),
(441,321,o),
(525,280,o),
(573,209,o),
(573,163,q),
(573,111,o),
(521,29,o),
(424,-18,o),
(357,-18,q),
(265,-18,o),
(122,48,o),
(40,163,o),
(40,237,q),
(40,323,o),
(139,455,o),
(314,531,o),
(426,531,q),
(539,531,o),
(711,457,o),
(807,329,o),
(807,246,q),
(807,216,o),
(793,158,o),
(778,129,q),
(904,129,l),
(904,283,l),
(904,360,o),
(959,471,o),
(1067,531,o),
(1146,531,q),
(1198,531,o),
(1285,487,o),
(1317,448,q),
(1349,484,o),
(1445,531,o),
(1504,531,q),
(1591,531,o),
(1712,447,o),
(1776,302,o),
(1776,208,q),
(1776,90,o),
(1694,-93,o),
(1533,-198,o),
(1414,-198,q),
(303,-198,l),
(224,-198,o),
(150,-223,o),
(137,-243,q),
(40,-157,l),
(61,-116,o),
(174,-69,o),
(289,-69,q),
(1414,-69,l),
(1482,-69,o),
(1565,2,o),
(1602,128,o),
(1602,208,q),
(1602,262,o),
(1584,345,o),
(1542,393,o),
(1506,393,q),
(1459,393,o),
(1415,331,o),
(1415,284,q),
(1415,0,l),
(1251,0,l),
(1251,248,l),
(1251,290,o),
(1231,356,o),
(1189,393,o),
(1155,393,q),
(1113,393,o),
(1068,334,o),
(1068,275,q),
(1068,0,l),
(606,0,l)
);
}
);
width = 1816;
}
);
unicode = 3001;
},
{
glyphname = "om-tml2";
layers = (
{
layerId = m001;
shapes = (
{
closed = 1;
nodes = (
(422,32,o),
(431,41,o),
(431,48,q),
(431,56,o),
(422,65,o),
(415,65,q),
(399,65,o),
(399,48,q),
(399,32,o),
(415,32,q)
);
},
{
closed = 1;
nodes = (
(371,12,l),
(346,11,l),
(346,-95,l),
(442,-95,l),
(467,-95,o),
(494,-65,o),
(494,-41,q),
(494,-16,o),
(468,15,o),
(444,15,q),
(424,15,o),
(403,-11,o),
(403,-31,q),
(403,-94,l),
(428,-91,l),
(428,-32,l),
(428,-22,o),
(435,-7,o),
(447,-7,q),
(458,-7,o),
(469,-27,o),
(469,-41,q),
(469,-54,o),
(455,-72,o),
(444,-72,q),
(371,-72,l)
);
},
{
closed = 1;
nodes = (
(485,534,o),
(613,497,o),
(707,429,o),
(759,337,o),
(759,282,q),
(759,237,o),
(729,166,o),
(672,126,o),
(629,126,q),
(594,126,o),
(538,163,o),
(506,228,o),
(506,269,q),
(541,269,l),
(543,224,o),
(592,168,o),
(629,168,q),
(673,168,o),
(711,231,o),
(711,282,q),
(711,343,o),
(632,437,o),
(496,491,o),
(409,491,q),
(321,491,o),
(183,434,o),
(104,334,o),
(104,269,q),
(104,231,o),
(132,173,o),
(183,140,o),
(217,140,q),
(249,140,o),
(291,182,o),
(292,213,q),
(292,246,o),
(251,288,o),
(219,288,q),
(185,288,o),
(141,246,o),
(141,212,q),
(141,181,o),
(184,140,o),
(217,140,q),
(217,106,l),
(169,106,o),
(106,168,o),
(106,215,q),
(106,265,o),
(171,328,o),
(220,328,q),
(271,328,o),
(337,263,o),
(337,213,q),
(337,165,o),
(270,102,o),
(217,102,q),
(172,102,o),
(101,145,o),
(60,221,o),
(60,269,q),
(60,327,o),
(112,424,o),
(206,495,o),
(333,534,o),
(409,534,q)
);
},
{
closed = 1;
nodes = (
(661,-35,l),
(575,-35,o),
(497,54,o),
(497,133,q),
(497,269,l),
(536,269,l),
(536,133,l),
(536,69,o),
(594,0,o),
(661,0,q),
(720,0,l),
(720,-35,l)
);
},
{
closed = 1;
nodes = (
(473,-180,o),
(549,-106,o),
(549,-50,q),
(549,19,l),
(593,0,l),
(593,-50,l),
(593,-99,o),
(547,-175,o),
(466,-219,o),
(414,-219,q),
(362,-219,o),
(281,-175,o),
(235,-99,o),
(235,-50,q),
(235,0,l),
(279,0,l),
(279,-50,l),
(279,-106,o),
(356,-180,o),
(414,-180,q)
);
}
);
width = 819;
},
{
layerId = m003;
shapes = (
{
closed = 1;
nodes = (
(448,41,o),
(457,49,o),
(457,55,q),
(457,63,o),
(448,72,o),
(443,72,q),
(428,72,o),
(428,55,q),
(428,41,o),
(443,41,q)
);
},
{
closed = 1;
nodes = (
(421,33,l),
(394,33,l),
(394,-40,l),
(461,-40,l),
(478,-40,o),
(497,-20,o),
(497,-4,q),
(497,13,o),
(479,34,o),
(462,34,q),
(448,34,o),
(432,17,o),
(432,3,q),
(432,-21,l),
(457,-21,l),
(457,3,l),
(457,8,o),
(461,12,o),
(465,12,q),
(469,12,o),
(473,3,o),
(473,-4,q),
(473,-8,o),
(468,-17,o),
(462,-17,q),
(421,-17,l)
);
},
{
closed = 1;
nodes = (
(528,534,o),
(681,497,o),
(797,429,o),
(863,337,o),
(863,282,q),
(863,229,o),
(812,147,o),
(722,101,o),
(664,101,q),
(616,101,o),
(536,143,o),
(487,218,o),
(487,269,q),
(600,269,l),
(601,252,o),
(623,230,o),
(646,230,q),
(666,230,o),
(691,259,o),
(691,282,q),
(691,315,o),
(623,367,o),
(510,396,o),
(440,396,q),
(368,396,o),
(240,361,o),
(161,300,o),
(161,260,q),
(161,219,o),
(175,181,o),
(199,171,o),
(214,171,q),
(231,171,o),
(255,195,o),
(256,213,q),
(256,230,o),
(233,253,o),
(215,253,q),
(196,253,o),
(172,230,o),
(172,213,q),
(172,195,o),
(196,171,o),
(214,171,q),
(217,97,l),
(164,97,o),
(106,160,o),
(106,209,q),
(106,266,o),
(176,340,o),
(229,340,q),
(289,340,o),
(368,270,o),
(368,215,q),
(368,154,o),
(282,75,o),
(215,75,q),
(163,75,o),
(82,121,o),
(35,200,o),
(35,251,q),
(35,313,o),
(97,416,o),
(207,492,o),
(354,534,o),
(440,534,q)
);
},
{
closed = 1;
nodes = (
(701,-56,l),
(585,-56,o),
(472,51,o),
(472,151,q),
(472,269,l),
(600,269,l),
(600,142,l),
(600,100,o),
(642,64,o),
(701,64,q),
(802,64,l),
(802,-56,l)
);
},
{
closed = 1;
nodes = (
(496,-81,o),
(559,-43,o),
(559,-14,q),
(559,18,l),
(714,18,l),
(714,-23,l),
(714,-80,o),
(646,-168,o),
(527,-219,o),
(450,-219,q),
(374,-219,o),
(254,-168,o),
(186,-75,o),
(186,-13,q),
(186,18,l),
(341,18,l),
(341,-4,l),
(341,-41,o),
(402,-81,o),
(448,-81,q)
);
}
);
width = 878;
}
);
unicode = 3024;
},
{
glyphname = "signvisarga-tml2";
layers = (
{
layerId = m001;
shapes = (
{
closed = 1;
nodes = (
(364,328,o),
(411,353,o),
(439,398,o),
(439,427,q),
(439,456,o),
(410,501,o),
(363,527,o),
(335,527,q),
(308,527,o),
(261,501,o),
(231,456,o),
(231,427,q),
(231,398,o),
(260,353,o),
(307,328,o),
(335,328,q)
);
},
{
closed = 1;
nodes = (
(308,365,o),
(273,400,o),
(273,427,q),
(273,454,o),
(308,489,o),
(335,489,q),
(362,489,o),
(397,454,o),
(397,427,q),
(397,400,o),
(362,365,o),
(335,365,q)
);
},
{
closed = 1;
nodes = (
(193,-14,o),
(240,12,o),
(268,57,o),
(268,86,q),
(268,115,o),
(239,160,o),
(192,185,o),
(164,185,q),
(137,185,o),
(90,160,o),
(60,115,o),
(60,86,q),
(60,57,o),
(89,12,o),
(136,-14,o),
(164,-14,q)
);
},
{
closed = 1;
nodes = (
(535,-14,o),
(582,12,o),
(610,57,o),
(610,86,q),
(610,115,o),
(581,160,o),
(534,185,o),
(506,185,q),
(479,185,o),
(432,160,o),
(402,115,o),
(402,86,q),
(402,57,o),
(431,12,o),
(478,-14,o),
(506,-14,q)
);
},
{
closed = 1;
nodes = (
(137,23,o),
(102,59,o),
(102,86,q),
(102,113,o),
(137,149,o),
(164,149,q),
(191,149,o),
(226,113,o),
(226,86,q),
(226,59,o),
(191,23,o),
(164,23,q)
);
},
{
closed = 1;
nodes = (
(479,23,o),
(444,59,o),
(444,86,q),
(444,113,o),
(479,148,o),
(506,148,q),
(533,148,o),
(568,113,o),
(568,86,q),
(568,59,o),
(533,23,o),
(506,23,q)
);
}
);
width = 670;
},
{
layerId = m003;
shapes = (
{
closed = 1;
nodes = (
(422,266,o),
(489,303,o),
(528,368,o),
(528,409,q),
(528,451,o),
(489,516,o),
(422,554,o),
(378,554,q),
(335,554,o),
(267,516,o),
(229,451,o),
(229,409,q),
(229,368,o),
(267,303,o),
(335,266,o),
(378,266,q)
);
},
{
closed = 1;
nodes = (
(362,370,o),
(340,392,o),
(340,409,q),
(340,426,o),
(362,448,o),
(378,448,q),
(395,448,o),
(418,426,o),
(418,409,q),
(418,392,o),
(395,370,o),
(378,370,q)
);
},
{
closed = 1;
nodes = (
(233,-14,o),
(300,23,o),
(339,89,o),
(339,130,q),
(339,172,o),
(300,237,o),
(233,275,o),
(189,275,q),
(146,275,o),
(78,237,o),
(40,172,o),
(40,130,q),
(40,89,o),
(78,23,o),
(146,-14,o),
(189,-14,q)
);
},
{
closed = 1;
nodes = (
(611,-14,o),
(678,23,o),
(717,89,o),
(717,130,q),
(717,172,o),
(678,237,o),
(611,275,o),
(567,275,q),
(524,275,o),
(456,237,o),
(418,172,o),
(418,130,q),
(418,89,o),
(456,23,o),
(524,-14,o),
(567,-14,q)
);
},
{
closed = 1;
nodes = (
(173,91,o),
(151,113,o),
(151,130,q),
(151,147,o),
(173,169,o),
(189,169,q),
(206,169,o),
(229,147,o),
(229,130,q),
(229,113,o),
(206,91,o),
(189,91,q)
);
},
{
closed = 1;
nodes = (
(551,91,o),
(529,113,o),
(529,130,q),
(529,147,o),
(551,169,o),
(567,169,q),
(584,169,o),
(607,147,o),
(607,130,q),
(607,113,o),
(584,91,o),
(567,91,q)
);
}
);
width = 757;
}
);
unicode = 2947;
},
{
glyphname = "ten-tml2";
layers = (
{
layerId = m001;
shapes = (
{
closed = 1;
nodes = (
(649,478,o),
(686,373,o),
(704,274,o),
(704,235,q),
(704,159,o),
(663,45,o),
(585,-18,o),
(528,-18,q),
(479,-18,o),
(403,29,o),
(382,80,q),
(360,29,o),
(284,-18,o),
(236,-18,q),
(179,-18,o),
(100,45,o),
(60,159,o),
(60,235,q),
(60,274,o),
(77,373,o),
(115,478,o),
(145,527,q),
(190,513,l),
(162,473,o),
(125,371,o),
(108,271,o),
(108,233,q),
(108,136,o),
(175,24,o),
(236,24,q),
(290,24,o),
(360,110,o),
(360,210,q),
(360,338,l),
(404,338,l),
(404,210,l),
(404,110,o),
(474,24,o),
(528,24,q),
(589,24,o),
(656,136,o),
(656,233,q),
(656,271,o),
(639,371,o),
(603,473,o),
(574,513,q),
(619,527,l)
);
}
);
width = 764;
},
{
layerId = m003;
shapes = (
{
closed = 1;
nodes = (
(848,478,o),
(885,377,o),
(904,286,o),
(904,251,q),
(904,173,o),
(843,52,o),
(726,-18,o),
(641,-18,q),
(589,-18,o),
(504,11,o),
(472,37,q),
(441,11,o),
(355,-18,o),
(303,-18,q),
(219,-18,o),
(102,52,o),
(40,173,o),
(40,251,q),
(40,286,o),
(59,377,o),
(97,478,o),
(125,527,q),
(296,513,l),
(271,473,o),
(234,376,o),
(214,285,o),
(214,251,q),
(214,194,o),
(259,120,o),
(303,120,q),
(350,120,o),
(390,181,o),
(390,227,q),
(390,380,l),
(554,380,l),
(554,227,l),
(554,181,o),
(595,120,o),
(641,120,q),
(685,120,o),
(730,194,o),
(730,251,q),
(730,285,o),
(710,376,o),
(673,473,o),
(648,513,q),
(819,527,l)
);
}
);
width = 944;
}
);
unicode = 3056;
},
{
glyphname = "onehundred-tml2";
layers = (
{
layerId = m001;
shapes = (
{
closed = 1;
nodes = (
(90,337,l),
(90,406,o),
(132,492,o),
(205,531,o),
(252,531,q),
(294,531,o),
(358,494,o),
(379,461,q),
(379,513,l),
(933,513,l),
(938,478,l),
(737,478,l),
(737,0,l),
(693,0,l),
(693,478,l),
(423,478,l),
(423,0,l),
(379,0,l),
(379,320,l),
(379,394,o),
(314,489,o),
(252,489,q),
(201,489,o),
(134,424,o),
(134,338,q),
(134,0,l),
(90,0,l)
);
}
);
width = 948;
},
{
layerId = m003;
shapes = (
{
closed = 1;
nodes = (
(70,283,l),
(70,360,o),
(127,471,o),
(234,531,o),
(309,531,q),
(345,531,o),
(409,508,o),
(435,488,q),
(435,513,l),
(1074,513,l),
(1089,384,l),
(931,384,l),
(931,0,l),
(768,0,l),
(768,384,l),
(599,384,l),
(599,0,l),
(435,0,l),
(435,248,l),
(435,311,o),
(378,393,o),
(321,393,q),
(279,393,o),
(234,334,o),
(234,275,q),
(234,0,l),
(70,0,l)
);
}
);
width = 1099;
}
);
unicode = 3057;
},
{
glyphname = "onethousand-tml2";
layers = (
{
layerId = m001;
shapes = (
{
closed = 1;
nodes = (
(790,134,l),
(809,134,l),
(859,134,o),
(929,90,o),
(967,12,o),
(967,-38,q),
(967,-92,o),
(911,-175,o),
(809,-223,o),
(739,-223,q),
(615,-223,l),
(569,-223,o),
(503,-258,o),
(486,-285,q),
(451,-265,l),
(471,-233,o),
(552,-188,o),
(604,-188,q),
(739,-188,l),
(823,-188,o),
(919,-103,o),
(919,-38,q),
(919,2,o),
(894,63,o),
(845,99,o),
(809,99,q),
(790,99,l),
(790,66,l),
(790,12,o),
(747,-67,o),
(668,-109,o),
(613,-109,q),
(569,-109,o),
(502,-78,o),
(465,-23,o),
(465,12,q),
(465,65,o),
(541,134,o),
(611,134,q),
(746,134,l),
(746,252,l),
(453,252,l),
(453,205,l),
(453,132,o),
(397,32,o),
(299,-18,o),
(236,-18,q),
(180,-18,o),
(96,22,o),
(50,92,o),
(50,136,q),
(50,189,o),
(111,267,o),
(167,280,q),
(167,513,l),
(622,513,l),
(627,478,l),
(453,478,l),
(453,287,l),
(921,287,l),
(926,252,l),
(790,252,l)
);
},
{
closed = 1;
nodes = (
(211,287,l),
(409,287,l),
(409,478,l),
(211,478,l)
);
},
{
closed = 1;
nodes = (
(286,24,o),
(364,64,o),
(409,145,o),
(409,205,q),
(409,252,l),
(226,252,l),
(164,252,o),
(98,186,o),
(98,135,q),
(98,85,o),
(171,24,o),
(236,24,q)
);
},
{
closed = 1;
nodes = (
(513,-24,o),
(567,-67,o),
(613,-67,q),
(656,-67,o),
(715,-36,o),
(746,23,o),
(746,66,q),
(746,99,l),
(613,99,l),
(562,99,o),
(513,49,o),
(513,11,q)
);
}
);
width = 1007;
},
{
layerId = m003;
shapes = (
{
closed = 1;
nodes = (
(912,155,l),
(922,155,l),
(979,155,o),
(1072,105,o),
(1128,18,o),
(1128,-38,q),
(1128,-99,o),
(1069,-195,o),
(961,-250,o),
(887,-250,q),
(737,-250,l),
(676,-250,o),
(618,-270,o),
(608,-285,q),
(522,-218,l),
(539,-186,o),
(628,-140,o),
(718,-140,q),
(887,-140,l),
(931,-140,o),
(980,-82,o),
(980,-38,q),
(980,-16,o),
(965,18,o),
(937,40,o),
(916,44,q),
(911,45,l),
(910,41,l),
(898,-8,o),
(836,-78,o),
(749,-115,o),
(697,-115,q),
(637,-115,o),
(555,-77,o),
(513,-13,o),
(513,25,q),
(513,80,o),
(604,155,o),
(692,155,q),
(766,155,l),
(766,191,l),
(528,191,l),
(527,180,l),
(521,115,o),
(441,26,o),
(320,-18,o),
(252,-18,q),
(176,-18,o),
(78,28,o),
(30,107,o),
(30,156,q),
(30,204,o),
(81,281,o),
(133,301,q),
(133,513,l),
(697,513,l),
(712,384,l),
(528,384,l),
(528,320,l),
(1084,320,l),
(1099,191,l),
(912,191,l)
);
},
{
closed = 1;
nodes = (
(291,320,l),
(373,320,l),
(373,384,l),
(291,384,l)
);
},
{
closed = 1;
nodes = (
(279,120,o),
(326,132,o),
(365,162,o),
(371,187,q),
(372,191,l),
(258,191,l),
(222,191,o),
(187,170,o),
(187,156,q),
(187,143,o),
(223,120,o),
(260,120,q)
);
},
{
closed = 1;
nodes = (
(654,14,o),
(680,-1,o),
(702,-1,q),
(716,-1,o),
(740,7,o),
(759,25,o),
(763,41,q),
(764,45,l),
(701,45,l),
(679,45,o),
(654,35,o),
(654,24,q)
);
}
);
width = 1148;
}
);
unicode = 3058;
},
{
glyphname = "zero-tml2";
layers = (
{
layerId = m001;
shapes = (
{
closed = 1;
nodes = (
(454,531,o),
(591,461,o),
(668,337,o),
(668,257,q),
(668,177,o),
(591,52,o),
(454,-18,o),
(364,-18,q),
(274,-18,o),
(138,52,o),
(61,177,o),
(60,257,q),
(61,337,o),
(138,461,o),
(274,531,o),
(364,531,q)
);
},
{
closed = 1;
nodes = (
(443,24,o),
(558,85,o),
(621,190,o),
(621,257,q),
(622,324,o),
(558,428,o),
(443,489,o),
(364,489,q),
(286,489,o),
(171,428,o),
(108,324,o),
(108,257,q),
(109,190,o),
(171,85,o),
(286,24,o),
(364,24,q)
);
}
);
width = 728;
},
{
layerId = m003;
shapes = (
{
closed = 1;
nodes = (
(454,531,o),
(599,460,o),
(683,337,o),
(683,257,q),
(683,177,o),
(600,53,o),
(455,-18,o),
(361,-18,q),
(269,-18,o),
(124,53,o),
(41,177,o),
(40,257,q),
(40,337,o),
(123,460,o),
(268,531,o),
(361,531,q)
);
},
{
closed = 1;
nodes = (
(405,120,o),
(472,155,o),
(511,217,o),
(511,257,q),
(512,297,o),
(473,358,o),
(405,393,o),
(361,393,q),
(318,393,o),
(251,358,o),
(212,297,o),
(212,257,q),
(212,217,o),
(250,155,o),
(318,120,o),
(361,120,q)
);
}
);
width = 723;
}
);
unicode = 3046;
},
